<mxfile host="app.diagrams.net" agent="Mozilla/5.0 (X11; Ubuntu; Linux x86_64; rv:129.0) Gecko/20100101 Firefox/129.0" version="24.7.8" pages="2">
  <diagram name="Page-1" id="V6EeJXOUMTCLqPKDWSNX">
    <mxGraphModel dx="2284" dy="822" grid="1" gridSize="10" guides="1" tooltips="1" connect="1" arrows="1" fold="1" page="1" pageScale="1" pageWidth="850" pageHeight="1100" math="0" shadow="0">
      <root>
        <mxCell id="0" />
        <mxCell id="1" parent="0" />
        <mxCell id="0RQWI6Ay9hwaob9HxWqD-5" style="edgeStyle=orthogonalEdgeStyle;rounded=0;orthogonalLoop=1;jettySize=auto;html=1;" edge="1" parent="1" source="0RQWI6Ay9hwaob9HxWqD-7">
          <mxGeometry relative="1" as="geometry">
            <mxPoint x="780" y="430" as="targetPoint" />
          </mxGeometry>
        </mxCell>
        <mxCell id="0RQWI6Ay9hwaob9HxWqD-11" value="eth0" style="edgeLabel;html=1;align=center;verticalAlign=middle;resizable=0;points=[];" vertex="1" connectable="0" parent="0RQWI6Ay9hwaob9HxWqD-5">
          <mxGeometry x="0.7631" y="-2" relative="1" as="geometry">
            <mxPoint as="offset" />
          </mxGeometry>
        </mxCell>
        <mxCell id="0RQWI6Ay9hwaob9HxWqD-2" value="BIH" style="whiteSpace=wrap;html=1;aspect=fixed;" vertex="1" parent="1">
          <mxGeometry x="380" y="390" width="80" height="80" as="geometry" />
        </mxCell>
        <mxCell id="0RQWI6Ay9hwaob9HxWqD-3" value="&lt;div&gt;CREDS&lt;/div&gt;&lt;div&gt;USER:VyOS&lt;/div&gt;&lt;div&gt;PASS:password&lt;br&gt;&lt;/div&gt;" style="whiteSpace=wrap;html=1;" vertex="1" parent="1">
          <mxGeometry x="480" y="260" width="120" height="60" as="geometry" />
        </mxCell>
        <mxCell id="0RQWI6Ay9hwaob9HxWqD-4" value="Starting IP " style="whiteSpace=wrap;html=1;" vertex="1" parent="1">
          <mxGeometry x="490" y="330" width="120" height="60" as="geometry" />
        </mxCell>
        <mxCell id="0RQWI6Ay9hwaob9HxWqD-6" value="" style="edgeStyle=orthogonalEdgeStyle;rounded=0;orthogonalLoop=1;jettySize=auto;html=1;" edge="1" parent="1" source="0RQWI6Ay9hwaob9HxWqD-2" target="0RQWI6Ay9hwaob9HxWqD-7">
          <mxGeometry relative="1" as="geometry">
            <mxPoint x="670" y="430" as="targetPoint" />
            <mxPoint x="460" y="430" as="sourcePoint" />
          </mxGeometry>
        </mxCell>
        <mxCell id="0RQWI6Ay9hwaob9HxWqD-7" value="NET" style="ellipse;shape=cloud;whiteSpace=wrap;html=1;" vertex="1" parent="1">
          <mxGeometry x="500" y="390" width="120" height="80" as="geometry" />
        </mxCell>
        <mxCell id="0RQWI6Ay9hwaob9HxWqD-9" style="edgeStyle=orthogonalEdgeStyle;rounded=0;orthogonalLoop=1;jettySize=auto;html=1;" edge="1" parent="1" source="0RQWI6Ay9hwaob9HxWqD-8">
          <mxGeometry relative="1" as="geometry">
            <mxPoint x="1090" y="440" as="targetPoint" />
          </mxGeometry>
        </mxCell>
        <mxCell id="0RQWI6Ay9hwaob9HxWqD-15" value="Text" style="edgeLabel;html=1;align=center;verticalAlign=middle;resizable=0;points=[];" vertex="1" connectable="0" parent="0RQWI6Ay9hwaob9HxWqD-9">
          <mxGeometry x="-0.746" y="-4" relative="1" as="geometry">
            <mxPoint as="offset" />
          </mxGeometry>
        </mxCell>
        <mxCell id="0RQWI6Ay9hwaob9HxWqD-12" style="edgeStyle=orthogonalEdgeStyle;rounded=0;orthogonalLoop=1;jettySize=auto;html=1;" edge="1" parent="1" source="0RQWI6Ay9hwaob9HxWqD-8">
          <mxGeometry relative="1" as="geometry">
            <mxPoint x="830" y="180" as="targetPoint" />
          </mxGeometry>
        </mxCell>
        <mxCell id="0RQWI6Ay9hwaob9HxWqD-14" value="eth1: 172.16.20.10/29" style="edgeLabel;html=1;align=center;verticalAlign=middle;resizable=0;points=[];" vertex="1" connectable="0" parent="0RQWI6Ay9hwaob9HxWqD-12">
          <mxGeometry x="-0.8575" y="4" relative="1" as="geometry">
            <mxPoint as="offset" />
          </mxGeometry>
        </mxCell>
        <mxCell id="0RQWI6Ay9hwaob9HxWqD-13" style="edgeStyle=orthogonalEdgeStyle;rounded=0;orthogonalLoop=1;jettySize=auto;html=1;" edge="1" parent="1" source="0RQWI6Ay9hwaob9HxWqD-8">
          <mxGeometry relative="1" as="geometry">
            <mxPoint x="830" y="650" as="targetPoint" />
          </mxGeometry>
        </mxCell>
        <mxCell id="0RQWI6Ay9hwaob9HxWqD-8" value="&lt;div&gt;172.16.20.1/29&lt;/div&gt;&lt;div&gt;SSH 22&lt;/div&gt;&lt;div&gt;179&lt;br&gt;&lt;/div&gt;&lt;div&gt;HN: BLUE-SCR&lt;br&gt;&lt;/div&gt;" style="whiteSpace=wrap;html=1;aspect=fixed;" vertex="1" parent="1">
          <mxGeometry x="780" y="390" width="100" height="100" as="geometry" />
        </mxCell>
        <mxCell id="0RQWI6Ay9hwaob9HxWqD-10" value="" style="shape=image;verticalLabelPosition=bottom;labelBackgroundColor=default;verticalAlign=top;aspect=fixed;imageAspect=0;image=data:image/png,iVBORw0KGgoAAAANSUhEUgAAAp8AAACeCAYAAAB0K2GEAAAABHNCSVQICAgIfAhkiAAAIABJREFUeF7svQdYVVe68P87h0MvShEpoqKIIthRxAYaiQWNGhOdRI1xTPLdfCaTmdyZuZlk7r3z/+f7krlt0tskk5iYmMwkxlhRYy+gglgTpCgqCNJ755zzrQOIlMM5myro2s/Do2fvtd/1rt9q735XUwF6C2d/ZkXMZtJIb/pb66nIT+fy0R38EHcLrQiA2hG/sMXMnzoSDwc1VfnXuXB4J1FnblFteG64NAMYH7mMiDHuWNaUk5N4mbIR03A+/RYfHMlBZwijssJjfAQPzhzLMHcHLKpLyb+VSkL0fvZdyhVhVNiPeICH547Dx70/9lZ6ynNSOXdoJ/vO51BzO666f9V4zn2e5x9w4cKXr/LNT7XNnpr9oXJg2PS5zBjnxyDXfthbQ2VhJlfOHWbPoZ/Jb6c4s/GZC9AufVTYDpnJ8qUz8R/ogKVaS/KW1/kstgy9YGjjE8qSJWH499NRWVlG1qWT3Bq8lMm5G/nz1pT6PK3Tx5Qcw2Nz+XU7UWrcwp7lN/P7c3bjf/FdYmOpMJfqhucqXGc+y4uRg7Fo+YY2g31vv8vBrLoS1EOXAn2ybQl+8g88MlLTSidtxo+88+4Bbuks8F/+MmucovjzxjjK9CKo2o2wZ18g+MpHvLEnva5eaAJ/wb8+Zsv21zZyptwQSEW/iat57mF3Lmx8n50pFSJfDVdnOQsRFgOYuGwlC8a4oi/JI+1CPAX+CxmZ8mGjPq0S1J03LN0Z9+BCZo8fxgB70bYU3uRyzB52H0+ltC7RGkav/Fcetz/B7mJ/wsd6YFuVw+UTon06crWeaaN+neRjNY7V//YYQRo9em0NFcU53Lh8hqOHTnK1uCfLX0OClOqjoH22GPYQv39qLMmf/4eon7W4zPgn/nl+Ndv+41NOlxhAKyur9Zp1hrMG38X/zFOjf+aT/95Bal0HU3+pHKew7veLYcd/8tnpkoYyf+d59/yvHfqY6eNUQyJ58ZdO7H71axJc5/DchiGc+PNG4jVTWP/bSSS99SFH87uu3TDLo9eWH7OaywD3CQFDyyP/JIOOlwGVvT74yf9f/+qzM/UD1LIsdVt9ui85a/SjV/5/+lfXjNdbmauj9yWfu1DfJOeOt5XmyrB8LtneJ2VAfZ8Y2DKZ3UnAcijDfUqI23eKnLvgIOrOpPUq2ZKz6eyQfEzz6aqnknNXkZRyJIH7loBKpLx+RO++RSATLglIAr2XQP2w+2NWW3l107k703x6r8JSM0lAEpAEJAEzBKTxaQaQfCwJSAKSgCQgCUgCkoAk0HUE5LB717GUkiQBSUASkAQkAUlAEpAEzBCQxqcZQPKxJCAJSAKSgCQgCUgCkkDXEZDGZ9exlJIkAUlAEpAEJAFJQBKQBMwQMGyr+CczYXrvY407kx5+kidXLiVyXgTT+qdxIiFPrqDqvTnWOzVTD2Leb37HfKtLnLlebrz8KAnTO1MntZIEJAFJoM8RULnM4J9eXsGAlJOkFHfvuuiejKvPZUQ3KawZuuhfeGaGs9i+uulVS8K3/5cvztze3Fph7BbDWfovT+J24D/526nu3yTYOmAui8ZUc/jj/yA2rxptrfhTqKoM1lMELBi66LdmypgFfsteYn2Io9heXWy/oNdSU1bAzaRYDuw5Jhqe9u7fZEXAo79n1TgrMva9zYdHDQcYyEsSkAQkgU4QsBIHIsydz6xxvgy0t6BatFFZ13/meNQ+fipowzjS+LDgV8/gd/493jtwq+4glboDNeYV8c2fvuJidx5mcnuTeQs9urpDE7K5kRjP0YMnSS3pAy1iVRaJZ38it6wTeabUJumKuDqh5v34qibj6Ge8E69BM2weTy/oT+zmf3CmQJyMU1Bl3APUayipcXR2RlN8hSsZxZT3gbrUa9D1qCI6lJYxXd5pvvniGLf0ljh4BDFn8TyecNXz7kdHyW5P/loNI3BEGXEnbzI2MADnY8fIa6Nv6FEUMjJJQBLomwRUdoxe+hSP+t7k4M6NfJtVjVW/AQwe5Y+zOJmLAmNuDxWOY8OZbJfA1pNZd+kDWEv64c/49kIVjgN8mRAewfpnvdj8/hZ+rj9CrNfmh74smUPfJ/eIfj0ZV48kqA9EoqkWX0OZxeIQO2eDl9OekuxMMprtFF5/7NoTzqfYccuHaWMH4WxdSfrp7XyzOwGDN1zlMJl1Ly3H//ZJg8te4fVlhtTXktR47KP4aTiuccI8FoSNZairLZRnk3x6LzsOJlLUaFyIChuynt8/kM/33xcR+GAII9zt0Jelc/TLv3IwTVV3ZOG6yfZ1XjLw4bnXwsW/espiP+O1LUnC+ymOjRw6ncgHJjLcyw1HcWSo4ZjOC0d2s/dcdrNjOtWOw5g+by5TRhnSpaU0WxzneWA7e38urDe+Felcp4i8jBLQY76MNbyoLaMgJ6duo/ocUQ6/d/TltwtH49//GNn5yq1HS98g/GuS+To6F7cXxhPgfJzjTd8Xx+SNW7iUBycMwUmfT0pMHKX1helOCpSEEeXMdFkVCVFSfsTRqsPDH2JByAg8HDV1Xt9bKcfZ9t1pcURng0pKwhjlL29KApJApwlYDCYwwI4b+37g0MWi+r5BtFE3ki+0LdrCi9BZ/hSd+oCf687WvTtXTWke2ZnCS5uZxpXUcuz+eRnzQqO5/GPGnWOvzfXLCtsfs/2pgjZT7RnBr55/AA/DcKwulyMf/IWotKbeh4Yjd/ud4VDpYCYNdcaGIlKOb+eHY9cwnFCs1CYxH5fQwZD2WfXHi3s6qanMu8b5gzvZ02hLmLeR7k7O9+5Yb5uLZrW08B3PsLOf8d6uPDRD5/P0+mXMTUrh++Qa9KWxfPrHWHE8sKlhdxUuwat4ar4N53ZtZte1QlQuo4lY/jirtR/y4aHMZkPmKttAImadY8+3b/P37GrsBo3EvcKgplYYtK/yhy1qBojzxH81KYWP3txLegvPmJWjPdXJR/hubwb5wm3f338Oyx9Zh2XZG2xNbjh73NqX+U+tY3LVaXZ+9QNXhcfX3juIic5OYhpCYZ0R2x6dzUKUAdpFoKamVjTyNlio27MdrSW+Qf5w9TvSC/NIylpI4GhnThzPb/Dkaxj84BoeHVvEwa/f5my+PaPnP8pCVzUZjdopCXMnKW2XVWXlx2rUAh6b48aFv3/MV9fLsHByZ4ifQ7OpMErCtAuuDCwJSALKCejLKS9X4ec7HJe4ePJqzL2qwj4onBDHRHbENO/bzL3Znc/1pYkkpOlZ4jeM/vtF36jvujYKs/3pnZS13WYKezPzR958+UdhH8zgf/1maps4LIYG4fH9X3ljcx5qzxmsfmo1y0ve4suzYsqfIptESVxq3KY9zhNzrIn//hO+vlGN65gFPProOjRlb/FDcmXjCLEpG6nNRNzHDxSvdtdlx3P4bA7Veh3l18/yc64t3j4t54qaICm+HEPDh5N3+B/sik8VnizxJZYSza7jGcIbOhbPlppYlHJu524uZJZSo62m6PpFknOVjr3qKbq4l+1Hz3MlPYeCghxST+/nVIYDw/wGNnTqKhyCZjHV+Tr7Nu/kTGo2BYW5pP90mO0nbtQbwu3V2UTy5aP2ELDAduBYHpzui7oglVTxUaD4Ekf/BY3UkJp4nRpdAclJeXiLoff+tz2bmmEET3AlK3onh5NEnuemEr3jGNeafVgrCNNUobbKqqLyo8Kmf39sakQZvZJJQUkRuTeTOXPkLBmNOikJo5iQDCgJSALtJaBN4+i24xT4LufFl3/PhnUrWBQ2gaH92vDfWHgQGjaK0tOHudibhrf1FZSU1KBy7I+joc/twjbKbH+qpM1sR77ocuM4HJ8rRjL1VGXGcPQnPf7BQTi1HMVqh8xWQdVinm/wYCrPRrH7fDr5BWK09th2jtxwZPwUf6yavNBpG6lV5Pf2jTZqTutE60WneGfBWQ3V4svPyqop+tbvNL2jsvfCq7+GIZG/4/XI5mH1Ffk41LnYm9yvTOdGtrF5NKbjuf1UZT+YKXPCmDDcA2c7K9TCe2ZpIyaJZ1g1DNcLz6mXJ+rc01xtYyVdu3VWppoM1QYB9YBw/vf/CRNPVahU4iMn8wLb/3GAtHYUA0vxNTzK+jp7Uw3ebT3ZScmUzAokoF800YV6VPZuuNlWiyGovMbipi/NFFNP9Axp0EtJmGZJaKOsKis/ekoSYrk0czkrfvMcwSnXSc+4TuKFS9wovp1wJWHagCpvSwKSQBcQEHUwKYoP/+M4nsL76TtkML5jFvLUA7M4ueljdiU33SVDhV1AOFP7JxMVfbNXL4LtujbKfH+qpM1sT0bp8/LIb7QZdOTnFqDyH4AYxKKoHX2GyTjVrri7QnZMlphE2HDpi8nMFCNUQwfQX8SV1aBDZ20kk3rcgw+VG5/6Ts5ZqRs5LSfus9f4LtH8Ej99bQ01HY1S5Uro4+uJsIxl+w97uZZfQa3ekUmr/jfTVXc+i+r+ayqOdup8D5aPHk2SriCOv286TpZWR3V5EUWl1e2cpC8+bgJH4WDlyMN/eJW6acfCkFWL1Z6BAU7ExBQ1pEeHTtc048XvVuVASZh6cW2WVYXlR194jm/+cgWvYX4MHTKUkSEPMzt8LFve/ZIzwmA2XErCNCRO/iMJSALdRaC2hMzkc3V/0QcOMWnNiyybPZ7jYhSvoaqC8JaFhI+mIu4Tzpe0ali6SzNlclU2ODpaYjCU6ha8d2EbZbY/baJhm22mslTUhxIOpaYzstTqlsOn7RHW+bD6ztpInVehT0no4twSWzqIOSRqi9Zi9aUZwrtkzZDhXii2eDuK0sqH4YN1JBzaw9lrYmi1uISSClv6GT5TGi8d2Tcz0YkVgEMdjfvpe1Tnjqb1XnqvtpT8rCyyssVUiXYbngKEZogwMu25efAT3nrrrYa/d/n+YhWDxdC7YThGX5ZDboU1Lq4ODR5ww5ogV1yblAElYZRgb1f5EZ1aRtJZon/cysb3f+CylT8BQyybR6MkjBLFZBhJQBLoPAHhTCkorAIbW6wbuxCx2HVUGKGuVzkqpm+Zd7N0Xo32SFA5jCTAR0XulSt1xnLXtVHm+9P26KkkrNrdi4GGncrrLksGerpAXg55zWZptW2TKIkDXT45eeDuNfCO3aJywsPDHq2I685CaUXSZKAmBNRWYnGDp5cXns62ojO2xNHdEy8xHO1i29qANEtOzLHLywePkYF42Fuh0WiwuF0pxZyZmMNXsAtdwYqZI/FyccbVy5fA0EgejxhBYxkyG4mCADV55BZZ4j18MHaG+C0c8Zv7IOObTQbRU3rpKKcKhjLv8UgmDBEu9H6uePlPJWLKoHp9elJnBcnqm0FUdGkZMwFBMziQUfY5JF66RrZh1XzdXyY/XbqKdoh4ZjAwa1OJi89nUEgYIwxzPcQWKkNmTce/qZ2nJIwJPRofKSo/KvoFzWVB6GiGDHTByckN34lBeKtzycq53XUpCaNEIRlGEpAEOkRAHDIx+4k1RM4Yx8ihXrgPHIR/yBIiJzqQn5x8x+BRuzE5PIia+MOcKzLl9bTB2VNMRRN9b+OfpxsO3eCZsXQQQ8cegxg+ZibLn1zEiPKz7I0WjhcDiC5roxT0px0C3/ZLqn4TmDcvUNguLniPX8jc0ZB05qcm0wPFu6ZskrZF33miy+LcmTRsJi5gwThvXJzd8Zv5EOFDSrkQl4z49JBXBwlovGata7YB+PQ1zzNdfK91aJN5fSHxe/bhu3Q2z76yGEu1luTGrZZ05MV+ycc1ETw482GemeeARbXwdN1KJSG6wOTod7vTpkvn0N9347RkJf/8stiztLKMrEsniUn1ZnJTYVWpRH2ykeJ5DzBnza9wsakVWy1d49z+xIbh3h7Uud2J7CsvqOnSMtZmsjX4GLybJT9zpcWmoJWpydxgMYGjHDh9uoQbP27ie6tlLPn1y1jWlJOTeJmEfDE3uFF2rYIwbSrS5IGy8lMrWjC3mQtY9WB/7K3qtwU79+1mDt9ZcYSSMEo0kmEkAUmgAwRE33b9agkzxkUwbk4/7K2hsjCTKyc2s+fQHQ+n9YhZTHe/IXbSuNZsS79WMWpGsHDDiOa3tRnse/tdDt6eRNjqpY7csGDQ7PX8epZhk/kcblz+kU8PneRq4yKormujMNufKtBfZU/wk3/gEbFo9PY1dMNrhIkf2owfeefdA43bz2lTYjhvO5t1v/HAtiqHywe+5Iezxc1tCVM2iaK4dORGb2aTpdhqaeEzvCgcFlX517nw/UaiEtt5CI+C5N9PQepmfNxPCZZplQQkAUlAEpAEupyAWJwy4+kXmHbrc97cdoWGDf26PBopsH6fz8estvLqpnOScx8tEN3g5O+jJKTakoAkIAlIApJABwmobB3F3tJ72XrmqjSIOshQvnb/EJDG5/2T1zKlkoAkIAlIAt1EQF92jdMHr3WTdClWEri3CMhh93srP2VqJAFJQBKQBCQBSUAS6NUEOrCkvVenRyonCUgCkoAkIAlIApKAJNCLCUjjsxdnjlRNEpAEJAFJQBKQBCSBe42AND7vtRyV6ZEEJAFJQBKQBCQBSaAXE5DGZy/OHKmaJCAJSAKSgCQgCUgC9xoBaXzeazkq0yMJSAKSgCQgCUgCkkAvJiCNz16cOVI1SUASkAQkAUlAEpAE7jUC0vi813JUpkcSkAQkAUlAEpAEJIFeTEAan704c6RqkoAkIAlIApKAJCAJ3GsEpPF5r+WoTI8kIAlIApKAJCAJSAK9mIA4XlOFy4z/xW8WDsbCoKi+nLjPX+f7JG0TtWUY03x6cQ73CtVk+TFdfrqKT6/IbKmEJHCPEuiqeqpETlchVBKXDCPb564qb8rl1B2vaWHbHxcHy4a3dFQW5VNSrW8mRYYxzUc58vszpCw/pstPV/G5P0uXTLUk0DMEuqqeKpHTVSlSEpcMI9vnripvSuXIs92VkpLhJAFJQBKQBCQBSUASkAQ6TUDO+ew0QilAEpAEJAFJQBKQBCQBSUApAWl8KiUlw0kCkoAkIAlIApKAJCAJdJqAND47jVAKkAQkAUlAEpAEJAFJQBJQSkAan0pJyXCSgCQgCUgCkoAkIAlIAp0mII3PTiOUAiQBSUASkAQkAUlAEpAElBKQxqdSUjKcJCAJSAKSgCQgCUgCkkCnCUjjs9MIpQBJQBKQBCQBSUASkAQkAaUEpPGplJQMJwlIApKAJCAJSAKSgCTQaQLS+Ow0QilAEpAEJAFJQBKQBCQBSUApgS4yPi3wX/6vvLouGHvDmUnykgQkAUlAEpAEJAFJQBKQBIwQ0Bi5Z/yWxXCW/suTuB34T/52qoTmJ78bf6X1XSs8gyNZPHsMPv0sqMhO5lTUdg4lF6NrHVjeuUcIqJwDeXBeCH4+g/B0saUq7jNe25KE9nb6NGNY9adVjGlVGvXUJHzL61/EU44t3hNnEzZ5FEMHOmOvqabwZiKn9+/hWEr7yo9Zfer0UmHnE8K8B0MZPcQVW30FBelxbP9yH8kVCku/SqnOXVMvlKWrRaHS+LDgV8/gd/493jtwC51CnVX2vsyInE/oKC/6WdVSciuZ03t2crideXGPFHGZDEnAOIGW9ct4qG66a8HQRb/lmRnONPcy1ZLw7f/lizMV6Bva3iBtAlv++wviSgxtW/17T42I5/23DuGy8t9YNc5KtIjGLh2Z+9/hnf3ZDFv2EutDHFuF06bu4L/+eoJCiwBW/PEJJtoISXo9Om0lxVmpXDi+l/1ns6g2iDerz49k6CzwMxnXKQb9QonOmdLuMJalPXSvVXffffGqsB21mLXL/MmI+op3LlfiMe1hHln9GNXvfsyxHGl+dh/7uytZZWmDRekNzh28THZ4JKNaqqNNZvd7b3OoaetmG8DitTOpuJhEna2ndmLYaA8qk46z42A2hTX2DJu+kIi1T2L5wXvsz2g0ZVtKb/XbrD7iDQvPWaxdPxvLnw6w/fNrFNba0H+gHZWtpJm4oVKic9fVCyXpaq6tCsex4Uy2S2Dryaz6hliJzqp+BK94gnkuCWz7/FuSSyzxnBjJ8jWrqHnvI45ly7psolTIR/cNASP1q0fTriPj6Ge8E69BM2weTy/oT+zmf3CmQEdlQVUTB5IevaUfoZPdiT/Y0A406qklZc/7vH1EXWdUqn0jeHqhG/Fff0NsvqFhFg6CkpxGI06XH8e3X0WT3eT7XF9VRJ1NW3fpyDq+ic2n8sDKCa+xD7Do0fXYVb7BlgRhDNeFMaVPgxiDpDbjap/OdyTK//UkAQ0qKzwmzGNB2FiGutpCeTbJp/eKDj6RItGHqBwms+6l5fjfNlOXvcLrywwq1pK05XU+iy27U4hVwiCYvYYHpvnjZlnKjdPb+WZ3AsWGEiWeBYaOw/5aFNtOXKFI3MvevRvf0b9k6uRBRO++cccT1pMEZFzdTkCXfYbdO0U0andmTzMSnb6SgswMChofqXCZvgjvqkts/qm0vnzpsji26dNmL6dnWTP0D8sJGOnKwYxsxV+xZvXBhoCwWQy4uoM3vztTX35FzGnXjehu6pYSnbuwXphPVwtlLbwIneVP0akP+LmsoXdQoLPeZjijh1mSumM3cdfr86fw4C5OBm4gZJI3J6LSFOeFKXzymSTQewgYppa9zBqnKP68MY666qJ2I+zZFwi+8hFv7ElvXeaN1S/hVWy3nA5D0FNdnE1msXAoOhsMO3tKsjPJaOXo0ZGWkIJz8FSGHdtGSk3TCPXCUL1FZkPjrOlXIdJZQ0mOkJPV9CPTov6l2hJyRVueYeL7s7Y8n5wcg8GaQ9YtPT7jn2JMwCDUCckNNoApfZroZiIurSKdOwxWvtgFBDQuwat4ar4N53ZtZte1QlQuo4lY/jirtR/y4aFMtKWxfPrHWOEKMj/sbjFkGiG3drLlo71o/CJYsWgZc5NS+D5ZlGa1J4O9Lcg/df3OV1BtOtfSdUwZNAgH1Y06g1RekgCi0Q6eMpjic3tJqTLBw9IaK5WW4uImH0Amgit+JOIf7mtFWkwNU1Y/T/DQ/qjLs0g+tZfdJ67XdzyKhbUI2FLnu1YvVNgHhRPimMiOGFHPTaWnlc5q1MINUqtt+lat+K2iv7eXmPed1sTTYUqwfCYJ3KsE2lG/7joCPVVJMcS5riQ06ABXzlb0jEZqWwYEjMPPAWqq6gbdG667pE/PpFrG0kBAExo+nLzDb7ArPq/ew5Qfza7jQbwYMhbPI5kI21DxpS85z769F0kz9El5Rzg/7Z8Y4SPmmyQLr5TGHnsbKCstx3H84zy72IW4z/7KtTIxkDnAQRifSONTMel7O6DV8KkEu94iJjZN+NfbuFQOjIqYyeC8k3x6sauNT0ec7NUMnjmX2iO72LSvBNths1ga+SQrqt5mY2xBkyGrNvQzdtuYznerXlh4EBo2itLTH3Gx1MRXnzGdK65zNVPPnCkzGJp4kNQyDQPE8P2kgWKAI9seO1GX7wyzGQMh70kC9zgBpfWrt2DQZRB7MpPnp03C7fzxDmuldp/Nc6/NbvK+jryjH/KXxpFNNV4Rv+b/zBVBVKr6j9j8S2LaT1rzD2AF+piPq8PJkC/2AAGNV38NQyJ/x+uRzWPTV+TjYJil3B7jMz+H/MbwlVRU6rGysmom2NDNaatKKCq0oKzGRKfXA4mXUfRCAsLYCZoahE3qHuJbDQ816CsWxQyZs5pHRmSy/ZO9pDb9aO6KJKkM85uEd+/6Yb4/lljv6czexgG/l1g+IQCnuOj2fyiZ0bln64VYTBUQztT+yURF32zb69mWzrocTnz7A24rF/LUK+HodToqrscQc6GQOR5ivlZX5IGUIQn0WQIK61evSp+ewnPRXJ4TydShJ7nUQd1az8PUU1ua26SNEYPtMV/x9alCLN1GEj57KKlbv+VMXktDw7w+5uPqYCLkaz1CQIO+XHggX+O7xDZ9TIoV0YsVbG12PLVlGJycrg52lMfs4IMEg1hrxtW7QzHlfFGsgAzY5wmoXScy1V/P5b9fbJxr2SxRKjt8565ldXAZ+z4Vk95zTA4Yd4yHoaxW6SjNzUV8P9Vf+moKCspQDXBsv5felM53o16Iubch4aOpiPuE8225KE3pLIjUinm8W945y3Z7R+HprKSkTM241VPRFxfLutyxUiff6vUEWvZuhiU4TVdJNiTAbP1SKKeneVQmEnN2PmtDA7kq5ol26DIxD/O2vBphjGZlidHQrEy+U63k148tIPOd7WKKVQsu5vRREFeH0iBf6hEC6sxia4YM98L8snexNYJe+IMsOrg1qC6TtJtaXIf41HXedZfGmyHeagrT02WH1SPZ3dsj0eATMgXv0gucvlze+kNGLM7xW/BL1kwsJuqTzZzKajYzvlniLGydcHbuj71lB9Ksu8XNTB0Ori5YN/YtVvTrb4++tKTVnE+TcZnTuZ31wmRcipJqWF0fRqjrVY6euGF8WoM5nRvjEUsPyoooKhUrZ/uNYcJwNRlXr9XvTqBIFxlIEug7BGqqRXtjaXWnr1Q50s+xpfFpvn4pk3M3uGhJP3WSbL9QJrp2sJ9vl9p6yn8+wumaSSyY4SGWYrW8elqflvHL391JQB1z+Ap2oStYMXMkXi7OuHr5ilXpkTweMaJ5YdAVkJcPHiMD8bAXFVCjwaJlvTOlqb6MSzEXKPOdw5Jpw3B382bMgoVMskvjZGx620N/pmTKZ32DgNoOF08vvDwH4CiMQbWdK55eXngKL2Iz29DGn5AJzuTGx3K1pV0pDKIRketZM1lH7K6jZFi64yVkeHl5MrBfyz3o1LhPX8fvfv8bFjdu09AElTl99CVcOp1AzcgIlkwVZdXFjcGTFjJnpI6r5xJaDLmbiEuJzu2qFybiMiTPXLrqwrgxOTyImvjDnDO2wk+JzkKMxaDJzJ0ayPDBPvgGzuDRtZEME4sTD8Tlt/5o6BulVGopCZggoCM7PQOtVyBjBohWS+wS4z55OkEtjU9ZCk2HAAAgAElEQVRz9UvMY1Mkx4Qmyh+pxG5G7vVtrbOt8NFa4ujuWddmutgaNy71BWeJTnJhlL9ji71BFcaqccTN0NbXtc31f57uTmJhaBvviw/909GpuE6fy7iWLMUrJvVpb1xtqCBv3x0CmrzYL/m4JoIHZz7MM/McsKguJf9WKgnRLRZV6AuJ37MP36WzefaVxViqtSS33GrJZBr0VCRu5/MfFvGQ2I7pVwsNm8wncfTL7Zxoa26fSXnyYV8hoLILZOmGJtt1uS/huUAxnTjrAO++Zdg02JASFU5jpxJknca+MxmtpxqrBxIQ5IG1aDTDVm8grDHxekpO/Y0/b01R/AFjXh89pRe3stFuIZEzV/P8Iiu0xZlc/nETO9uz2EiRzl1XL8ynS0x0GTGL6e43OPj1NbFhipFLkc6GPaKt8Q6Zy3Q3BzQ1RWQmH2FT1BGSlG7AbyRqeUsS6L0E9JRd2MP24StZsOFlZpXkkXYhnguZIxnZRGmz9Ut8mimR0zUcxOKeWeuabTI/fc3zTBfjHY2bzLeMSBymcTk6noIxM3Fp+UzBb7VLML94PrhZSF3+cT76n51cN/q+nuLzJ7ggplLNCRvKxT0tApnQx2Rc3TAby6j68maHCRi+R1pOQOmwMPmiJCAJ9GICaldmPP0C0259zpvbrtSfKNKL1ZWqSQJ9ioCsX30qu6Syd5eA+amed1c/GbskIAl0EQGVrSPVyXvZeuaqNDy7iKkUIwncJiDrlywLkoByAtLzqZyVDCkJSAKSgCQgCUgCkoAk0EkCxmcdd1KofF0SkAQkAUlAEpAEJAFJQBIwRkAan8aoyHuSgCQgCUgCkoAkIAlIAt1CQBqf3YJVCpUEJAFJQBKQBCQBSUASMEZAGp/GqMh7koAkIAlIApKAJCAJSALdQqCLjE8L/Jf/K6+uC8a+rc1ku0V9KVQSkAQkAUlAEpAEJAFJoC8RUL7VksVwlv7Lk7gd+E/+dqqkQ5uDqpwDeXBeCH4+g/B0saUq7jNe25KkeHPwvgRW6nqHgNl814xh1Z9WMaZVadRTk/Atr38RTzm2eE+cTdjkUQwd6Iy9pprCm4mc3r+HYynFrTelN5EBZvWpe1eFnU8I8x4MZfQQV2zFZscF6XFs/3IfyUo3Ulcp1dkKz+BIFs8eg08/w+ELyZyK2s6h5O5IVwfi0viw4FfP4Hf+Pd47cAudwnSp7H2ZETmf0FFe9LOqpeRWMqf37ORwO/PLRFbKR5JA7ybQsu70pLbijPnZG15gnrfh4Eo9ep2WyuIsUs8fIWr/BXLqTplQ4TrzWV6cV8Q3f/qKi7VGFLQYySOvPIF39Lu8sz+zoa21ZOyqf2elQxT/9dcTFOot8Fv2EutDHFuddq9N3VEfxqK+nQ/SJrDlv78grsSwxbgFQxf9lqdGxPN+3YEj5uScYtAv/o1V41qeandbbx2Z+99poqeR9MhbvYJAq+6+O7VSWdpgUXqDcwcvkx0eyajujEzK7jUEzOa7Npnd773NoaZec9sAFq+dScXFpPqzwtVODBvtQWXScXYczKawxp5h0xcSsfZJLD94j/0Zyo+0MKuPIGfhOYu162dj+dMBtn9+jcJaG/oPtKOyPVRVSnQ2nAW9mLXL/MmI+op3LlfiMe1hHln9GNXvfsyxdpz+ZT5dHYlLhePYcCbbJbD1ZFZ9x6MkXap+BK94gnkuCWz7/FuSSyzxnBjJ8jWrqHnvI45l1x1rJS9J4B4mYKTu3IXUVids44PdKdSqLXHwGM+8pSt5ggLejErrcsePLj+Ob7+KJrvJ0TX6qiLq7My6SxjBln6ETnYn/mBDe2KESdtytKTseZ+3j6jrjFy1bwRPL3Qj/utviM03RCIcFiU57XJGGIle3uoBAhrDGbUeE+axIGwsQ11toTyb5NN7RQefSJHoH1QOk1n3UpOjEZe9wuvLDJrVktTyeE1xLvQwcXTmA9P8cbMs5cbp7XyzO4HihoKnyz7D7p2GEiO+yKb1QOpkFL2CgNl811dSkJkhmsPblwqX6YvwrrrE5p9K673suiyObfq0WXrSs6wZ+oflBIx05WBGtuIGx6w+2BAQNosBV3fw5ndnGstvmvHz4dpmrERnUWcCQ8dhfy2KbSeu1J0bn717N76jf8nUyYOI3n1DcQdhNl0dicvCi9BZ/hSd+oCfy25XZPN5obcZzuhhlqTu2E3c9fo8LDy4i5OBGwiZ5M0J0fFJ87PtoiOf9DYChqllL7PGKYo/b4yjriqIc9zDnn2B4Csf8cae9Nbl2VjdEZ6+dsvpJAp9ZRE5OTmix4ac7EJiJ0xjmbcXdqq0JkZhJyO5/XptCbmiLa8/MtmYTB1pCSk4B09l2LFtpBg941e8Z0KOtuAWmQ2dhaZfheBeQ0lOJhlZskUxRry33tO4BK/iqfk2nNu1mV3XClG5jCZi+eOs1n7Ih4cy0ZbG8ukfY4UryPywu8WQaYTc2smWj/ai8YtgxaJlzE1K4fvktkpYb8Ui9bqrBESjHTxlMMXn9pJSZUITS2usVFqKi8s6NA2kTcki/uG+VqTF1DBl9fMED+2PujyL5FN72X3ien3H0+bLZh601FntyWAxLJZ/6vqdjqA2nWvpOqYMGoSD6kadQdolV7vjUmEfFE6IYyI7YkRbYEqJVulSoxauiVpt07dqxW8V/UXHZ98dHZ8p/eQzSaBHCbSj7vSYXmpsPccR6A35cRmUd1W70i799VQlxRDnupLQoANcOVvRrrdl4HuHgCY0fDh5h99gV3xefQeeH82u40G8GDIWzyOZiD5Q8aUvOc++vRdJM/Q3eUc4P+2fGOHjjDpZuVdKcWQy4D1LwGr4VIJdbxETm1b3tW70UjkwKmImg/NO8unFrjY+HXGyVzN45lxqj+xi074SbIfNYmnkk6yoepuNsQUdM3aN6ayxx94GykrLcRz/OM8udiHus79yrUwM8A9wEMYnXWd8tjcuCw9Cw0ZRevojLpaa6KmMpaviOlcz9cyZMoOhiQdJLdMwQAzfTxooRlOy7YXXha73uhgtKPKmJHAXCCitOz2gmtW4VfxpjKi/KjUW6hpyz/3AFwe6fsjdkBS1+2yee212k1TpyDv6IX9pOoKjyyD2ZCbPT5uE2/njRgkokmP0TXmzrxDQePXXMCTyd7we2VxlfUU+Doa18O0xPvNzyG8MX0lFpR4rK6u+wkLq2RsICEMmaGoQNql7iG9rvqNY8DJkzmoeGZHJ9k/2klrdxYqLRlqF8NxdP8z3xxLrPZ3Z2zjg9xLLJwTgFBfdfoPQjM4G005bVUJRoQVlNSYMvS5IqrK4xIKrgHCm9k8mKvpm217PttKly+HEtz/gtnIhT70SLhY76Ki4HkPMhULmeIh5X12QDilCEuidBBTWnR5SviZx5505n+6jmLVwMavnF/LhrpT6+fRdqEfruZp6aktzW7QfegrPRXN5TiRTh57kkpH4lckx8qK81WcIaNCXC0/La3yX2KaPSXFi9HrZqSiGJQMaJaB2nchUfz2X/36xca5ls4AqO3znrmV1cBn7PhWTzHNMDgYbjcPszdoyyqp0lObmIr6f6i99NQUFZagGOLbfG2lKZ0Ncwsnp6mBHecwOPkgwRGfNuHp3KKYcjmbT0TJAe+IS87JDwkdTEfcJ5++sFmgu0VS6RMhaMcd7yztn2W7vKDydlZSUqRm3eir64uKuTVfLdMrfkkC3EGj5yWRY8tJ0lWRDpGbrjkI5XZSGZnM+szLJsfXlpcUzGH3oCmfKlESiQyyUN3rpxbSaZv4pE3M1mwmoTCTm7HzWhgZytdiIaKVyjLwqb/UNAurMYmuGDPfC/LJ3PTq98AdZdNHWoH2Dj9SyRwlo8AmZgnfpBU5fLm/tHRMLZvwW/JI1E4uJ+mQzp7LanktsYeuEs3N/7C07kADdLW5m6nBwdcG6sW+xol9/e/SlJa3mfJqMy5zOukzSbmpxHeJTZ9TWXRpvhnirKUxPb2WkmYzLXFIVx2VYFR9GqOtVjp64YXzqg7l0NeoilgOUFVFUWoW+3xgmDFeTcfVal3tczCVdPpcEOkugplq0N5ZWd/pKlSP9HFsan+brjjI5ndW27fe1tcLRpLbBVumgpNhmzvCBbG3TZHsjlTXW1mJgtLKcqpa2dNtRN3miJf3USbL9QpnoKm0KRcjusUDqmMNXsAtdwYqZI/FyccbVy1esvo3k8YgRYl1ek0tXQF4+eIwMxMNeVECNBouW9c4cHLUdLp5eeHkOwFEYBWo7Vzy9vPAU3qSO2AjmopPPewkBpflu40/IBGdy42O52tKuFMbOiMj1rJmsI3bXUTIs3fESZcfLy5OB/Vru+abGffo6fvf737DY38hnlTl99CVcOp1AzcgIlkwdhruLG4MnLWTOSB1XzyW0GHI3EZcSnfVlXIq5QJnvHJZME3G5eTNmwUIm2aVxMja9xXCVibgMWW02XQrjEqt4J4cHURN/mHPGVjspSZdQx2LQZOZODWT4YB98A2fw6NpIhokFjAfi8lt/WPSSoirVkASME9CRnZ6B1iuQMQNEbyV2iXGfPJ2glsanuboj/ISK5BhXokN3VTb9GDBgAAPcxeLGgFAeCveDrGSuNKvbNjgb+ua6NrXhz9MNB0PzKXbtSEkuot/4COYE+TDQ3Qu/KQuY6VvLtaQbNJv1pHHErYUcT3cnsTC0ter6grNEJ7kwyt9RTHJqcbVDTstX5e++QUCTF/slH9dE8ODMh3lmngMW1aXk30olIbrFogp9IfF79uG7dDbPvrIYS7WW5JZbLZlJs8oukKUbmmzb5L6E5wINZfsA79ZtMGtGgHzcJwkoy3cVTmOnEmSdxr4zGa2nGqsHEhDkgbWtmrDVGwhrJKGn5NTf+PPWlLbnJbagZl4fPaUXt7LRbiGRM1fz/CIrtMWZXP5xEzvbs9hIkc56KhK38/kPi3hIbFP2q4WGTeaTOPrldk60Nee1jVKgJF1K4rIeMYvp7jc4+PU1sYmJkUtRusSOe3prvEPmMt3NAU1NEZnJR9gUdYQkpZv0G4la3pIE7g4BPWUX9rB9+EoWbHiZWSV5pF2I50LmSEY2Uchs3RGfXUrkdGUarQKW8EKAYZN5HdVl+WSkHOSLvUcRgzt3Ls0IFm4Y0TxabQb73n6Xg2KE6UrURv6hXcjsJU8TLhZjVhXe5PK+z9kdW9jsQ1LtEswvng9uJkeXf5yP/mcn11smSnhUL0fHUzBmJi4tnpmU08YUgJbi5e/eTcDwPdIhp3nvTpbUThKQBDpEQO3KjKdfYNqtz3lz25XmXo0OCZQvSQL3CQFZd+6TjJbJ7AoCRsYku0KslCEJSAJ9kYDK1pHq5L1sPXNVGp59MQOlzneNgKw7dw29jLgPEpCezz6YaVJlSUASkAQkAUlAEpAE+iqBVvN8+2pCpN6SgCQgCUgCkoAkIAlIAr2fgDQ+e38eSQ0lAUlAEpAEJAFJQBK4ZwhI4/OeyUqZEElAEpAEJAFJQBKQBHo/AWl89v48khpKApKAJCAJSAKSgCRwzxDoIuPTAv/l/8qr64KxN7KZ7D1DSyZEEpAEJAFJQBKQBCQBSaBTBJRvtWQxnKX/8iRuB/6Tv50qaf/moCpbvCfOJmzyKIYOdMZeU03hzURO79/DsZTi1puKdypZ8uXeREDlHMiD80Lw8xmEp4stVXGf8dqWpDubwmvGsOpPqxjTqjTqqUn4lte/iKecris/ZvWpg6fCzieEeQ+GMnqIK7ZiQ+SC9Di2f7mP5HZskq4sLnO5ZcngGY8yf5IPHm5O4uT3KooyU4g/FMWhhIImm+tb4RkcyeLZY/DpZ9isPplTUds5lGyifml8WPCrZ/A7/x7vHbiFTkk9VZJfcvdgc5kqn98PBFrWr55MszhjfvaGF5jnbTir0LDJvJbK4ixSzx8hav8FcupOkFDhOvNZXpxXxDd/+oqL4uTNVpfFSB555Qm8o9/lnf2ZDX21JWNX/TsrHaL4r7+eoFBvgd+yl1gf4tjqtHtt6o6GMK0kt75hNY7V//YYQRbiOG9tDRXF2dxIjOfowZOklhh2xVdhP3kdf1g+Al3S9/z3Z7EUG9oazXCW/HY9oU75HPngL0Sl2xL85B94ZGSrTkWcapPHsY/+wq7rcrf61hnQc3eM5Ew3Ra5yYthoDyqTjrPjYDaFNfYMm76QiLVPYvnBe+zPkAWhm8jfdbEqSxssSm9w7uBlssMjGdVSI20yu997m0NNvea2ASxeO5OKi0n154Cru678mNVH6GfhOYu162dj+dMBtn9+jcJaG/oPtEMccdyuS0lcSgSqanK5fPw8h/KLqdDZM2hSBAtWrUPz0VvsSTPUHcOZ0otZu8yfjKiveOdyJR7THuaR1Y9R/e7HHDN6WpIKx7HhTLZLYOvJrPpORUk9VZJfShIlw0gC9zQBI/XrLqS3OmEbH+xOoVZtiYPHeOYtXckTFPBmVJriU+GUqq3Lj+Pbr6LJbvLxqa8qoqRdH6Pi3PfDn/HthSocB/gyITyC9c96sfn9Lfxc2qBJdRFlA8cT1D+O6AI9VsPHM0pfVG+IGoIIZ8HP297jbZumnYoDgQ+tEic0JZKYLY9TVJqn3RVOYzij1mPCPBaEjWWoqy2UZ5N8eq8wEBMpEvmjcpjMupeaHIm57BVeX2ZQp5aklsdrijOfh4kjAh+Y5o+bZSk3Tm/nm90J9QVCnA97bNOnzdKRnmXN0D8sJ2CkKwczsqX3s7ty+S7L1WWfYfdOoYThS3yaEWX0lRRkZojm8PalwmX6IryrLrH5p9J6L3sXlh+z+mBDQNgsBlzdwZvfnWls0NJanQ9nJC0tbpmPy7wMxCGX10/ta3Y8XXqGhmHjH2OYb3/UaXnCY2lPYOg47K9Fse3Elbrz57N378Z39C+ZOnkQ0btvtO5oLLwIneVP0akP+LmsoXdQwllJfilJlgwjCfQZAoapZS+zximKP2+Mo666iHPcw559geArH/HGnvTW/Zex+kUH5HSSkb6yiJycHNFjQ052IbETprHM2ws7VVo7jUIFitSWkCva8s4elV1Tmkd2ZgFZmWlcSS3H7p+XMS80WhxxnFmvRO01zl/2ZtwYV04eLWXEeD+yL/yMw/Tbh53qKM/PFCNmty8V/SauZop3Hkc/3kNKO0avFKRaBukAAY1L8Cqemm/DuV2b2XWtEJXLaCKWP85q7Yd8eCgTbWksn/4xVriCzA+7WwyZRsitnWz5aC8avwhWLFrG3KQUvk82ekI0WFpjpdJSXFzW/mH8DiRWvtJHCIhGO3jKYIrP7SWlyoTO3VV+RPzDfa1Ii6lhyurnCR4qDLzyLJJP7WX3iev1HY8Jtbr7kcrSicFTJjJUXcjF9IYhdbUng8XwWv6p63c6lNp0rqXrmDJoEA6qG3UG6Z1LDF8FhRPimMiOGFHPTSltjrPS/DIVh3wmCdxTBNpRv3os3WpsPccR6A35cRmUt8sb2WNKtopIX5pIQpqeJX7D6C+G/eu7hFpunPuZgMhxuMfnMn7oTc5/U8q06a1er7uhdpnMw5F+5B/4kAM3qo0Hknd7lIAmNHw4eYffYFd8Xr0BmB/NruNBvBgyFs8jmYi+S/GlLznPvr0XqRsFzDvC+Wn/xAgfZ9TJRryaKgdGRcxkcN5JPr0ojU/FkO+DgFbDpxLseouY2LS6r3WjV3eWHwtHnOzVDJ45l9oju9i0rwTbYbNYGvkkK6reZmNswV35WFJ7zuW5DXPwtBBDSZUZxHzzCbuvNnzYaeyxt4Gy0nIcxz/Os4tdiPvsr1wrExMFBjgI45PmxqeFB6Fhoyg9/REXS030Qgo4K8ovo5kob0oC9ygBpfWrB5JvNW4Vfxoj6rhKjYW6htxzP/DFga4fcjckRe0+m+dem90kVTryjn7IX4yNvChNuxhCLympQSWcAI5iifRtf4T25nkuqVcy/YEiBl0/zdYKN4wNrGExgNDlC/DJ2MP7RzPb7lOU6iPDdQkBjVd/DUMif8frkc3l6SvycTCshW+P8ZmfQ35j+EoqKsVcDCur1oqKRQ1D5qzmkRGZbP9kL6nyQ6Q1o/v1jjB2gqYGYZO6h3ij8xQFmO4uP6KRVqFGff0w3x9LrPd0Zm/jgN9LLJ8QgFNcdAsvYs9kli7nJF+9cwlrG2eGTJzD3IeWiuG0TcRk3THRDWaktqqEokILymraMirFYqqAcKb2TyYq+mbbXk8lnJXkV8/gkbFIAr2EgML61UPa1iTuvDPn030UsxYuZvX8Qj7clVI/n74L9Wg951NPbWlu221MZ+LW3uK8WCH1QoQnZ79IolLvZkSaBs+Zj/Cg+xV+ePckue2wZ4wIk7e6kIAGfbnwkLzGd4lt+pgUR6fXixV15kKr7PCdu5bVwWXs+/QbYnNMDviZkyaf32ME1K4Tmeqv5/LfL96ZPN40jT1RfmrLKKvSUZqbKxq0hsj11RQUlKEa4Njai9hTeVBbSl6WYcb9LTLScrDy+g0RYSOI+0cCNQadhZPT1cGO8pgdfJBgUMqacfXuUJo5N8Xc25Dw0VTEfcL5tlYCKORsNr96io2MRxLodgItezfDYhYjewuarV8K5XRReprN+czKJMfWl5cWz2D0oSucKVMSiU6sPDceTq/VNvdPddGcz2axqWxwdLREXyIWLjUzHnXkxO3k+0obbqQID5Zzax0tB4WzfLYTl/6+iXPN5x21Dizv9CgBdWaxNUOGe2F+2bvY+kAv/EEWndgaVCyK8FvwS9ZMLCbqk82cympjLmiPIpCR9R4CGnxCpuBdeoHTl8tbf8i0o/xY2Drh7Nwfe8sOpE53i5uZOhxcXbBu7Fus6NffHn1pSas5n52Kq4l67ZOjQiV0s7QWOwkYZOgySbupxXWIT51xXHdpvBniraYwPb2J8WlYFR9GqOtVjp64YXwISjFnM/nVJG3yv5JAXydQUy36K0urO32lypF+ji2NT/P1S5mc7qOlrRWOJrUNtkYGJY3GKoa9DR+21jZWd0xtlTXW1qLZqSynqqUtbVRIx2+qHEYS4KMi98oVsaVTczn6klTOxCSQY8x3ZjWEuY/MxPrMFnYmNCxc7bga8s0uJqCJOXyFCYtXsKJkB4d/yqbKpj8eQ0YzziGJv/+YfMddrisgLx/GjwzE43wcOcIzpNfWolVa8ESHNiJyPasn1XJyy1EyLN3x8jKkRo+2TKxsK6pubWx0cWKluLtEQG2Hy8D+2KidER+wqO1c8RSZr60RKyNzSsRa7obLxp+QCc7kno7l9lTGRo3bVX7UuE9fx/MPuHDhy1f55qcWLZM5ffQlXDqdwNwVESyZWsyBxGJsfMOYM1LH1R0JLYbcOxlXYwJNyLEcwdyH/cU2ZVfJzCuhWtMPn/Fiz1yvSpKir9TPgdKXcSnmAg+smcOSaTnsTaxiYOhCJtmlsT82/U49Fit0J4cHURP/mXFPQHs4m8qvu1TUZLSSQPcQ0JGdnoF2UiBjBsRyPEeF++TpBAnjs9maSHP1S/gJFcnpwkSobPoxYMAAalUabF19CQ33g6zDXKnzBN42nm1w9vTCq6mHU4z2FOfkUlqbRUpyEbPGRzDn2l4uZGtx9J3OTN9aru24QbNZcxpH3IQcXRO7QG8YsckpplqprSC0snRwxd3DHoe6rZbmMKL8LJujb+8xqgCO8JYOn/cI023Fgsrz5XVpu+MY1VNZkEV+hRyDV0Cy24Jo8mK/5OOaCB6c+TDPzHPAorqU/FupJES3WFShLyR+zz58l87m2VcWY6nWktxyqyVTaqoHEhDkgbWtmrDVGwhrDKun5NTf+PPWlO6ZF2JKJ/msRwio7AJZuqHJdl3uS3guUHw1Zx3g3bd+bNiWQ4XT2KkEWaex70xG66nGXVh+zOujp/TiVjbaLSRy5mqeX2SFtjhTbPOxiZ3tXGxkPi4FWaArpbh2AJMfGM8D/eyEN1Z0ClnXOLPle/afLW74aNNTkbidz39YxENiu7NfLTRsMp/E0S+3c6LJ3FnrEbOY7n6Dg19fu2P0N1VBMWcz+aUgWTKIJNB3COgpu7CH7cNXsmDDy8wqySPtQjwXMkdye3MfQ1rM1i9RW5XI6UouVgFLeCHAsMm8juqyfDJSDvLF3qOIwZ07l2YECzeMaB6tNoN9b7/LQTFCeSVqI//QLmT2kqfFPplqqgpvcnnf5+yOLWzmNFK7BPOL54ObydHlH+ej/9mJ8j3dLRg0ez2/nmXYZD6HG5d/5NNDJ7laN3eopae5DVJi6sNIsYWjpt8Alj07tkWgWhK+/b98caZCOrzawNcTtw052Y7vkZ5QScYhCUgC3UJA7cqMp19g2q3PeXPbleYei26JUAqVBO4jArJ+3UeZLZPaWQLmp3p2Ngb5viQgCfQKAipbR6qT97L1zFVpePaKHJFK3EsEZP26l3JTpqW7CUjPZ3cTlvIlAUlAEpAEJAFJQBKQBBoJSM+nLAySgCQgCUgCkoAk0H0ExAlsk+YH41W3NYfxS1d0maPHkrv+yE/j0cm7d5mA9Hze5QyQ0UsCkoAkIAlIApKAJHA/EejEpp33EyaZVklAEpAEJAFJQBKQBCSBriAgjc+uoChlSAKSgCQgCUgCkoAkIAkoItBFxqcF/sv/lVfXBWOvcBsuRdrJQJKAJCAJSAKSgCQgCUgC9xQB5QuOLIaz9F+exO3Af/K3UyUd2BzUksEzHmX+JB883JzEqdNVFGWmEH8oikMJBXKD+XuqWDVPjMo5kAfnheDnMwhPF1uq4j7jtS1Jd/JcM4ZVf1rFmFalUU9Nwre8/kU85djiPVGc6jN5FEMHOmOvqabwZiKn9+/hWEpx603pTfA0q0/duyrsfEKY92Aoo4e4YiuOmCtIj2P7l/tIrlC+Na6yuEwo2/jIjD6qDvLR+LDgV8/gd/493jtwC50SOUrySzkiJYmXYSSBvkmgZf3qyVSIjdZnb3iBed6GVTY3geMAACAASURBVD6GTea1VBZnkXr+CFH7L5BTd7ScCteZz/LivCK++dNXXDR2TKXFSB555Qm8o9/lnf23TxmyZOyqf2elQxT/9dcT4thLC/yWvcT6EMdW28BrU3c0hFGSePNyip2nsPa5Rdgd+4APD2U29CNqXKaKU+0WWHH4/U/Jm/MKq8Y1OQ60WdQ6Mve/0yQtZvSycmfc3PnMGufLQHsLsVF/AVnXf+Z41D5+KhANXUN7GKRNYMt/f0FciaHxs2Doot/y1Ih43r99kIpZOQGs+OMTTLQRHjy9OM5cWykOE0nlwvG94jCRrHtue7xW3b2ZbOjUY1VNLpePn+dQfjEVOnsGTYpgwap1aD56iz1pTc/16lQ08uVeRkBlKc4fL73BuYOXyQ6PZFRL/bTJ7H7vbQ419ZrbBrB47UwqLiZRZ+upnRg22kMcMXmcHQezKayxZ9j0hUSsfRLLD95jf4by8mNWH0PT4TmLtetnY/nTAbZ/fo3CWhv6D7RDHHHcrktJXEoEmtVH1RE+KhzHhjPZLoGtJ7PqDXglcpTkl5JEyTCSwD1NwEj9ugvprU7Yxge7U6hVW+LgMZ55S1fyBAW8GZXW5U4fXX4c334VTXaTj099VVG7V7CbkmN4tm1vEM8tXEzopU/EUac6VP0nsjjCh1v73+d4VjWWe97n7SPqOkNY7RvB0wvdiP/6G2LzDYoJp0ZJjjKHhcqO0Uuf4lHfmxzcuZFvhWwrcWrS4FH+OIuTnii43e8I497Sj9DJ7sQfbGhLm+a1Yjk6so5vYvOpPLBywmvsAyx6dD12lW+wJeHeOpFJg8oKjwnzWBA2lqGutlCeTfLpvaKDT6RIHL+lcpjMupeaHI247BVeX2agWktSy+M1xbnQw8TRfg9M88fNspQbp7fzze4EiusKYg3XT+3jepMMSc/QMGz8Ywzz7Y86LU9ZYWiaofL/fYKALvsMu3cKVQ1f4tOMqKyvpCAzQzSHty8VLtMX4V11ic0/ldZ72XVZHNv0abOX07OsGfqH5QSIY9QOZmQrLj9m9cGGgLBZDLi6gze/O9NQfiGtaeE1kgxjt8zHZeytlvcU6NMRPhZehM7yp+jUB/xc1tBbKJGjJL9aJkH+lgT6NAHD1LKXWeMUxZ83xlFXXcQ57mHPvkDwlY94Y0966/bHWP0SHrF2y+kkN31lETk5OaLHhpzsQmInTGOZtxd2qrR2G4VmVaktIVe05RmdPTbdpBwd+bE/sDfoOeYtCuanzy8zJHIeQ2/9yPvR2XUGtbbgFpkNHYqmX4XImxpKcjLJyGqnYhaDCQyw48a+Hzh0sai+L8rO5EbyhRYodKQlpOAcPJVhx7aRUudVbnIpliMsq/L8uvzSkUPWLT0+459iTMAg1AnJXf6xYDY/uzGAxiV4FU/Nt+Hcrs3sulaIymU0EcsfZ7X2w3qXdmksn/4xVriCzA+7WwyZRsitnWz5aC8avwhWLFrG3KQUvk9umRPCqLV0YvCUiQxVF3IxvX3Dpt3IQ4ruDQREox08ZTDF5/aSUmVCIUtrrFRaiovLOjANxIRcEf9wXyvSYmqYsvp5goeKj6PyLJJP7WX3iev1HY+J17v8UUf1MclHhX1QOCGOieyIuT101YbmJuWId5TmVxvi5W1J4N4j0I761WOJV2PrOY5Ab8iPy6C8iXeyx1Toqoh0+cT+sI+gDQ/y8KOBDByexb73Y8hRPgCmTBN9OeXlKvx8h+MSF09ea1OmQY6eqqQY4lxXEhp0gCtnK5rLVyynyWtqWwYEjMPPQbjuqqqV6duHQmlCw4eTd/gNdsXn1Xfg+dHsOh7EiyFj8TySSXo7PhT0JefZt/cidSPoeUc4P+2fGOHjjDr5jldK7TmX5zbMwdNCOMQrM4j55hN2X20zR/sQSqlqVxGwGj6VYNdbxMSm1X2tG71UDoyKmMngvJN8erGrjU9HnMSQyuCZc6k9sotN+0qwHTaLpZFPsqLqbTbGFnStsWs0gU1uWnRAH3N8LDwIDRtF6emPuFhqohcyJ0eoqSi/zKVRPpcE7iUCSutXD6TZatwq/jRG1HGVGgt1DbnnfuCLA10/5G5Iitp9Ns+9NrtJqnTkHf2Qv+y+0S6vnRI5urzT7Dg6iRfmDedm1Fucym2HsaKUuzaNo9uO4/Pocl58eS4ZN65x/Woyl85d5FpRi95Jl0HsyUyenzYJt/PHm8egWI4ar4hf83/mitdVKtTCTKrNvySmRXVPfinF0B3hNF79NcJl/Ttej2wuXl+Rj4NhLXw78lOfn0N+Y/hKKir1WFlZNROsyznJV+9cwtrGmSET5zD3oaXCxbyJmKw2zYzuSLeU2VsJCGMnaGoQNql7iBdzeYxeYlHMkDmreWREJts/2UtqV38UikZaVHvU1w/z/bHEek9n9jYO+L3E8gkBOMVFU2TCXjOqc2dutlcfs3zE4qWAcKb2TyYq+mbbnYJZOSJRSvKrM2mX70oCfY6AwvrVQ+mqSdx5Z86n+yhmibmSq+cX8uGulPr59F2oR+u5mnpqS3PbbmPaiFuRHI0HQYEDqamsZWDAKNxO5JDd1Z5P4WYoSYriw/84jqfwfvoOGYzvmIU89cAsTm76mF3J5U0cEXoKz0VzeU4kU4ee5FKztCmVIwbbY77i61OFWLqNJHz2UFK3fsuZvDb6wjb49YXbGoQ7OO6z1/gusfPGn16s0DLbJ9eWkpdVKtjcIiMtByuv3xARNoK4fySIWRnyut8JqF0nMtVfz+W/X2yca9mMiZi47Tt3LauDy9j3qZhA3uXjLCK22jLKqnSU5uYivp/qL301BQVlqAY44iC+RnvU+GyPPkr4iLm3IeGjqYj7hPN1KzONXErkiNfM5pcR0fKWJNA3CbSsK4blLIa/FpfZ+qVQTku5HfzdbM5nViY5tr68tHgGow9d4UyZEqE6sfLaeDi9VtvcP2VyrqZxGUbvmpWjwTv8YcKdfuLbD38mcP3DLJmawN9O5LbHX2Y0aqM3hT6Zyefq/qIPHGLSmhdZNns8x1OiKWz6QmUiMWfnszY0kKvFRiQpkFMjjPWsLDFaLPLqO9VKfv3YAjLf2S6moLUsN0bk96Fb6sxia4YM98L8snex9F8v/EEWXbQ1aB0klcGzjKW1WA3dh6BJVbuLgAafkCl4l17g9OWmX5QN8YkFbX4LfsmaicVEfbKZU1ltf65Y2Drh7Nwfe8sO6Kq7xc1MHQ6uLlg39i1W9Otvj760pNWcz07F1US9NuUo1UcRHxW2o8IIdb3K0RM3jE9rUCTHoLiZ/OoAevmKJNBbCdRUi/bG0upOX6lypJ9jS+PTfP1SJqf7KGhrhaNJbYNt80HJtiMU28yViW0+rG2abF2kssbaWgyMVpZzN2wiy0GzeXiWEwk7d3Mp6xJ79l3Hc+4SQly70j5pA4lw2BUUisUINrZN+ofbYbWknzpJtl8oE83pYlKOQZ6e8p+PcLpmEgtmeNxzNpI65vAV7EJXsGLmSLxcnHH18iUwNJLHI0Y0T6yugLx88BgZiIe9qIAaDYZpm4ovyxHMXRnJDDFsOXzwIHyGBTJNbPkQ5lVJ0k9XxK6f8rpnCajtcPH0wstzAI7CGFTbueLp5YWn8CI2sw1t/AmZ4ExufCytpgELg2hE5HrWTNYRu+soGZbueAkZXl6eDOzXcj83Ne7T1/G73/+Gxf5GPqvM6aMv4dJp4YkfGSG+pofh7uLG4EkLmTNSx9VzCS28np2MqzHTTchRoo9SPmKF7uTwIGriD3POmPtWqRyD3qby654tzDJh9ycBHdnpGWi9AhkzQLRaYpcY98nTCWppfJqrX8Ivp0hOF0JW2fRjwIABDHD3ZHBAKA+F+0FWMlea1X8bnA1tdF2b2vDn6YaDofkUO2CkJBfRb3wEc4J8GOjuhd+UBcz0reVa0o3m+09qHHFrIcfT3UksDG1ngkzJsfRhzsOzcLq8k52XDHuOi+Hu+F0cvDWYiIeCcW5vXKZUUw9i9hNriJwxjpFDvXAfOAj/kCVETnQgPzkZY6Ph+oKzRCe5MMrfUUzearg6IKfuTeF4OB2diuv0uYxrWdZM6d0HnmnyYr/k45oIHpz5MM/Mc8CiupT8W6kkRLdYVKEvJH7PPnyXzubZVxZjqdaS3HKrJVMJ1pVSXDuAyQ+M54F+duKLoVpsoHqNM1u+FxuoFpsfrjclWz7r1QRUdoEs3dBkuy73JTwXaGjTDvDu7Q14hRfcaexUgqzT2Hcmo/XQiXogAUEeWNuqCVu9gbDGFIu5NKf+xp+3piieV2ReHz2lF7ey0W4hkTNX8/wiK7TFmVz+cRM727nYyHxcSrJOgT4K+ViPmMV09xsc/Pqa8WkuCuUYRi1M5peSZMkwkkCfIaCn7MIetg9fyYINLzOrJI+0C/FcyBzJyCZpMFu/RE+nRE5XYrEKWMILAYZN5nVig/R8MlIO8sXeo4jBnTuXZgQLN4xoHq02g31vv8tBMcJ0JWoj/9AuZPaSpwkXizGrCm9yed/n7I4tbNZ3q12C+cXzwc3k6PKP89H/7OR6G0P3xtLatpx9MHc5M5wS+X7jxTtbRelyOLnjGBOencdDk5L4Iq65XsbiUHRP2D3Xr5YwY1wE4+b0w154eysLM7lyYjN7DrUxciQ8xZej4ykYMxOX25F0RE7du3qKz5/ggphqNidsKBd3phpvtxUlpncFMnwj3FsTCXoXX6mNJNB7CKhdmfH0C0y79Tlvbrtyz52Y0XtAS03uSwKyft2X2S4T3TECRsYkOyZIviUJSAK9m4DK1pHq5L1sPXNVGp69O6ukdn2QgKxffTDTpMp3jYD0fN419DJiSUASkAQkAUlAEpAE7j8C0vN5/+W5TLEkIAlIApKAJNBzBNSeTJofjJeJbW10RZc5eiy564/8NJbK3qaPMR3v8XvS83mPZ/D/a+9egKK60jyA/7ubpqWhkbe8UQOIgo8hIIJRHj7xFXfUTSVqTExNZmdNOZVYOzPZ2q1K7exmM1NbU5kdLZNZguM6Y5yZjQ9MwPgWHwiCCqiIjYjyBlFo3q9mbwMKNA19Uehpmn9XWSWXe79zzu/27f4499xz2DwKUIACFKAABShgTgImmBTLnJrLulCAAhSgAAUoQAEK/C0FmHz+LfVZNgUoQAEKUIACFJhgAlYrPvoUsW49i7jXXUnAr5MKRc+XOMGs2FwKUIACFKAABShAgZcU6BnzKbHD/O0/x5LqfUw+XxKUhw8WkDgGY/mKCPj7eMPDyQatmfvw6Tf3+v7IkdjAKzQW0eFBmDrFEbZWbagtzUfG6RO4WKDpmXDeajY2f7IZswc9IteF9ry/4j//9zqaRM9Yaw2PsNVYGzsbPpNlaK5SIz0lCefUvWUNbsIQW0YnjlEfQ6Vb+SB+5/vwz96DPWcqeoys3RG6YhWi50yFi1KC1rpyqDNP4bvzamj6TyhtKB63UYACoy9g6Dod/VIYkQLjTmDQV/m4awErbPYCEvkkyBoe4ebZu6iKWY0g/RpL7DF9ljta7l3C8bNVqG23xfSFq7Bs2zuQ792D02XC0hidaiTv+W+c6790ms1MrN22CM2599AsOvHUrb28Ftv+LhBlKX/C7+62wD3qh9i45U207f4fXKwWm6WNVhxhrSBjPvpewupCqjkxCFfm4cjVyt7VoOSYvvJtbJhbgzOHdiOroh0q/zhs2rAVbzR/joS0J1xNYpAjN1BgLAUMXadjWR5jU2D8CIgb8yn0jL4S/SZ2/PwT/Pt//Bv+5aPtWDvPbeC63OOnzaypiQW0VVlI/vY0Lt8owOM2A4ULawdfPJCIw2czkHuvCMUPbiP18BmoISypOcO5Z33crhY8LS9DWdmzf+VocX8FXq23kHG7QXxiJaxdHhw5F7ZF53Hs8n1UPS5FTnIyspp9sSDcG8PMBDKw4qMVR4hq1EefTOaJyMWBqEs/jzuNvVm3kMB7e09GR8FVpKqrUFf/FCXZl5BTJYO7p0vfGsP6sfgzBSggQkCGwA3/il++GwbbZ38AC+u4R+/4JXat9DZ8fRm6ToVPmBHHEVE77kKB8SYgIvmUwiXqLbwd54KSEwn4zX/txp8zOzF707tYEzBJ6IPhiwJjICBXwFrSCY2m0XBiKXywh833hebmNRS0jqB8YX43Xy8ZnhQ97JtPrqMERSVaOHh7w07sG3q04oyg6j27SmAbEoMIVT4upJX3DV3oqsODwseQ+oQgxNlauC5lsPWdg0CnetzNK+3tHR1xYTyAAhR4IYEhrtMXisWDKGB5AsZvu0vdMDfMFy03/oDk7JLuRe2fXEzChZm7sHx+IJLVORjJd7/lEbJFoy4g9LQHLVsE35qrSMw1nHxav7IAYc4VSLtWjI6RVMDKFraTgMaGJqjmvYWfrHVC5r7fo6ixBXC1604+68Tcwh+tOCOpu25fmTsio4PQkPElchv6V7QDxacScVC2GZt2fYKN2i5IhYT09vFEHLlj2HCkRXN/ClBApMCQ16nI47kbBSxcQETy6Qw3Z6AqrbLvS75Lg/LyRsimusJB6DutFDtMzsIx2bxREBAePvKL24KNAeVISvgeDwzdpheS05AFIZj04ASuix6jObBuurSts7UedbUyNLaLyTYNt2204hiOrr9VAuXMGCxwUCPlSqnerBQyuL66DutCWnDl4BfIreqAamoU1sS/gx82f4G/5moM9yDrF8GfKUCBlxQY7jp9ydA8nAIWImA8+bSQhrIZ40BAosS0pduwJawRJxMP4Vq18KCRgZfUORQLArtw98+50Iw0b+xohK6T09lOiaa049ibpytAgbk93aEY0JlooOznm0YrznBl6P9OuAsRETMLzZkJyK7Xa7jcH9ErZqAh9XOcvfW4+zZ7ZVUSTk77BTYv/gHO3b6AF8zT9WvBnykwQQX0P2x0Y3QMjNMZ7jrtlhMZZ4Iqs9kTQ6B3zGcnOoV7l1bW8sGt1j5BdQ3g5jkFzzNV4eEGd3dbdNZUo469noPNuGXkAsIDPP7x27E1VIOUhINIr9QN8DD0soJPxHx4NeQg427ToI/xZ0fIbOzh6OgAW/23tLYcxaWdcPbz6RvfaeUFPy8paktKBiWfYx7HUBMNbtM9XR+NSOdCpF5+NHiogUwJpUL4IhzwvdaFLt3PCmH8rMGY3EgBCogVaG8TPpPk1v2+B1WYrNJPPo1cp0Jh4uKIrRX3o8D4FOhJPrtaUVZSDUVAGMK8HaFS2cFG3ntRCU8i38wqxqTQeMTP9YKToxv8F61DjF8DcjLVHO85Ps+7aWstVcLJwxOeHq5QCcmgVOkMD09PeLiqemZMEBLPgNXvYWu4Fte+S0WZ3A2ewu89PT0wZbLu4Zl+r0mBiPiBIx5fv4bCofJT4dlTt4Xv4p9+9iHWBup17nc14lZaDhqnxeH1qOlwc/HC7PhVeFVZjKvXSvRuZZsgjq5pxny693FBeEwI2q+fx01Dg1Jbi5D/oB1eC1dj0QwP4Tp1hV/oKiwNUeDJ3XwOjTHtO56lWZyAFlUlZej0DMZsV+FDTGINt/CFCNFPPo1dp8I9CVFxLM6PDaLAQIHeb2YtKi4dwQmPjVj+Dz/DeqtO3D/yK3yVXi90pGjx+MpBHJCvxcpV7+MjOylanzxEzuE/ICW/ecieJ0JT4JmARBmM9Ts24Hke6PY6PggWphiqPIPdvz2FMokwpVKIOxQ2UkRv2YHo53RdqE//Cp8dKehNCiWwn7MAIYpinMwqe8EnuLvQnJ+E/UfXYF3sVuxcpZtk/h5S/5iEyyO6Lz1acYTvMWM+wt0FRcBiLHR7hLNfF3U/9Dfo1fUUGYf2Qx6/DAv+/h+xwkaYZF5TgcLLB5F85uHgntJBAbiBAhQYWqALjTknkPTKG4jf8c9YXF+D4pzryCmfgRn9DjJ6nQrfmGLiDF0P/oYCliGg61TSH4BiGS1jKyhgKQJSZ7z2o58iqmI/Pj92H4aewbKUprIdFBi3ArxOx+2pY8VNL8AHjkxvzhIpMCIBiY0KbervcSSrkInniOS4MwVMJ8Dr1HTWLGn8C7Dnc/yfQ7aAAhSgAAUoQAEKjBsBESscjZu2sKIUoAAFKEABClCAAmYuwOTTzE8Qq0cBClCAAhSgAAUsSYDJpyWdTbaFAhSgAAUoQAEKmLkAk08zP0GsHgUoQAEKUIACFLAkASaflnQ22RYKUIACFKAABShg5gKcasnMT9C4r57EBl6hsYgOD8LUKY6wtWpDbWk+Mk6fwMUCTb+J4q3hEbYaa2Nnw2eybuJ3NdJTknBO3X8fMRrmFUfiGIzlKyLg7+MNDycbtGbuw6ff3NNbSUmvXVY+iN/5Pvyz92DPmQrBSA7f1zZh5as+cHexF1aib0VdeQGun0vBubynPbFEO4sx5D4UoAAFKECBsROQCaE/GbvwjDzhBYSJl+ctCYWiKBNpVy7hUtZ9NLmHY9mS2ZDkZ6KwXrfGgW495PX48Rsz8PTcIRz8Nh1lqlCsWjkL7bdv4FGT2HUQzC2OsCqmvS8CXdvwMDcfTW4BcKnNxsW8mmFWdpBANW8dNsyqwon/u4qeJe5lcPCYgo6iLMHwMtKy1HhqH4IlK16FtToDBRrBR5TzhH83EoACFKAABcxAgD2fZnASLLoK2kpcPJA4oIkllQpM/XgDZs5wxtmyKmiFtd2DI+fCtigFxy7fh27p8qrkZEybtR0Lwr1xJfnR8D2Fz6KbWxyhXtqqLCR/K/xH6obYKBFnWuaJyMWBqEvfizuNz5LudjxMP4mH/Q4vKbPC9HlvYvo0B0iLa6AV4yyieO5CAQpQgAIUGGsBjvkca2HGHywgV8Ba0gmNprGnB1DqAV8vGZ4UPUR3R6ju1VGCohItHLy9YadbCkHMy9ziiKnzgH0ksA2JQYQqHxfSyodMuCVye/jND8VUaS2KS4YZlqDvPOL68AAKUIACFKDA6Auw53P0TRlxOAGJHYKWLYJvzVUk5vYmn1a2sJ0ENDY0Cbec38JP1johc9/vUdTYArjadSefut5Qoy9zi2O0wno7yNwRGR2EhowvkdswuMFSj6X4YEccPGQCSEsZ0g4lILmw3XAphpwN78mtFKAABShAAZMKMPk0KfcEL0x4KMYvbgs2BpQjKeF7PGgb6KFLtzpb61FXK0Nj++DkS6yeucURV28JlDNjsMBBjZQrpQZ7PbXVV/Gn392CYpIj/ELjsHTdelRXH0BaZcfAIow4i6sP96IABShAAQqMjQCTz7FxZVR9AYkS05Zuw5awRpxMPIRr1Z19e3Q0QtfJ6WynRFPacezN0/1Kgbk93aEw0AmoH73nZ3OLY7iWhrcKY0IjYmahOTMB2c/HHujt2tGAmsoGYWMFyoqrYe35IZZFByDzL3l43v85nLPhkrmVAhSgAAUoYFIBjvk0KfcELUx4EMg/fju2hmqQknAQ6T2PcPdhaMtRXNoJZz+fvvGdVl7w85KitqRkUPIps7GHo6MDbOV6nuYWR/Tp1j2lH41I50KkXn4EvX7MIaJIIBHuvssVk6CbsqL7Zcx5iEjcTAEKUIACFDClAKdaMqX2RCxLSIgCVr+HrWGdyDh2CgVtSqhUKuGfHZTSNjS16npA2/G0xRmh0WHwFMYyVjQrMT12HZb61SL16DkUDZhqSQr3mB/jw61xcCi9hFvV2n6q5hZHqJpUCSd3VzjaO2PanNnwbC+B+rG2e4xra1NbzzynUldEbVwLj/yjOJrztN/cp71Nkwdg6aZIeFpbQW49CXbOPgiJWYO4GXIUXEjBjfLW7sTTuPNEfAOyzRSgAAUoYG4CvO1ubmfE0uojnYKZIe5Q2EgRvWUHop+3rwv16V/hsyMFwvjGLjTnJ2H/0TVYF7sVO1fpJpm/h9Q/JuHygOTSGI65xRFyQmUw1u/YgMBnV5rb6/ggWJiCqfIMdv/2FMqE3FkRsBgL3R7h7NdFfbfP+zdV2wBNhyvCl8zDkslKKCRt0FQWIeubwzh9Q9M7Y4AYZ2N+/D0FKEABClBg7AV0k9i8+JMdY18/lkAByxYQJod/7Uc/RVTFfnx+7D70nsGy7LazdRSgAAUoMCEF2PM5IU87G20uAhIbFdrU3+NIViETT3M5KawHBShAAQqMqQB7PseUl8EpQAEKUIACFKAABfoL8Gl3vh8oQAEKUIACFKAABUwmwOTTZNQsiAIUoAAFKEABClCAySffAxSgAAUoQAEKUIACJhNg8mkyahZEAQpQgAIUoAAFKMDkk+8BClCAAhSgAAUoQAGTCXCqJZNRs6CXFZA4BmP5igj4+3jDw8kGrZn78Ok394RJ6od5Wfkgfuf78M/egz1nKrpXDzIaR2IDr9BYRIcHYeoUR9hataG2NB8Zp0/gYoGmbwUia3eErliF6DlT4aKUoLWuHOrMU/juvBqa/gsvDVM9/ooCFKAABSgw0QTY8znRzvg4bq9ELqxj3vAIN8+eRrawRKXxlwSqOTEIV+bh/NXK50mj0TgSe0yf5Y6We5dw/Ouv8EXiYWQ0+GHZtncQ5/lsJXU5pq98GxvmSZD9l9349We/QeKpSrjHbcUbEU7QzWHGFwUoQAEKUIACgwXY8znYhFvGSECmsIOtQoqOJg2aOgwXMtw+2qosJH8rHCd1Q2yU4eMHbJV5InJxIOrS9+JOY99CXkbjaCtx8UDigFAllQpM/XgDZs5wxtmyKmiFBNXbezI6Cr5DqroKuubUZV9CzqJQRHm6QIonw/fIiqg+d6EABShAAQpYogB7Pi3xrJplm6RwW/QefvHxLqybMdTfPGL2Eds4CWxDYhChyseFtPKXTwTlClhLOqHRNPasR9tVhweFjyH1CUGIs7XQ0ymDre8cBDrV425ead+tebHV5X4UoAAFKECBCSIwVBYwQZrPZlqsgMwdkdFBaMj4ErkNfb2eL9ReiR2Cli2Cb81VJOb2Jp9CX2fxqUQclG3Gpl2fYKO2C1IhIb19PBFH0QALaQAAABdJREFU7jzb54VK40EUoAAFKEABixb4f/wznmT7+fpFAAAAAElFTkSuQmCC;" vertex="1" parent="1">
          <mxGeometry x="-100" y="580" width="671" height="158" as="geometry" />
        </mxCell>
        <mxCell id="0RQWI6Ay9hwaob9HxWqD-16" value="" style="shape=image;verticalLabelPosition=bottom;labelBackgroundColor=default;verticalAlign=top;aspect=fixed;imageAspect=0;image=data:image/png,iVBORw0KGgoAAAANSUhEUgAAAf8AAAEhCAYAAABxxanhAAAABHNCSVQICAgIfAhkiAAAIABJREFUeF7tnQeAFdX5xc/MvLaVXhQQKSKCBSHG2GPvosYSNYkx0RgxGktMNBrsKZr8TewtMSaiRjT2CioqERuCKEWQrohK3frqzP/c3ffYt8vb3bfwWN7uO5Osu2/unXu/73dn53z3u3cWC3A8NHMUz0ygdlR5M6U6LQIiIAIiIAIikO8EimZWoGaU08hMO9+Nln0iIAIiIAIiIAK5JSDxzy1PtSYCIiACIiACeU9A4p/3QyQDRUAEREAERCC3BCT+ueWp1kRABERABEQg7wlI/PN+iGSgCIiACIiACOSWgMQ/tzzVmgiIgAiIgAjkPQGJf94PkQwUAREQAREQgdwSkPjnlqdaEwEREAEREIG8JyDxz/shkoEiIAIiIAIikFsCEv/c8lRrIiACIiACIpD3BCT+eT9EMlAEREAEREAEcktA4p9bnmpNBERABERABPKegMQ/74dIBoqACIiACIhAbglI/HPLU62JgAiIgAiIQN4TkPjn/RDJQBEQAREQARHILQGJf255qjUREAEREAERyHsCEv+8HyIZKAIiIAIiIAK5JSDxzy1PtSYCIiACIiACeU9A4p/3QyQDRUAEREAERCC3BCT+ueWp1kRABERABEQg7wlI/PN+iGSgCIiACIiACOSWgMQ/tzzVmgiIgAiIgAjkPQGJf94PkQwUAREQAREQgdwSkPjnlqdaEwEREAEREIG8J7D1xd8fR2BKBYpm8msGv96tROjhGvgPdzcfnuXBub0Coevi2bfFa3x30Y4PKxE41Gu4blgEwfcr4f9O9k2lalr7R+E7NgFYbb82p1cUxRB4twKBY9P82oQOrB9V14+XGbMP+fVqFYLXRmH32ITGdIkIiIAIiEC7E/C1e4/NdOhNCiH2LGORYhf2iRH4/lADK1KC6JStpJg2A4ej47Am++FtnlbC2i8C/8AgEs87m91WM/ja/3TMQfzKINwo4QyNw3dWGMFBHiJn8RzjHB0iIAIiIAKGgJl8mnl2+lzbiIo5byR462hc3og/ljtIvOnU3SuJqTasp2rgHE/xfWPzxbeu0bYeX9jw9ojB6e1H/Ku2XlwA9V0L7ts+JKro6xQ/Bd9F6BfktSPFf04B+C8XRUAERKAVApblwvUSsPnd84zcmgDAg2UleN6Fz/GQSGwd8d/6af9M8GpsuEtZ0J3RURoX69sRBB6sQoip66JXqhH4cQJWugecrdvn1iD4WiWK3mQq+kIGD5vq4WI/Ep8l4BzWwvJD/zj8f6lG6H+0Zyr7u5qp75KkQzYH9t/1yxnBk+nHt8MImRS5SZU/HKFdzCzcSDtvjmUiAAziMsO7VfAPqy+2doki8M+k70yzBy6JwQo0ubRvlNdwaeKgBHzX0K63knb9spllDy5x2JcxhT+pBr7Bmc3I9qw3l1kNtmelp/6ZxXEu43hMpp9mOeeeMJztN27R2p2+3Uff3qa9U8jxjxHYvdLq9WRm4Sb6M5Xl/6tE8M8ROH3SynvV+x04NQb/PfWMQk/TpzGbmbLZ2FSdEQEREIGsCey5557YcccdKfT1gg8ws20b4U+grKwMJ5xwfNZt5bripkpjru1o3J4Rke6Mj1ZYYHBUf4wJI3AbRWGVH7FfFSP6ALMD59QgcFKDOFsn1SJwNiOsCSFEruAMdATT7WM20dSEXZemt4+KcbAytNGdexXupcAMsBG/lvZcxwyFsXE8RdkELC7PX1yK8FGliL7AEx8FETm6/nP4wgD94sz5Eza8I6PC+oRH406G8SapdeqDoL4UtdvC/EzfL2Vf9/hgfa8WwYsziDq7ci6kyK4KIPpj9nc+lxsyZS6M8J9HfkdZiF1YhPiiDD624ZTV3YVFn90vkxcx+HH+wADtaA/ufSFELw0hEScz40cqQDJVd2dAdxfPVdK33xQjcjXtTTDoSgUjDoOov9TCvxN5Xsfya4LwhvKaW3gv+NMMNPs7fhSDdw/rHF2C+MIE/L9jnfzJbbWBpqqKgAh0BgLvv/8hdh81GjsNH1430/cQQ4LrouXl5Tjl5FPw+utTt5qb+fNo5IPcKvbgBSlKJ3BmV+5D/B/Jp7uZRZ9LEZ4bQvjXFM66NWUfvLJqBE/n+Sco9KBgnEQxnFyEGK8z6/TufLb5TG2jlZa2kPZe5ez/F7RlONtvorP2KTxf6kP0zCIkvqm3J7HGQ+iOKJz+XCpYznOruHTAb141/xNhIPMlP6clErw5nC33psh3o62r6fd32clnTKHzWnsEnfw0wDV1+nAM26TSRRnQJNYlfe+SQPBMptnvYuq9Is0riiDmBBG9g3zqJr4UzY/Sys2PRvh/xEDlVK46XUDhn7sJaSdeYhWxA5Oc2Y4zc2ZhvKfJYmGyrzFR+PexkLioGLGp9e0nZrHu02H4DqR9z/Fc3bgyWzKP43pZalzJgks9SAVEu3Kz5EgL8V+EEH+nvp3oGi4x3EMmozku7zb45j7JOh/WR2rxCX747mRgtQ3bM2OhQwREQATamYCZyEyc+BSOOeZwfLZwIWKx+kzvd/b8Dp566nmsWbO2nS1q6C7TnHarGGP9kGndt5kefp1p3zM9xC+lKFG8644QH+I7cwY5mYKWtpnMnUHx3IZlFE8UUUQHUoump0SP51Zz5pwSo03xag2FdZrZ+NdkBxtFyx7Dcx9SqOuEP3l8wv649m0PyzLd/Bnrx7l0sQOvL6eA/p6Zi5PZrhHn4QyETHBABbd3YsQwn3XTRN79gGVB+r59E8c8ZhSmtLyx0B7LfrgU4D1KsZy1CcJvugxwyWMSx4tp+NDDtXAWMttyYwN7w8eq4D6O99Par/LBXUB/RiQjoADt34XjOqnxuNZ5lERuDWc73Fzoptv5CdsJG0bpSzIMrj5Lu53X87NZWytvwkcfRUAERKAdCbic6T/33LN1wu8k08iTJ0+m8K9uRys27ipvZv7e80WIPs6Hdx+KIGfb/msjcE8Lwa2h0cwIWLTUvqgKRRemOWF0xeIU0aSRzVIBP3t86G84KIRInxVv7H/LZ3h94jkf/Fdx0F5pIpJGVMbUIvRebeM2OGlNlLbc7IZSk9ZncOIYEXPisCnw3m7cpxB0YA3hjPUx8mC3VgmDiSr+kK511fXihuImfZnJeDqDDKZYI7jJ5G0bzqnMXjxVjEQqVZ+hbrOnzG7/XzKVH6MIH8K3M04Owz/dqR9Dc1FXGtKVrxa+1WRPA8fR+zoZHBnbyctb24RtWqeWYRnhV3oz5ODxvrDK0oIs82Om7RPNN92sayoQAREQgdwQ4PORa/wm1d+1a1f84IwzMPnVVzFv3jxuAuT0ZMMmwNz01pZW8kb88RXXizmTN/ne6JdMn/+d69wnBBCZQAGspdAxI+7exVf/kinkDU6ah/4KfgWS+wNMKjq1S9CkwENtwZGh7ntM/Sc4s90rfYGZ9RhUeJMYsNxNwW562TdZKo5ZI2fK3bcTZ8BduSv0Ga5nn8R09kgGOiXcc2DS8Zz5exR6dGEvZmKbCgAYEFjGTxMcNT3Sg4SmZaaJO7lv4AkP/n9Xw39FDO5FXCZp5ZqNmjF7FmYxeOFuf3c6lzO25fr+T5nCf5EBm1nmWM+vz7nv4GIuXTRtuzLJx9hOwba6pY1Zk4488zZBkF8Gf0rcTUxkAodUO02u0UcREAERyAcCwaAf4UgU3Sj8J574PTzyyBM45JDvUvgtzJk7FyXFQdTUZJq1bHnr8ybt38jVWUHE/ket+z7FxDz4zQx5NqVuEEViMYUm/WsJPxt2ps4SXrNjmtKYpYDBmwkxwtT/JAv2MZyRpzTdiDbXlq0h7GtFE3uMbUaw0o8YLzR+ZDi8j9nOcGY7RlFE32OafBZtZurfMksWX5sLKLJzOUzDGCCkpbDtb7FOpN7nDM22eMpbZ4IGB7Hf83WB73DGflxTdW7x8o0LySNxL9fse8fgO6K+LfdDpvJ70cZoBj6rkiCjtP8Tsj2UbFNr/KnWk3emN4/BlZ++75oWYu3MLEmIXObl5+27MSCdEQERKEQCI0fuzPX+Y+qE/4knnq1b43/88acxcuSuOOTgg3HcccdtNSz5+fQ06faHOBvdlmJyEB/6deLCz0dxrfq3nBnvzYf/d1n2M25auyla/zqfqfM4ExlHMwW9O6+h8Ds/NxsHN5+t+zz73oa72dNouRO5+a6Uu87/xg1sB9GeveJwTuPnu5kl6Nm4z7q16B1p7yEUsUFsZ5sGITOvyLnbcFmhmOvYfLvBBAD2IRRDI3rJTYbecwGmjZgJ+T39oe/OKRRss8HuWWYlNmdZ40NuvHvcgnMR3w7gxrjNOmZzk+MHzNucxg2YJp/0fgDx6S78t/OvNY4ln2/T7rHcBPhHft4/2ZN5I4Lj6u7EPxB0M33bl/X2JafxrLNHss4stjObf3XxSnJmkGAfzNcCf8cxn08mH26WxbpYBERABLYogQ8/nImVX66i8D+D9etNOpRyxlTof//7DCKRRF0gsLWO/En7NyUwnQ/9TygWZ/BB/zLT4e/zdbELbPh/znOcqVqcTXsLOCt/ilPGpJZ6/2UavgdfC/sL33UPcnb+ihEgvgXQtO22fuYO/MQcvjbGdPyGg68cRs+24L+QwQbf77eCtGcZhdz8wZvKxh14LzKT8S2K19XV8Jl09dwgwj+gT2aS/Dmv4T1hccmj7i/jzWQQkODrgtw8uCFEWMnX4C5kmv5S+s5X3KxqBjrG19s3c/jM5sA7uelvP4rtpqb/U64aIZ/gg+8W7s7fl+n+Kfz86xJ4P6ff42rh46ZM72uOybscswVpfKZzXMdxXMfRNwYAVsTUob+LknX4ymX8V0XAr8n5Gv7VR6Zf3GkMWm7mTv+tky1rPLj6JAIiIAItEJg+fcZGpSYAmDp12kbn2/ME86/8E0PNHMUzE6gdlYOpczPt67QIiIAIiIAIiMCWJWD+uFzNqMbT4PxM+29ZDmpdBERABERABAqagMS/oIdfzouACIiACBQiAYl/IY66fBYBERABEShoAhL/gh5+OS8CIiACIlCIBCT+hTjq8lkEREAERKCgCUj8C3r45bwIiIAIiEAhEpD4F+Koy2cREAEREIGCJiDxL+jhl/MiIAIiIAKFSEDiX4ijLp9FQAREQAQKmoDEv6CHX86LgAiIgAgUIgGJfyGOunwWAREQAREoaAIS/4IefjkvAiIgAiJQiAQk/oU46vJZBERABESgoAlI/At6+OW8CIiACIhAIRKQ+BfiqMtnERABERCBgiYg8S/o4ZfzIiACIiAChUhA4l+Ioy6fRUAEREAECpqAxL+gh1/Oi4AIiIAIFCIBX66dLppZkesm1Z4IiIAIiIAIiECSQO2o8s1mkXPxz4VRm+2VGhABERABERABEWiWgNL+zaJRgQiIgAiIgAh0TgIS/845rvJKBERABERABJolIPFvFo0KREAEREAERKBzEpD4d85xlVciIAIiIAIi0CwBiX+zaFQgAiIgAiIgAp2TgMS/c46rvBIBERABERCBZglI/JtFowIREAEREAER6JwEJP6dc1zllQiIgAiIgAg0S0Di3ywaFYiACIiACIhA5yQg8e+c4yqvREAEREAERKBZAhL/ZtGoQAREQAREQAQ6JwGJf+ccV3klAiIgAiIgAs0SyPk/7NNsTwVQYJ9bjcDxLtDdQuIXpYi9XwBON+tiMQ4ddjbuK/0Qh86YigVeQ0XbPxDjhh6Gn3TvhbLEOny0ehquXjQDsxPNNta4wOqB80edh6vKGseukdVPYdfZs1D370pa5Th04FH4bd9B2N6uxaKKOfjrwlfxbG22nQC+4FBcPPRgnNG1J7qhGvPWzsBNC9/CqxGOcfrhDMCVo36Isesewj4LlyGWpRt1Zvr64yeDD8HZPbdFPzuOlVWf4cElL+OuddVo0ksbWlVVERABEWiZwNYXfycB/3+q4Rva2NDEb8oQfdlq2XpTGogjMDkK95RixFe2Xn1za1gn1CB0dbxxM9NDCJ8TgHtPCcL3ufBNqEEWlrfNlDFhhH5jIXpaEG62+nVILYpuphSlGeP9gzbe6gB9owg+G4btpxlUGW+lA3dCCLGHHXhpQt02I1nbCqB38UAc3/9AnNejGHa4aQtlOGnYyTjbmoYLPvwIC6x++NmOY3HfoHU49LPFlNhsjiC6+mJ4bt5tuGh1w1h4Xhw1dZdbGNrve7i9dwVunHMXXoyEsN/AE/CXnSJYNOMNzM7GPwYYPxl+Ek5PvIVfzvgEi6ze+P6Qsbh7x2ocNOsDLGcvjl2M7cuH4+zt98UJIbs+6MjG/A11Qjh8yCm4NPgezvzg3/ggFsLu/cbiwZ2Oxsrpj+GJaJsaU2UREAERyJpAnqT9OVO+sgy1e5Zv+IpOyrl8Zg2l1Ypzg4js1WBr7bkBePk4TXutiDzLELmbYj+1CGHyDd/Bn1NHzEHsKPrxHda52YF1QS18o1v1voUKFoYNOBPv7HoI9o+/g0uWr9hoFmyHRuD0ruvwj0Vv463aKqys+RQ3LZmNYK/dcUCaaS10wqIQujphfBMNozoR3fBV4yYHweqLk/r2wfRlL+PfFevwTWQlnlz0Jt4M7Ybvl2d3y1u+HtjGnY+/0s43atZjefUC3Pr5AsTKBmLnuiZKcNrIX+KFHXaG7+tn8Pu12UZkaZ4xOzGiNIg5q2ZhejTBoKsaM76ai4+dXtgpmJ2dLXNSqQiIgAhkJrD1Z/4pu8wELrKxkc74Svj8nFV3i8MezIf7jBCi4/0UWw/ODdXwj/ZglXqwH6yCz8xgnyhC5P6kigzg7PafCSTu4SzttASsLpzk3lOMWFEtgiMDiPya7ZhZoM3Z+r+qYf+zFNHJWQQdvMYztrZR8K0DwwhcEoPdg9fP9SN2bQiJZcZn2v/jWvhPSsDuzk9fOUj8lbPwNygA/jgzI2E45fST9gee40zeY7B0TQli723Mq9EZY1/UAifEgNGmjfjS11SdNwJILInBGULnpicZ9I8i8LcYvFvY19RW+qor9vDZ8n9gh2Vkztn3NtuO2ugif8m2GJ74Ev9X2zD9jlR+jrn2Ptit2MYLlVlAtYIod2x063MCntlhIAYxvfDZuun4w6L38F6MnHx9sWuQywlVNbSo/vDY54e1JTi8tBz2+nWtDp0Xm49rP56fZr+FXkVdEYx+ga/qGq3Gfz75EyYw6vPgw3FdN3K19RPeary+eg3OYuDz7VVT8W4sgF37jMCI8Ge4rSYLDq33oBoiIAIikJFA/oh/RvPqT9o7ALGzKECoF0LfaArn+yZbUIpEKu1/ZjNp/9I4nIFFiJ5cRKGnMGxjJIqi/yMGE+V+JNazj4EUvb4+xKdlIfwt2NliEdPsfi4XuFeVIvI2441xNQhcw+WKs5k1MGKyzofYL4rgLrVgHRBG8NoI3LFFtI/nT+T+gU1J+7doUONCaycyGMBY4PO0837yGsioocQYmB0b12t5BlzsDzGeWY/11ra4YsxPcF70JXz7k0qs9YrQw5ddH5bjZ6BnoYu3HH+c+wZWONvizMFH4l87uTjy4/exzFeErghjTdzGd4ddggm9l+Dct1/AWsZNXf1FsNG6+DdF5y8ajT8M6IVpS57GzGREEdvsdE8CM5b+FzeNOAOPfWd/mJDVjS7BH2e/jmktY2xqnj6LgAiIQJsI5In4cxY/vgqhK5K2J2zEf1aC+ML6z+5bPri15meuSy9i3f58+lL8szoSnEU/4Kuf/VLAPCNutg+JhRE4+3hIvECxPSgO6+0gEtktOAM7MqPwWsOCrHsTMwZsp6XDGsMg5HM/wm/Xz7bdRxmAnMZzPQKIf2PBfSqw4XJvKoOSaq7HM1CpC0621OFjMPUIMyts3wrSholFiL+T5sdiLm98K7iFeo/h69qvMCdaw5DOhBYNmYDWOvRis/DTabPSqq3C1Qt6YO9Ro3Bc0Qe4Pa2p6sjXmFO9DpWsXd5aw82UF5WMwe0jD0Lvr5/A6SvbHjg00yxPF+EgrvlfYn+AU955B+/Fg9ilz5G4b+Tx+GrGRDweyZ5J832oRAREQAQ2JpAn4s9Z/N84s38jaSDT2t6aNGNr0gTJ7F/Lem2YbYTZVt3277TDtZF42YHvMIo+vzsHMgi4qw2NLgwg+kuz9GDapG3rWxb+up678kG+jmn81PO8woaX4Aem8vENZ9hHRuD/IbMR3UxlfuYbA/EtPToMjGLjipHgRkmvgj60w2yzJlaLqK+YOL7B32ffh78bgv7d+YJELWYxZb+pRyy8GkuxG3oHGMRU12ANiplJcPH+0n/h0KWmk564gJsb18RqWk35p9vQrcsB+MdOoxH+4mGcvPyLTdjU14JH3OX6wz5+vDh7Gt7hmj8YBn20ciqe6HcWTutRhv+uqGiTrS30pCIREAERaEQgf3YVUUC9ryiI5utrClGTDfUtjltL29ONQGfQFG+KH+7OXH8fxXR3d2YCPshCwFNG0LYNtn5Fu5vuaDf9NY0lTIDQlcakuil3GcTwgwlM+sUQ+HUC7g3ciX9kKcLHcgaeHvyYfjP40CKTbAoZZGEt7edXewi/MSlWtQJznH4YU9zAu7hsO4xwv8SM2sbr3LavC4YV90CfJix9JaPx5+F7Y8+0u9df1AuDCXM5Z8seX/uYFS7HmPJSpvjrD8vXD3sUVWFmZWVjQbWKsF1xLwzyNx0woLRsPzwwYld8ufhBnLlZwu/jfoFeGBYqqsuypA7LsuGzrA021p+vP2fxvA4REAER2FIE8kf8zVPRZJhTX9laxrVfr5Iz5cFtVMfVFPxP+Jrhb2Ow3uSywkab4TYRubHnC27gG9V4Gu19wD4GxODbi3baLP8++/2MNqxiPyGeizLoWVb/wLf2ZUDSs0n/69huz/pNi1lbZhgGzAY4fjfaZthurHHNN2c2/D1VBf9+zVdpWmKxs2IngBJ+FdlcUmGHRXWf/dxpwTXtyBxMWFuKHw/eB/sWlaJvyQhcNWg4Kr6ajjeaZB6Kux+BV771I1xU1tjoBHf5l3TdHzcO3hk7B0sxoHQEfjtkDLqv+5Dv8ZOl9xUmrlyBXfofhh+Wd0GvYD+cPmQ/7FkzHY802VBoB3fFbWPOxX3b9mwkzHC2x+XD90XpymdwzWq+3ukLobzuK4DUAo3D9ySNn+aLCQekfC92mE1KB8PXBM8eeS4mDxuJ9GH1Ykvwyno/jh6wJ8b4OVjcyDi8z944PvAlJq3VrL/pvaXPIiACuSOwpRPLWVrKdfwbK1F0Y0N19/+4Me5fWUQAcbOm78B/HfcMGOHlunXkviwUjrNe92W6fwN3pv8+lxi4hHFfEM7NNSj6MXXo0WKE/0p7VnKp4DoXgcurUEQF8D7lpsVrkq8ILuK6/3Pc7T+Bf+9gFX34zIbb9G8WLPEj/jrX6J+ohJ87+BPjuQnw3VbwHpT+nn8tQu/WYsN7/q1cWldsNvz152y82ARW2cxELfTd5nS8O3T7OqGvPwbi5b0PoMNrcc9Hd+Caiio8Of8x9N7hCNw2+gB089bj/a+ex1lLlnOLXnaHF5uDy2cX4+rBB+LxPbpw3Nfjo1VT8KNFM/FFXRMeFq94Euf5jsL4EeNwvS+KRetm4Bdz38H8LGNEf9lIHFPkRx++uvjRgDS7vJX404f34a/VDo4efhnu6Zl+7/wA87Zl7/FZ+PE7T+GVVjfsr8eETx9Dl8EH4+49DkAvvnWypmYxHpn7X9xfk6Wh2SFTLREQARFoRIBPdKfZp0zxzARqR23qNqkOQNrsoL+ak+7vheC25c+ydQDXZKIIiIAIiIAIGAJFMytQM6rxpDiLqXUnhcfUu3NKHN4rXPuX8HfSQZZbIiACIiACmQgUpvgPjSD4BteyezP1/lAWSwSZyOmcCIiACIiACHRQArlc7O44CD7j++v7ban31zsOBlkqAiIgAiJQmAQKc+ZfmGMtr0VABERABESgjoDEXzeCCIiACIiACBQYAYl/gQ243BUBERABERABib/uAREQAREQAREoMAIS/wIbcLkrAiIgAiIgAhJ/3QMiIAIiIAIiUGAEJP4FNuByVwREQAREQAQk/roHREAEREAERKDACEj8C2zA5a4IiIAIiIAISPx1D4iACIiACIhAgRGQ+BfYgMtdERABERABEZD46x4QAREQAREQgQIjIPEvsAGXuyIgAiIgAiIg8dc9IAIiIAIiIAIFRkDiX2AD3u7u9osi+L9aOIF27zljh9axNQj9LQYrY+mWPWlfVoXg+YncdWL3wNghZ+CtvX6LZfv+Gu+OOh4/71Ksf60rd4TVkgh0WgIS/1aG1v55NUL3RGGlkbIvrELozsbnWmkmd8UjIghNr0BwXFJELA++uyoRPMnLro9AHIE3a+Drm131rVXLOqMaRR9Wwb9n0i9j91vV8A3dWhZtfr/e5CDib+bqV87B7gNPwS3dw7hvzt3Y64OHcGNlT1w64kgc7d98W9WCCIhA5yaQqydRp6XkPhREgrNX/z5JEdomCt8JFuK3BuC5W8ntOP8t5iNjsINbqf/26jbmwTk+DmtrTNO3gI/eDD8SH+fKmTIM8Vdi4pKX8e/1a/BFeAWeXfo+pjn9sWexfq23wPCpSRHoVAT0lGhtOKt8iN9rw/55FLafYnQ2v7/KgODT5IWlCfj+wOzA1EoUTa5G4KxEg1gdxRTz7UwxJ5/31qn8/MdYQ48DmBJ/tRa+U2oRfJLZhNeqEDi19YjCq/EhsTgO314ZZvtBF85l7GcK7ZnCNPNFFE8zyswQODeyj6eZgi/ltQ/y5xdZfjYzCIMiCD4fhu1rAmMkzz8ege3w/OAY/P/kNW9XIvRUDfz7Nu7buY7Zh4sZJN1OFi+yztNsr2lw4tC2G9jGDWRi2mzt+MgHd0QMTs8mFZ0E/E8wK7Bb8rw/Dv9LyayAWWZ4pRrBR2jDk7XwX1E/NoHvN3C1yjlmd9KO/7HOPZFG7Vujowg8zPPT+PUIx2anND997Jfj5D89wjpT5QS/AAAgAElEQVS8fhLr/L5hfJt1Z1fD1/THjE3TtD/HxT6X4zWZbb3Fr4c5Pv2bbSmtYB0en/8QfvNNFVIW+kLd0B+V+CKa4b7IpknVEQERKBgChSv+fSgAP4tQeCmOTUWqyfB7L4QQdznjP4/197cRu9cHL/l8tc+jQJT7ET2sDLVncWH7VH7euw0PXwqxM5DXn1yK8KEliP0vi5mhZyHxlAM7w6zYPo/CPNxB9Hu057giJHYLw38s7THXXMk+xvKcCWjO5M9HliJyP1X4cweulYDdZCnA2pGBzKcsY4rDdwPF/N0iRPYtQ+QWG851FKkejUHZh8fh3VrMdssQ/gUzI8xQbDiM8P+OtjlBRK7xw8tm6buWQc7rDFqOaj0gamRJgJmZ80sQX0W2tSFEzvfXZUo2LN3sTMMeLEH4u+T9DYOaX/IeMA304c83R4F/s2wf+vkg4LuRwU/6fgWb9hwExM8z48U6dzsb7oUmt03Dx1n0+ehSRJ/K8Os2hAHTyUDsB2S2P9u7htxqm22p+QJnG4wb+m2Uf/M2Hqttw/3XfIsqEQER6MQEMjyNOrG3KdeCnMHdXQ3/uAhnhjUIXpquUhn8j9uI30YBOZPC8HAIia+TdTgDdSj07kQ/3BqeW+5H/DXA2T8bZUu2kXCQeIDBhDEhYcH7PAvxN5e+G0CiP2fF/dLs9VHsjmAz9wbhrub5Crb9JLMW+7fmHwV+vgt7GEWDwULwGQo9Bc8a4cKbxVtkWxOgOIg/QqGjDntvBRBfSd9HNxYZbwrPz0/av9xuEHiLwk/O/kEMcq6m8LdiTppHcJ9mOuJoLnE0zUqkV2r68zr2XcGvLwF3Kb9/xa9yr0H859HO92lnzEZiIhv+NsWf6+TWAeS5OIDYy/TZ+DmZjBkUOUMad+A+GoC7vv6ct2wzf4XMrRLg7H+wC4umePM5Fmbs2nBYvv64cORpONt9Gz/7bB7aeHkbelJVERCBzkKgLY/UzuIzZ3ic5Q5IukMNsHbnZ4cp5pY0eybLazmzfT/tYc9ZIMoo2GsaBLvu56FtmHmFeX3FJqCNUthf8TirT5iYof7wUeC6UcR/VwUnJbBcqsACf53wNbtHgVkB7xO7TuztMFWvmgHMcAr/DtRAM1s1whljJybAMQfrg+JndWlst/dlM0LoJ98+DHAGxGEPYmCSWjJpfHnmT0u5Tr6qhoFGM21nuiqVKIjTzrqgil/pd/o6nk8N0Xr6XkrhNc334oXDuWzwXwZ5qaOUlxendeKy/tcN452p+zadW8Jg48/ctPlzBqE3e/De4+dryCgZXLTWlhMchmtHHoeDa1/FSZ/OwKdtTJK01r7KRUAEOieBwhT/FRTO2Rbs3Uw6nAI3pRXhb27sKQSoNIJrlKReEKzu/JmCUnfUiU5aIFCUISgwD+sMp5vrMv28+yynq3dyVrw2edZkDtZwhn4JU97zW2ghtWaRVsX9xIH1A4pzlCnzByxmNJgm70NOC1mpB9s1QYQRQaOLXKdGV5rdVKCa8yPqQ+ziYngnc0/E+Ajcn1DcIi3Y18hJzs6fdhDkEofBveFIF3Set5ipaK77jXoy42XaMhd04fhV0j8z0/+GGYK3/Qj/upXt8rkUWAZS7jMhRJ8xtnAp6i/MkJzgR+SfrQc7ln8Irt75OOy1/hmcsHA+VmYNYCMiOiECIlBgBFp/wnRGIHEK5LgSRK4oQvR8rsXelc3uswwgTMp+GoOIUyjARSwfEIPvIAYTU5PtrSDegZz1GtEMMPV9AGeYGZrZ5FMruczAjX/OyORTP0Z7JnEWeS43JZpZOTMT1jCW756mCmbmagKWwU2UYh7TzTtyXwP/575D+49kG8t5zoj0Cq69L6UwncY9AHTJ2pf1tmFfM7L1hvU4A3cnFCEe5Rr3OS2lWDam4b3J2f9O9CO19u7acL9kqpyZCnNYe5E/Z+hZH8bPPei/n2NyMg17lz5zH6bpx92V9u3Ldo1rzAjYRzIg2pIhsllS2aM+5Q+TqTAuZRUYleCYoWNxavxt/HLpMtQ4IZT7zFcQxdkOS9bAVFEERKCzEdiSj7X8ZlVNAXlx82Mf9y4K2lVhBCZHYDGFn3g0hNjU5NN3NlO407jj/D/cic61YXcJZ5YmSMjVUbfxj+n076beIOAs8o5ixC6kPU/SHm5k9JZRpO/gJr9Unwx8Eg848F/H3ecmEJjITXz3Uey5P8BdQ82bwXV9zoTdLxg7LKhf4+dPiI8Pwfod30r4EUXzG7ZxDfc+rGqjI2bvxPVBOP/gJsS3aOdHWaqU2fg32YLvjGR/xu+/B/j2AnfJH0auM/mVyn5kY9LHvO1/xLcA/o++fBJA9LfJXwMGU7EruZRyCdv9E8tqyWcax3BSNo02V4cbBK/m/pLvsLycIu+x7WPo9xshhP/IfoMsv5iz/YEMyJi5cd8IIvZ0FvelvT3G9ihBuX0IJu11SFrnCby54G/4/pcNbwE0Z5nOi4AIFC4BPoWcZpOFxTMTqB1VXrh05LkIiIAIiIAIdHACRTMrUDOqcYY7iylGB/da5ouACIiACIiACDQiIPHXDSECIiACIiACBUZA4l9gAy53RUAEREAEREDir3tABERABERABAqMgMS/wAZc7oqACIiACIiAxF/3gAiIgAiIgAgUGAGJf4ENuNwVAREQAREQAYm/7gEREAEREAERKDACEv8CG3C5KwIiIAIiIAISf90DIiACIiACIlBgBCT+BTbgclcEREAEREAEJP66B0RABERABESgwAhI/AtswOWuCIiACIiACEj8dQ+IgAiIgAiIQIERkPgX2IDLXREQAREQARGQ+OseEAEREAEREIECIyDxL7ABl7siIAIiIAIiIPHXPSACIiACIiACBUZA4l9gAy53RUAEREAEREDiny/3wG5hhJ6IwHbawaADaxH6exRWtqPfJYbAM1UIvV6JonvbcF07uLIpXXTvshfu2P0izN/vKiz8zs/x0OCRGJwti03psK3XbPF7oQTHDL8Yc3Yejf5ptvXq9T3M3Ot0/CBktdXizlM/jX2gdH+8tM84XNsl0OCfvQ1+NfpyTB0yECWdx2t5UoAE8umRl7/4bQ/2j2oRfJHi924lQhNq4QzKX3MxhoHEYy0EEvP9iE9w4HlZ+rDej+hxpQjf6EO2l2TZ8par1gwDK7AL/jxiX/Rf9xJOeP82HDFvBmK9xuLeAX3gy4U1zfSbi6Y3qY1AHIE3a+Drm351NV5Y/BreK/suxvcqhZF6yzcUvxk0FIuXvYJHwx1mlDcJSbYXRaum4aoVLk4fsjd2rXtS2hiyzeE4x/cJxi9diupsG1I9EchDAhL/LAbFOq0GgZOA+CWlqD2wFNG7OT1vjxl6FrZtUpUvfIi/RgcK8BkfKOqGQMU0XLtkHmaH12PBuvdx+zcVGFzeH903CWbHvMiNzMI1S7/B/oMOwsG+APbY7jCMjRmxW4V4x3RpC1gdw/RlL2Oisyeu37YnAsHdcO123TB50et4XZC2AG812Z4EcjLZaU+D270vXwK+0124txcjMbc+Heq+lZYGpEHOdZXwrQ3CHRKDM8QFopwpnxKCG2XG4MQw/D+Nw+5CrX0/gOg1rLfOeMGyk1h2HstcG4nJpu2GiMIaHYX/V5y9mwzDEor1dSHETf9OAv7HamFN5dDtkoDd34P7YBGinMnDH4f/P2E45R4s9hd4LsZuLCSuKUHsPbbDWaB/IsvLWL44iPA5AXg0t+5gu77rw/Dt6cIK8bJ5fsRuCCGxOFne0rcSXvs7Xrs3G3MteDMDiF0agJtouMi+uBr+7cnl4rQ+W2qzXxTBCXG4j1uw90rA6kpG44sQm55MSfelL7+lL2MYwVSy7FaWvcBYthUGkfVv4gfr0zsOYrtQEaoiFahsyZ5U2aAY/NdEOM7sN0xfJxYhck8W7I+qQegoPyIX+OsyLtapNQju7kf4cj9bbvleQHO+8kpnPO89P1l34300mPxnhBAdzz5cD84NZD6aY13K9h+sgo/F3hO0935zn3lY8uVLuK33T3Dd8GLUdnHxz4+nYXbTgLB/FIG/xeDdwntoagMg58ZK+Et8cLvyfunCi94OIvp/7NeMeX8y+h0Z7cS++T/3Td4Pf6CNyamydWAYgUtiHFPWXcex+3MxYm/Uj2vGsv+58D8RhverEsQXpA2SuZ+fjcA7i+creA9eyXtwP9oTZpsTQoj9syG7ZR1L/oc7iC1PwDF1uLQRv4jXfdIye4+/ADcvmodJOx6Le7t3w24Vr+KwVdWFGDengdePnYFA4c78+/Bh8bMIfKfEYQVbGErWs7vbcD9Oik4zVe3D4/BuLUb4yDKEf0GB48zA2o8PuZ95SFzKjMEBpYitYAr2YvZn2hhKcb/AReIClo0tgjuYApcajT58eN4cBf5dgvA+ZYg8CPhuZCCQijlsFzYfvLGfsvx8P6xzonDMAmSM505kev43fAgvZqBxDH8+Kin8ps8oy8fy3PWZ0/feHD7AT6E9+zO78RGDjKuyW9+3jiTHnhS2Q+n7ISWIPrTxkoLVkzb3oxi0jLEx3WIyWRxC5IzSOgbOzygYhhH99/2pFvZylh3EPg2DC2vhG5QFg0Y9WOjb83Bc3nU17v9iEWob957hEwX13DDs6UUI78d+x1K03kk61Br7DK1tONXSvdCSr8kG7B2AxGUliHyP99EuHIvRLDBB35Uca95biSoGj2fy5yPJsU74k4f3De5f+AFi3XZAl68n49YKBotNDz/HbCDHoaRpVMD7uz8FdBz7PZWB8c4MZI9I1mE84z3JIOOIMtQeyf57ReD/cTISNMH0ZQzqbqY9huHZDDA/T3baXFmcv3/zef/s2MSGfvzdDDtwv+YtcR7Hv5zB5WHs8yz+opzKz3s3qT8mBvtj3jPm9+IE2rWC/bbEPmnW2tWv4qb1vXBo+RrctmgWvmzKSJ9FoAMSKEzxD1LY7uasaBwfSldwBnZpCzm8uoceZ3itLPB5UwKIz08KwXKbMyDOKI5hQPBUsH7GHufD+FGK8nco/nw4WntypvZxoD6bUGMjPrFBkK0DmEGgeMde5vCY2dpk1rM4YxmSvMM8zmwmsb4xbQkffjHOZHpv5t2XcJB4iDO51fQhwdnaC2y/H9vNZnmDNlqcOdrb0SBe631A8U9lFJJmJa7kQ/kkZj3SsgGtWhylTa/XM/U+YZvb0B5zxw4ln+0paHfRxgg/LySf9104ezXptMUOHAzsdSz+M6wfpi14AndWZ2mY8ZV22L3oazVF6aPN/xVq6V7Ixlf3LY6biVxqeS8solgzG5TdYWNAl/7oy0i1S9kADMnkCjNEkW+VI/ryxlGb96Yfbg17ivJ+fN2GvV/y92gx95S8xPEyZdUcw0kOLJOVSB3MSliDOJYmYP2KNi9MaztjGe/Hj9n+TmyjiAH0i9Xw7chx2JFtzOf1TDc4FHp3YtKe5ez/NQaL+zcZ02XGrqSTzBZ5a1r+PUyZa/m2wbdLHES8HtizrJQr/zpEoOMTKMy0v5nND0gOHp871u787PABmun5X2MeTHxYmQfV2uYH3PuyySOBmwStHgwARnNn/eENfRk1rROwbh48Cu2GTXdGdJPPR6sXfxjOtPd/OftPHaXU1eLkB/NsD6fZYuzORqTTLtnoR+aEnXM4azyMszym/eHQ/oCvPkuxUeXGJ7znmWreltfeVIVAdz6on+TnWynMbdHiTH3EyCQVl5nvKcTdaVuIKd+HqmCS5nVHEUdpcaZGMp0LYGS/E/Gv7Yrx37n/xB/WVqfQZ6qcdo4BHJcXrHHM2kwIw+KMNHFbcrmhlStbKrZauBeQja9192jy4OQ9q4CN1Z3Q7rh+QBmemPMoKrY/GTf0m40Tln+NDPP/jOZ769P6rWSCn+l/k9nxunF2fzGXZMySgxmzIn7/iNkZ/ujFHcSvCsJ3dhjBs3mDLGcQd31ySauFMm82b3CKuTWSgs9lG/tbXIrj77H3MdN2zI6gjL9Laxrsqft5aJMg6GsKfpNTLbKv8zqAvQYehqPCr+L7SwfivkEH47C1T+GlbCFlJKeTIrD1CRSm+K/gbGQ215J345OA/3enNCP8ZnzMzGQdU+67sOLnaQ+7pmPXdLJl1r75AHJfZlr0sY2vs9by3KC0i7gOn8qJe9/wIfU214N/vUHaGnrLRuSb2tLU1gyfrUOZtj3ARvScUrirWGFYBMG7mqi3+Zip/whF8HamUW9n+WCuEd/DtdfXuMwxK0NHuThFrt5q7kk4mfsqmnsIN8vAwQ7bnIiHBti48+OHcF9VWoCVjW0rKVbj+WVR0A6hgP02AvdV+m4yEOZorl8ToPnSCimIqcNr4V5ANr5uaKmZH5oqXl21Mhw/+LvYce0L+MWaxYi4H+O4EUfgzFX/xv21zTnRuH3LZD+Shwl0vYr6YNY+nyl3lxmDE5npIhfrFK6379Nwbd2eEC6NxbikYF/AzbTnx7n8Vb8XotmyT/l72D/O7A5n+PcHYB3OFH65+d1ldMFsASo5Hgyi2FtdRxaDJqQHJzxXF4w2ca1F9qweKtsX1/cJ456PpuO9mgW4pffZuHr7IXh7wUJUNLikn0SgwxEozAyWmWGYtcoruFHufK5v35VJ0ZJjGWOg8ChTjudxJjOcT44QHzJ7M+08tLWxpvA/z5nz93ldSuQ5U3EO5OzFzI6mcWY8kg+znmyHQuIcWn/etFqXTt2Vs8t9+bQyz7JSppmP5DJBtqHaOj6Ee7I9bvrL+jCZjVVM1TIVauyxj+bDtSmWzxmUDGCWpFvjVq1d6YfZAGdsjRrn+JUSw2RV+5JqhG7Pbg9BqzYv9CPxDWf+Z9JHEx+Zdek9aW8qm2MaaIaBv3Qf3D64F15d8Dwe48awcl+o/ouZn6bubmSH4cLUtt2TvhofTWYiQtbpMVIz/WIFf9W4dm6b7E2AWZYDOINNdtDSvYBsfN3I0LQTJgg1wji4ser16HkIruzyBW5ePA+rWb1q3Ru4YU0PXDxkVKN3/2E2/D3FDMt+G3diHcK9JuYVwu4c/8M5EzebUE2WrJiBwFLeS+YeCPGePyItpcZZumOyS4aDOW0yOmbJwpjXUlkNxf8rZhQO5O/VNP4ciME3hN/nm3b4OzqNwfwpvAeYAcIAlh3EmGBqqyPa4u8hrD44d+gecFa+gnvNspC3FhMWvYN1vQ/HJV0yBObsWocIdBQC2cpJR/EnezvNeu2L2cU+7r+LuVeOM+O/Mq1N4fMWcuPcla3/8ntvMP3dk9fdZtLhvG41+3ycs1Vj5SLOfO5l2X3chc2UqWeENSUiKzmrvdKD/xLOmP7Ep2Ity6ex/qQs3VvCtU2+i+R/gjuyKcaJ8ZyFv0ttPpH7G85hJ0E+oEviCD7PWe/X3CT1U67Fv8S9CftyJvtYFCad683ig7XpMshn3NfwSg38z1UgwM2D0eO50csshfSJw8cNd4Ee9JH7F9yHmcY1D+W0w+pBsevLfk1skKUbzVZLcI/Eb0KwLqe9r7Nds0dhDmfjv08bk4wMbAzrOQIjnG7YdeQvcUZaB4nIezj5vZcwrTXjdqMYXl0vXh6zQokbuckuPfuQsV92NJvjN62Wb2NwvXoZGS3heBuhMkdL90I2vjYLigUMdBMPOPBfxz/SZAIBvp0QfWAYLh88DEuX3Y+JkZTDNXhp8RScNvpAjO+9AOd+XVU/Tiaw6s97hoKemlWnunM/tODcWYlAH/J/lvf6C/XhTOLvQb4Bw3v3IPZXRV8X8fesV/Iqsxw2ln8z4yp+pzbXvVVyLWf9prilMr4R486lBX2ZpeM9Bm7A9XfnPWr2FfBw7yricgI32E6OcLe/2V/D3f5TU+FVyuIM35tlz3f6tz0C5/ln47xlyzdsBo1Vv4Orv9wFDw/ZB0/OnIKP0gO/DM3rlAjkKwH+dnBxt5mjeGYCtaOYW9MhAiIgAmkEzKt+vk+ZPftXdgG04ImACGw9AkUzK1AzqnEmTL+5W2881LMIiIAIiIAIbBUChZv23yq41WleE9iWyxfHMaWfwUjPvHb4zxy8wZChbZ0SAREQgfYmoLR/exNXfyIgAiIgAiLQjgSU9m9H2OpKBERABERABPKVgNb883VkZJcIiIAIiIAIbCECEv8tBFbNioAIiIAIiEC+EpD45+vIyC4REAEREAER2EIEJP5bCKyaFQEREAEREIF8JSDxz9eRkV0iIAIiIAIisIUISPy3EFg1KwIiIAIiIAL5SkDin68jI7tEQAREQAREYAsRkPhvIbBqVgREQAREQATylYDEP19HRnaJgAiIgAiIwBYiIPHfQmDVrAiIgAiIgAjkKwGJf76OjOwSAREQAREQgS1EQOK/hcCqWREQAREQARHIVwIS/3wdGdklAiIgAiIgAluIgMR/C4FVsyIgAiIgAiKQrwQk/vk6MrJLBERABERABLYQAYl/K2ADpfvjpX3G4dougYaa9jb41ejLMXXIQJS0cv2G4gNrEfp7FJaIZ0ts43qBOAKvV8PXb+OiDn1mQBTBybVw/B3aCxkvAiLQgQhIiloZrGjVNFy1wsXpQ/bGrnW0bAzZ5nCc4/sE45cuRXUr128onu9HfIIDz8v2gk5Wzwj3mzXw9c0TvywPvrsqETi8UAckT8ZBZoiACGwVAhL/VrHHMH3Zy5jo7Inrt+2JQHA3XLtdN0xe9Dpej7d6cUOFL3yIv+YA0po2QFNVERABERCBLUFA4p8FVS+xGDcvmod+2x2Le3c8ELtVvIYbVlVnp+Oc8fqfrkLotUoUZUj7WweGEXy2EqG3+PVsNfwHZBEdFHMWPYl1h6UZ/10uKzwSgW1GlLNa+2c1CL7KPt+qQvD6KOziZN1+TDG/zhRzahVjWATB58KwfclyXwL+J6vgPz2CwMO0exLt+n0MltUKqJIEfH+sRuhN1p/CPv/KPhnrGFucG9nO0+yzNA7fg/z5RZafnahvsBV7rFG048mkH7+MN7Yj6MK5rIb9sdz0eRHLU3f0UTUoeiAM/43k8AT7fCgMp1d9l9b3ec0LXD4YTdsup820J3RLFksyDtmwrcDFYQT+wete4c9nJP1g0874SgTPcpOg2PbN/HwSx9Nc9zjtu5f9cNnCf2Etx4Cc/kCuKXttjtklbNPcB08yQ7Jb2n3Ql/fQrbz2fyx7idcfleqjvivnOvZzcRT+240vrPM0xzPYynipWAREoKAJFK7496FY/SwC3ykUjCwelGtXv4qb1vfCoeVrcNuiWfgy29sm6kNsbCnC1/s2DhYotL7L4nBvZvl+ZQifHULi8ywarnGQeIticUhKeCg0h8bhTfbDpS6YgCJwgoX4mWWoPaIIiV4R+H/aIFKt9kAhcg4C4ufRrkPLELm79eUK60iy7OlHhPXDh5Qg+lDyGs9C4kq2M5Z2VDH7cSZ/PrIUkftNZNDKESQfBi54pAS1B5QgVpuAnbbJwj6vBv7hDqLfo5/Hsf3dKPbHponmMBfefcWInMRrP4/Bd2K9aHqPFiN8VAniH9K2P5bU2RO+OACvsaZmNs52aQPH9Ke87nw/rHOicLLZ+MHgyX2QXP4D+MbQZvJwd4/BLk92U0bf1oYQOYBsHmGd6xjImQCN/fn+VAt7OcsOIlvTJ4MH36DG5tmHc/xvpV9Hss4v6EtbslKZPdVZERCBTkygMMWfouK/mzOocRTFKzgzvLT1J6Xl2wbfLnEQ8Xpgz7JSrvzn6HA9WINcWEZAvnLgLmxtim36pWi97IN1ULx+ds1Zt/NtG4lJ9VbZ+9GfyYH6QKLaQXwi6+7Lum0w2n00AHd9vY/esiwuNEFHFwrjdhTfhAXvA4p/NmLaEsYhcQqrD4mn2b9rwX2UwU0seYGPZUewq3uDcFfzXAUDoidt2PunjeU8XruMZQxA3I9tWNttrkGmLcOZgZyJMZZwvGIcu94tOZEso/3eF8mvz2141fx5Hce+W7I8ynH6j2HG80+TfTn9MwI/NAZnewZNd7HPCD8v5Li+z4zHXo198aYEEJ+fvHeWs/02xHpZWK8qIiACnYxAKtnbydxqxR3O+u0ByTp8Xlq787Pjg9vsAzOAvQYehqPCr+L7SwfivkEH47C1T+GllBC10l2zxXE+8K8Kwnc2U/9n82G+nA/560OIz80iAJjhRyLIVPpwil9vziCX+zm7NT1Rlbryv0vT2ljLn8t4PgsNr7PVCNDXWdiQ5pj3fAjRbTn7v4mp8O4U2yf5+VYK1ubobTltXk8hS+l5BX/eIP5GOBls/K4KTqrcz/oLODOmn0abvVr6kEoExPmzk/rQ7Ii0XmCaCKdVM/dMFkmMOjtYt06UzRcDkjo2qTGJ0L7aZLsmeKrkz11MOf0MMe3/EJdiksUo4uWLUx/qv3tfZju4ja/TJxEQgcIkUJjiv4KzxNkWbLOuyv+7U1oSfiBUti+u7xPGPR9Nx3s1C3BL77Nx9fZD8PaChajYzPvGmxlAjGnaGIXLvqAGgfPjSFzgb/2tAM4UE68DgcO4bNCTKd9JwaTQUkTWMaDpkSZ03fhzpZk901gjPEYnUtoeorhk0vm2inaEM+LbmXq/nW0PjiJwTxi+10oRm5UGKNOrDi3ZU0ERLKbtxl5Tr4g/p+5YI5BrGDxdwvT9/M0YhEy+b2JzZta+wT7TLkW61SPVf5C+mX0ZXOUwQYpVajID5mp+X83A7uRQQ9YjU6Npw52pWOdEQAREIJ1AYU4XzIx7XAkiVxQhen4pone1MHWz+uDcoXvAWfkK7q02U7e1mLDoHazrfTgu6bKZL2ZzPdc5LAHLPPSNuJkZrJn9Zfkgd19m/4dxnXtPEwg0DKU7lQp5CNeizfvwZiPeyWx4GgMcI+hrzeyZmY4dzG3AgONg7nlowX1TK5vD2pVp6iE03IhZlP/hzBYmTZ06TDahkqI2uIlzLdnzGW2uZbvfqr/GOpgZjhTyGH2exNf1zuXGwtQMeRjr7p4lPFYz4mfe8xEAAA0TSURBVGoNbWuU0zwNb5kFayTH0zDoQ1t2ztIW02TAjBOvNTP9sfRpPf1bzPMLmeH5hjP/M1lmfGeQaO1JDgOat0MlIiACItAagcKc+Rsq1TbcF1uLffhO/7ZH4Dz/bJy3bPmGrGys+h1c/eUueHjIPnhy5hR81IJ+WCdyT8E5rMCZnVUSR/B5Tu2+9iP6U6brKb7WWO78vorfzVuA8zjDu5az/tZGLVVu1rSrmWpfxXXgrxsu8l5nyn2HWgT+zffYuWnMfTOI6H1JhY9waYEb+AJ/roL9BRl8wnVmE3hs7kGx83EjWqAH/ahhuw9z+SJ9Rs6AK/GAA/913LVuAoGJRYgYm1qyx6yDjw/Af2U1guOoqIsZuIRTdLi0cEcxYhdyc+OTkbpNm94y9nEHsw9Z+cJ9E48E4VzPnf/H84I5QUQuynLTXzPte88GkTiISzgTo/BM4MI1+NTEvplLGk5Xcv9Ad177Bu+VVfT7at4fdUscNuK/CcG6nGWvc38BMx7uHI7h7zcz8GzVIFUQARHozAT4bGp+IbR4ZgK1o1LbkTszhg7qm/lDNXdSxCcxe/HfrGWmgzors0VABERABDaFQNHMCtSMapzibW3quyn96Jr2IjCcqf1hJuUv4W8v5OpHBERABDoDgcJN+3fw0XOuZ0r/AKau/1qMxNoO7ozMFwEREAERaFcCEv92xZ27zhK/4x+2yV1zakkEREAERKCACCjtX0CDLVdFQAREQAREwBCQ+Os+EAEREAEREIECIyDxL7ABl7siIAIiIAIiIPHXPSACIiACIiACBUZA4l9gAy53RUAEREAEREDir3tABERABERABAqMgMS/wAZc7oqACIiACIiAxF/3gAiIgAiIgAgUGAGJf4ENuNwVAREQAREQAYm/7gEREAEREAERKDACEv8CG3C5KwIiIAIiIAISf90DIiACIiACIlBgBHz2mESBuSx3RUAEREAERKCwCDTVep/7aXkLBCpaKFORCIiACIiACIhARyDQVOt98LyOYLdsFAEREAEREAER2FQCTbRe4r+pIHWdCIiACIiACHQUAhL/jjJSslMEREAEREAEckRgY/HPUcNqRgREQAREQAREID8JNFnhV9o/P4dJVomACIiACIhA7ghsNPOHNvzljq5aEgEREAEREIF8JNBY6zXzz8cxkk0iIAIiIAIikEsCG838NfHPJV61JQIiIAIiIAL5R0Br/vk3JrJIBERABERABLYogSYzf/1t/y1KW42LgAiIgAiIQP4R0Jp//o2JLBIBERABERCB3BLQzD+3PNWaCIiACIiACHQ0Apr5d7QRk70iIAIiIAIi0FYCmvm3lZjqi4AIiIAIiEDnIqANf51rPOWNCIiACIiACLRKgGn/VuuoggiIgAiIgAiIQEcmsNF7/lL/jjycsl0EREAEREAEsiDQWP2V9s8CmaqIgAiIgAiIQGciIPHvTKMpX0RABERABEQgCwIS/ywgqYoIiIAIiIAIdCYC2vDXmUZTvoiACIiACIhAJgJNNvxp5p8Jks6JgAiIgAiIQCcmIPHvxIMr10RABERABEQgEwGJfyYqOicCIiACIiACnZiAL9e+rVy1NNdNqj0REAEREAEREIEkgb49B242C4p/bv/EXy6M2myv1IAIiIAIiIAIiEAaAf2RH90OIiACIiACIlDQBLTmX9DDL+dFQAREQAQKkYDEvxBHXT6LgAiIgAgUNAGJf0EPv5wXAREQAREoRAIS/0IcdfksAiIgAiJQ0AQk/gU9/HJeBERABESgEAlI/Atx1OWzCIiACIhAQROQ+Bf08Mt5ERABERCBQiQg8S/EUZfPIiACIiACBU1A4l/Qwy/nRUAEREAECpGAxL8QR10+i4AIiIAIFDSBnP/DPgVNU86LgAiIQB4QKJpZkQdWyIRsCdSOKs+2as7qSfxzhlINiYAIiED+ENgagpI/3nccS7ZWoKa0f8e5R2SpCIiACIiACOSEgMQ/JxjViAiIgAiIgAh0HAIS/44zVrJUBERABERABHJCQOKfE4xqRAREQAREQAQ6DgGJf8cZK1kqAiIgAiIgAjkhIPHPCUY1IgIiIAIiIAIdh4DEv+OMlSwVAREQAREQgZwQkPjnBKMaEQEREAEREIGOQ0Di33HGSpaKgAiIgAiIQE4ISPxzglGNiIAIiIAIiEDHISDx7zhjJUtFQAREQAREICcEJP45wahGREAEREAERKDjENA/7NNxxkqWioAIiMBWJ2B9Kwr/z6OwR7iwojbcGT7EbwkhsazBNGs061zMOsNYp8JB4skgYvf44CXq6zg3ViJwtJfRF29CCcI3OxnLMp7sFUXw+TDsQJPSiB/R/YqQiPL8oAiCEyOwMyle1IfYEcWIr0m7fucwQg/ywueLER6f6aKMlnSok53Tqw41BDJWBERABDoGAWvPMIK3RWEZoa204IU92AdE4UwKUvyteicGRBG4lWJcwo+rWadrAs45NbC8EkTuqhd17wsGDXNY7niwdmCAwP95n9rwGA94K9vIImbB/YztBmjLYJcXs63P2FaU31PxRYSf5zpwWc3qk4DVg9W+og20DzGWxdvYZyeoLvHvBIMoF0RABERgixOwXTjjKPx+CvRTRYjc6IcXY68D43CKk8LPj/aJnPGXss4k1vkNK+/BgOFOnjuJQcI/OROvBdw7GQjcycpdYghMqoVjZt9nJmfpbXVknR+x09lPels/aNLWCmYBfsg6xr6LqxA804X7aDEiDxTuynfhet7WG0z1RUAERKCQCXAGbw8ngLiD+N1J4Tc8lvqQmJsEwwDB3oWzb4+z8VeZ5jc/Tmf5Nyw31w8sZID55btm/vk1HrJGBERABPKTQE+m541irGX6fDXT5weE4T/VpNl5zA4gegcLLabxu/Ezxd8zKXVzuEyrm/X03szBm7KOcLgp2zuCsZtmo8R/07jpKhEQAREoLAINmf16v/tyGWDv5GK564fF8rol9qb1OiKl9QxeGNdY/N5ZD6X9O+vIyi8REAERyCWBb5Ib47owfc8Nc95/ilG7L9fWI2mdmBm/meWbDED35G47LgVY3XmOZVibS4O2YFtr6AffTNiQvdiCXW2tpiX+W4u8+hUBERCBjkRgHdP982iwLwHfOXFYZuN+04kxU/zuJ5QVir99COuYH8dwQ2Av1l3P65d2EIdruUHwwDJEJnReiey8nnWQe0xmioAIiECHIEBhT9wZqNvhb51Yg9CrVQg9FYbT5P1694kA3CrWOaQWoVe4s/52viFApXEfD9Tt9M/50TUG/8PVCP49AscsZBfH4X+Inx/i64b1G/zb3uVI/l2A1yoRurLzvgMo8W/7baErREAERKAgCXjvhhC5gO/0z+QSQIjp/BB39U8JInoLd/an3qlfzs1/v+Qf/ZnNOuWswxl/4u/FiN7bhj/c0xa6fmYZhnIpYigX6Y2i2VxyGMbPO/B708xEtu2aZQsT1HTiXXFEw7+y0MxRPDOB2lHlzZTqtAiIgAiIQD4SKJpZoWd3Pg5MBpvaY6xMHzWjGgdfmvlnGAydEgEREAEREIHOTEDi35lHV76JgAiIgAiIQAYCEv8MUHRKBERABERABDozAYl/Zx5d+SYCIiACIiACGQhI/DNA0SkREAEREAER6MwEJP6deXTlmwiIgAiIgAhkICDxzwBFp0RABERABESgMxOQ+Hfm0ZVvIiACIiACIpCBgMQ/AxSdEgEREAEREIHOTEDi35lHV76JgAiIgAiIQAYCEv8MUHRKBERABERABDozAYl/Zx5d+SYCIiACIiACGQh04n+zKIO3OiUCIiACBULA/GMuOkSgOQIS/+bI6LwIiIAIdFAC+tdYO+jAtaPZSvu3I2x1JQIiIAIiIAL5QEDinw+jIBtEQAREQAREoB0JSPzbEba6EgEREAEREIF8ICDxz4dRkA0iIAIiIAIi0I4EJP7tCFtdiYAIiIAIiEA+EJD458MoyAYREAEREAERaEcCEv92hK2uREAEREAERCAfCEj882EUZIMIiIAIiIAItCMBiX87wlZXIiACIiACIpAPBCT++TAKskEEREAEREAE2pGAxL8dYasrERABERABEcgHAhL/fBgF2SACIiACIiAC7UhA4t+OsNWVCIiACIiACOQDAYl/PoyCbBABERABERCBdiQg8W9H2OpKBERABERABPKBgMQ/H0ZBNoiACIiACIhAOxKQ+LcjbHUlAiIgAiIgAvlAQOKfD6MgG0RABERABESgHQlI/NsRtroSAREQAREQgXwgIPHPh1GQDSIgAiIgAiLQjgQk/u0IW12JgAiIgAiIQD4QkPjnwyjIBhEQAREQARFoRwIS/3aEra5EQAREQAREIB8I+FozomhmRWtVVC4CIiACIiACItCBCFiA43Uge2WqCIiACIiACIjAZhJQ2n8zAepyERABERABEehoBCT+HW3EZK8IiIAIiIAIbCaB/wdBxDI7quskCgAAAABJRU5ErkJggg==;" vertex="1" parent="1">
          <mxGeometry x="290" y="70" width="300.59" height="170" as="geometry" />
        </mxCell>
      </root>
    </mxGraphModel>
  </diagram>
  <diagram id="wlo8xMONHgkcR5bgHWKt" name="Page-2">
    <mxGraphModel dx="1839" dy="567" grid="1" gridSize="10" guides="1" tooltips="1" connect="1" arrows="1" fold="1" page="1" pageScale="1" pageWidth="850" pageHeight="1100" math="0" shadow="0">
      <root>
        <mxCell id="0" />
        <mxCell id="1" parent="0" />
        <mxCell id="qRebmksec7wM-__XTCwP-1" value="" style="shape=image;verticalLabelPosition=bottom;labelBackgroundColor=default;verticalAlign=top;aspect=fixed;imageAspect=0;image=data:image/png,iVBORw0KGgoAAAANSUhEUgAAAgkAAAEnCAYAAAAjLNAjAAAABHNCSVQICAgIfAhkiAAAIABJREFUeF7tnQeAVNX1/7/vvWlbWJAqAiJFRDCKEiUqduwFe000xl5j+cXEWGNJTEz+JtaoMWoUe+8KCCqCDcECWOgogtK3TX//753Czi5bZpedZWf2+5KVmfduOfdz77vn3HPue2MBfhc6REAEREAEREAERKAOAU9bECmeGWqLalSHCIiACIiACIhAKxJoEyPByFs9oqwVxVZRIiACIiACIiACuSZg57oClS8CIiACIiACIpCfBGQk5Ge/SWoREAEREAERyDkBGQk5R6wKREAEREAERCA/CchIyM9+k9QiIAIiIAIikHMCMhJyjlgViIAIiIAIiEB+EpCRkJ/9JqlFQAREQAREIOcEZCTkHLEqEAEREAEREIH8JCAjIT/7TVKLgAiIgAiIQM4JyEjIOWJVIAIiIAIiIAL5SUBGQn72m6QWAREQAREQgZwTkJGQc8SqQAREQAREQATyk4CMhPzsN0ktAiIgAiIgAjknICMh54hVgQiIgAiIgAjkJwEZCfnZb5JaBERABERABHJOQEZCzhGrAhEQAREQARHITwIyEvKz3yS1CIiACIiACOScgIyEnCNWBSIgAiIgAiKQnwRkJORnv0lqERABERABEcg5ARkJOUesCkRABERABEQgPwnISMjPfpPUIiACIiACIpBzAjISco5YFYiACIiACIhAfhKQkZCf/SapRUAEREAERCDnBGQk5ByxKhABERABERCB/CQgIyE/+01Si4AIiIAIiEDOCchIyDliVSACIiACIiAC+UlARkJ+9pukFgEREAEREIGcE5CRkHPEqkAEREAEREAE8pNA4RgJ3ih8k9ehaCb/ZvDvw3IEHquC98D4xveM5cK5cx0CN0SzL4t5PPdQjk/L4dvfrck3JAT/x+Xw/iL7otIprT3D8BweA6zm523VHEUR+D5cB9/hGe1qQQXWqZXJ/jJ99in/JlbA/6cw7G4tKExZREAEREAEWp2Ap9VL3MQFuuMDiLxM26c4DvvoEDx/qYIVKkF48ibSrDYNjEOjsCZ44W6cToW1Rwje/n7EXnU2uqxN3E011UccRK/yIx4mnMFReE4Pwj/AReh0nqM9pEMEREAERMAQMItUs67PXNsbpWLOG1WeGx1XcEYCljiIveskxlRsig3rhSo4R1JJv7PxSjpRaHOP7224O0fg9PQiury5mTtA+riF+FQPYhVs62QvDYM4AheS1zY0EmZ3gPariSIgAiLQBAHLiiPuxmDzX9c1atsYCi4sK8bzcXgcF7FYboyEwgk31Ae5ykZ8ES90pbWVwc/aJQTfwxUI0GVe9FYlfL+OwcokwdW/fU4V/G+Xo+hdusAvppHRUlILvIjNjcE5oJGwR98ovP+oROB9yjOF9V1Hl3tJqkE2B8AjyTCK/zi2Y5cgAsY1b1z0j4UoFz0VN1POWyP1EQAGMLzxYQW8Q5KXrZ+F4Xso1Xa6932XRWD56mTdPMw8DInsG4Pnesr1Xkqu3zYQbmFoxf4dQwfjq+AZWL8Y2Z5159BLwvKszJADvULO79gfE9hOE0a6Nwhnqw1LtHZk2+5n26ZS3snkeEsIdo+MdN3pqfgb2zOF198vh//vITi9Mq73SLbbd0IE3nuTjAIvsk0jN9IFtKGoOiMCIiACWRMYNWoUttlmGxoEScMAoKfcNgZCDJ06dcJRRx2ZdVnNTdhS1dfcejZNeqNsutLeWmqBxlbyGBmE7w4qjxVeRP6vGOEH6W04qwq+Y2uUuHVsNXxn0mIbF0DoSq5oh9HNP7KFTYjZifCAfUiEnVpPGV25l+I+KqJ+NqJ/ojw30ONhZLyWytsYNnGev7QUwUNKEX6NJz7zI3Ro8nvwYh/bxZX4lyx4G1qZSQdK7UqGcDBVO0ljaXMqvzuC/M62X8667vXAOqYa/kvrUf6syrmYyniFD+Ffs74LGOaozxNiDITzyO8QC5GLixCdX08bm3HK6hqHxTbHf0hlopHk/IWG3KEu4vcHEL48gFiUzEw70oaUSbojDb97eK6cbft9MULXUd4YjbO00eLQ2PpHNbzbkucNvH69H+5g5rmNY8GbIaDZf3JqBO69THNoCaLzYvBewzSF53NrRq8oqQiIwKYk8PHHn2LHETth26FDE54DFxHEGI8tKyvD8ccdj0mTpuRMvMKb+jjhW8UuXD+V11FcKZZ5EP1vSguYVfk5VNZzAgheQQWbiHl74HaqhP9knn+WBgGoWI6l0pxQhAjzmX0E8W9Y5kvVtSJBzekRdyK9CRdSlqEsv44+to/n+VIPwqcVIfZTUp7YKheBu8Jw+jJEsYTnVjBkwX/cSv4nRIPnB37PcEy4s7n67kljYDPKupLt3puVzKXrnnntYWzk1z7G/NmGw1gmNWKYhk9sTartnWPwn0b3/j10+a/LaBWVJWb7Eb6LfBILaSrXzzKum4/GQDiVBs0JjIpdRANhTgvcXcxiFbEC4+zZkit9enXcF8liXqqukWF4d7cQu6QYkSnJ8mOfM+2LQXj2oXyv8FyiX+l9+Yr9+rt0v5IFQ0xIG07bc9PncAvRCwOIfpAsJ7yKoY17yWQn9suHNW2LP880nyYtuug4Lzx30wDrzfJMX+gQAREQgTYmYBY8Tz/9Ag477EDMnTcPkUjSc/yLUb/ACy+8ilWrVudMovrWtjmrrC0Ktn5Fd/JUuqUn0d18movo5VReVPKJI8DJfjuuSCdQ8WVsiovPoJLtzWtUsiiisu1PnTU9rRx5biVX4mml1ZJGrKICnmY2MNbZiUflZo/kuU+p0BMGQur4kvUxNm8PydLNPZfpowyZbM38ZVS0f6Yn5DiWa5T4UBpMxoigpre3pWXxDdNmGAPxT3jNz7ZvVadhLj0UkxvfIGmPZT0MQbhPUKl+3gIDwVTpY6hlPPuL7v/AY9Vw5tF7c3MNe8PHWsd9Jh9nlF/hQfxbtmdYylLyUf6fsV/H1+7XRItSyK2hLIebJOOZcn7JcoKGUWYoiEbY3IzbYi2/m9hfWR0++ioCIiACbUggTs/BK6+8nDAQnJRbesKECTQQVuZUioLzJLivFiH8DCf5XlSWXL17/xRC/KQA4lXkSA+DxRbbl1Sg6OIMrkb/WFxyGve1CVHwu0vlsP6gwkTmKru5XcL8sVc88F7Nzn2rjjI1ymdkNQIfVdculYvgWGmWFZlwAo0Yxyg7JwqbhoC7A/dR+B1Yg7gCfoo8WK1VQqOjgh8ydWJlUgmiuE5dZnGfyaAeUaxh3Cwz1YZzAr0hLxQjlg4R1JO2wVPm6YbfMoQQobIew6dRjgvCO91J9qHJ1IWCdOEjl+/V2XPBfnR/TBlRRnbyclfXYZtRqWVYhviXWQw5uBwXVqcMY8x8rG97R8NFN9g0XRABERCB1iHA+ZF7EEyIoUuXLvjlKadgwsSJ+Oqrr7iZkcuY9ZsZW6e2zFIKzkjAcsaz6RkwfubwD3TbP8A4/FE+hMZRUVZTIdITH7+Hj0SmXNfrYRjlsJR/vtT+BeMCT+92NK73wEbC/4ghhxhXyrtmBsBZJo0PdzwNm39Tsdet4qcsNZOJ4dPV79mWK+ou3AX7EuPtx9KNPpwGUQn3RJgwAD0JLg0CdGYtZqGcNhRoOFimncaIqntkGhN1r5ki7ua+hmddeB+phPfKCOKXMDzTRJ4NijF7Kj6nkcOnG+LTGUbZgvsPzmDo4HUadia8spZ/33FfxKUMmdQtuzzFx8hOxW5tltFndSpyzdMTfv4Z/GkjwNhOxsBIl1Mnj76KgAiIQHsg4Pd7EQyFsRkNhKOPPgaPP/4sxozZmwaChdlz5qCk2I+qqvpWNxsvfcGFG2oh+dyPyPvUiSdS6RgFYVbcs6gSB1CZLKBCyvxbyO+GsUmzkHm2ydBIJgQxcCNhhxhyGG/BPowr/LTuN8qdsW9rEOtaWkceI5tRbJlHhBlNO+o53C9YzlB6T0ZQ2X5E9/znlJkhB8uESn40GaiM57C7h9CQyHCd2z9nmlCyzfUU2+gpd40xLhxE/szHI35BD8ARdbV4o9k3vEgesfu4p6BnBJ6DkmXFP2UIoQdlDNfDZ0UKZJjyf0m2+5Nteg9CuvTUCHe/ohHmZdu3zzDFtqPXJUAuXxX2bbAhaJ0RARHIJwLDh2/H/QiHJQyEZ599ObEH4ZlnXsTw4dtjzH774YgjjshZcwp7djRu/ke5ut2CSmdfKoeEEuL3QxhL/yNX2rtRSezNa2dz893fwsnHHE2aZ+hgOZSu7x2ZhwaCc67ZALnxfRB/lXX35u79DOrxp7mJsJS77P/FjXj7Up5do3BO4vd/0+vQvXadiVj5NpR3DJXdAJbTu0bhmUcH470ZzihmnJ1PcxhDwR5DpWmUY2qzpPuKj+4qelb+zPaw7c7xVOxmo+DL9HJsTDjlU24gfMaCcwmfhuAGv406ZnGz5if0A53EjaTGz/WxD9HpcXjv5Nszx5LPLpR7LDcz3sLve6ZqMk+AsF/j2/JFTLeybaOZbjQ5Xcs0O6fSfM5yZvEtmFeRM40Jez8+LnkN+/wbMvl0oyRWZhEQARHIKYFPP52JZT+soIHwEtauNe5VqjO6Vp977iWEQrGEwZCro/DCDXVJTady+JJK5RQqhDfphv+Yj9FdZMN7Ls9x5Wtxde5+y1X+C1yCpnSu+xzd/934uNw/+K4AP1f7bxlFxace6pbd3O984iA2m4/TMQyw/uCjmOEzLXgvplHC9yNYfsqzmArfvFiovHYF7uv0jPycSu66SniMm3yOH8Ffsk1m0f0d83DsWAy1JN5UOJPGQoyPUXIT5HpTYhkfD7yY4YHL2XY++mdV0iAybb1zI4eB2eR4Nzcv7kGl3NKwQ7qpRuGP88BzG59GGM0ww2R+v6IE7rls9/nV8HBzqfsj++RD9tm3GXyms1/PZ7+ez7bRULBCJg3bOz+Vho+iRv+vCLiCnK/nWzjpzolPo3FzK59syI2Xrnbn6ZsIiIAIbASB6dNnbJDbGApTpkzb4HxrnjD+6wz/a2sWXVNW8cwQqke0wlI8N+KpVBEQAREQAREQgXoIFHa4oZ4G65QIiIAIiIAIiEB2BGQkZMdJqURABERABESgwxGQkdDhulwNFgEREAEREIHsCMhIyI6TUomACIiACIhAhyMgI6HDdbkaLAIiIAIiIALZEZCRkB0npRIBERABERCBDkdARkKH63I1WAREQAREQASyIyAjITtOSiUCIiACIiACHY6AjIQO1+VqsAiIgAiIgAhkR0BGQnaclEoEREAEREAEOhwBGQkdrsvVYBEQAREQARHIjoCMhOw4KZUIiIAIiIAIdDgCMhI6XJerwSIgAiIgAiKQHQEZCdlxUioREAEREAER6HAEZCR0uC5Xg0VABERABEQgOwIyErLjpFQiIAIiIAIi0OEIyEjocF2uBouACIiACIhAdgRkJGTHSalEQAREQAREoMMR8LTXFhfNXNdeRZNcIiACIiACIpD3BKpHlDXZhnZrJGQjfJOtUwIREAEREAEREIEWE1C4ocXolFEEREAEREAECpuAjITC7l+1TgREQAREQARaTEBGQovRKaMIiIAIiIAIFDYBGQmF3b9qnQiIgAiIgAi0mICMhBajU0YREAEREAERKGwCMhIKu3/VOhEQAREQARFoMQEZCS1Gp4wiIAIiIAIiUNgEZCQUdv+qdSIgAiIgAiLQYgIyElqMThlFQAREQAREoLAJyEgo7P5V60RABERABESgxQRkJLQYnTKKgAiIgAiIQGETkJFQ2P2r1omACIiACIhAiwm02x94anGLCiCjfU4lfEfGga4WYheWIvJxATSqxU0oxv5DzsT9pZ9i/xlT8K1bU5Dt7Y/zBx+A33TtgU6xNfhs5TRcN38GZsWyrMzqhgtGnIerO9W2lUMrX8D2sz5H4ndIrTLs3/8Q/HHzAdjKrsb8dbPxz3kT8XJ1tpUAgaLh+MOg0TiirBu6WUEsWPslbpv3Nl6sjrICD44YdgXu7V73VnSx5PuHsfu8xYhk0RzL0xe/GTgGZ3bfAn3sKJZVzMXDC9/EPWsqwZEEyzsCj4w6AvvVamoMn8y/G2O/W51Io0MEREAE6hKoOzPVvZ4/350YvE9WwjO4tsix33dC+E2r6Xb4ovBNCCN+fDGiy5pOvrEprKOqELjOKImMY3oAwbN8iN9bguD9cXjGVSELyZsnysggAr+3ED7Jj3i2em5MNYpuparKEMb9L2W83QE2D8P/chC2l2JQ07jLHMTHBRB5zIGbodCbJyRTWz70LO6PI/vug/O6FcMO1i2hE44dchzOtKbhok8/w7dWH5y9zVjcP2AN9p+7AJV1k9f73Y8unghe+eoOXLKypi9cN4qqRHoLg/scgzt7rsPNs+/B66EA9uh/FP6xbQjzZ7yDWdm0z+6H3293OPZd9xbOmzEXi9ENRw46Cv8cWolZM9/HXNb16le3YrCVAdfpj+t2OAhYtRx1Rki9raAZggMHHY/L/R/htE8ewSeRAHbsMxYPb3solk1/Cs+G2RIngDJ3Ia75+Ak8zu/Jw0UsHpGB0ABVnRYBETDLmII6uPK+qhThCRkTbjbLsE3FYI4fod9QWaeXcUZpt8cl3dtFqB4VgP2bKvi38yF4uRfUbTVHxEFkbAmiK1xYu4fg+0s1PF/RAzK9pWAtDOl3Gt7o48HUH9/HZUtG4D89apdlB4bh5C5r8N8ZU/FetdHWX+NvC2dh7NAdsdeCBXgtKwMogC5OED+Fg6iM1QPe2hzHbt4L0xc/jUfWVcDU8vz8d3HILvvhxLL3cM3aevLUabLlOPhuxURcseRTfJhgtg4PLJ2P3w7tgUEcpnNZqFHUNUaNByP67YMxlZNx8OpQos4mD3o7hpX6MfuHzzE9HGOeSsxYPgdfbLUbtvXTdRCOw/YUoYymz7JQGJVNi91klUogAiLQMQgUmJHATjMTcWjDznOuLYfHy1X6ZlHYAzlLzgggfC2VXdyFc1MlvDtRwZW6sB+ugMesiJ8tQug/XCmbox9Xyw/FELsXcE6KwepMXX5vMSJF1fAP9yF0Bcsxs7nN1f//KmE/VMdQ2VCc5BnmcY2szZy0rX2C8F0Wgd2N+ed4EflTALHFpkjK/+tqeI+Nwe7Kb8sdxP7JVf07VBTeKD0tQThlbCfl971C68mlUXV9CSIfNSRg6ryRL2wlDQOjfDfgS22XTvOOD7GFETiD2LjpKWOtbxi+f0Xg3sa6pjRRV+Kyi7lL/outF5M5V/O9txixQSZvyRYYGvsB/y9hICSPUPl3mGPvjh2KbbxWngVUy48yx8ZmvY7CS1v3xwC6K+aumY6/zP8IH0XIybM5tvczjFFRtV5Zu6zz0+oSHFhaBnvtmia7zo0sxAMLFqYktFAS6I/TtxiAdStfw8f1iGgHdsTVvaN44LNZWL5Bqxs44a7EpJWrcHqPHbHLiin4MOLD9r2GYVhwLu6oSlZieQLo5Jbh0K1PxRVdeqAsvgYfLH8HNyyZi6VZWSIN1K3TIiACBU2g8IyERrrL3hqInE5FRUvCKEzPTlSwHye9D7F0uOG0BsINpVE4/YsQPq6IBgEVSG+jymgcnEqjo8yL2FpW3J/KcXMPotNaPUhQ0yq6970MU8SvLkVoKu2S86vgu55hkjN9SUNljQeRC4sQX2TB2isI/59CiI8tonw8fzRX9y0JNzTCtO4la1sy6Eeb4buMK17y6k/rosRoo+zYxN3GXQHF3gDtnrVYa22BK0f+BueF38AuX5ZjtVuEbp7s6rAcLw1CC53dJbhlzjtY6myB0wYejP9tG8fBX3yMxVx9d0EQq6I29h5yGcb1XIhzpr6G1bSvuniLYKNpIyFNwewJeHiXwzHGiWDBT+Nx6rdfY1VdeHTs7dr3F9h69Xj8JqXcN0hS74kYZix6Dn8bdgqe+sWeMKZtPLwQt8yahGkpjJbtwHL98FRNxSVLVsAt/hmu2vo4/M96CAcv+iGrfQ/1Vq2TIiACBU2gwIwEegWurUDgylSfxWxEz6YbfF7ye/w9D+LV5jPj5vOZti+VFo2ErI4YV+UPelJudq6qjRK0PYjNC8HZnbHd16iU943CmupHLLuAOLANPRRvrw8QI/43eiBYTmOHNZLGyndeBKcmV+/xJ2ionMRz3XyI/mQh/oJvfXZ3Co2XSu4XoEGTMGJydXhodD1OTw3Lt/yU4ekiRD/IaMcChlV+7s9R7RH8WL0cs8NVCScSeybretzI5zhj2ucZ6Vfgum+7YbcRI3BE0Se4M6OoytCPmF25BuVMXZZ1DTUJ3egc/GHGMvQp2hInbLk3HmHfHzXnC2TaUpZnCH7FsMpLs+cmN01mXU8R9uWehMvsT3D8Bx/go6gfP+t1MO4ffiSWz3gaz4RchFe9gp2mZRRYNRmX+vvj3T47YOTiH/BB9tiylkoJRUAE8p9AgRkJ9Ar8i56Cd1IdQ3e6m7lcq8pQXGYfXiqakFU3BllWYrt7xhG3EXvTgecAGgf819mHxsI9zSh0ng/h35qQhymTsq1t3EBI1NyFs/kahg/Sk/o6G26MXxhCwE9csR8cgvdX9G5sZhLzO5+QiOa6l2lARc4vRowbPt11bEPjToBEMzb2qIpUI+wpJo6f8MCs+/EAC7S8O/KBkGp8zlBBS49IcCUWYQf09NHYqaziar+Ynok4Pl70P+y/yFTSHRdxk+aqSFWToYZaMjCutLRqWeJvepWNF0aOximls/DXipqYQ+euw7F37Bucti677Yrry+du3V/18uL1WdPwAfckmJjbZ8um4Nk+p+Okbp3w3NJ19cjqYln1KlR5S/nEBbO0HFlLUSufCIhAHhAovPckUNG6y6k4zd+PnP2aM982th3fzOX1TKTuZC/i23F/wAi62bvSs/BJFoo+PTAo23pZl1Puujv4TX11bQ5jSHShMOlqyuI0dvjFGDB9IvBdEUP8Jj55cHApgodzRV/Xp11PGzZ6nNIYw2rKz7+2MBCMvJGKpZjt9MHI4hrexZ22xLD4D5hRXTvYb3s6Y0hxN/Sqw9JTshP+PnQ3jMq4C7xFPTCQMJdw9e3yMZfPg2UYWVbK0ELysDx9sHNRBWaWl9dWvFYRtizugQHe2pX4NjsE03c7AceZpz/SBx8rCbNjzZ7CmsOLXTbrj+jaBfi8wT7yoAflGxIoqrXj2LJsePh0RO2bOXnOSjw1YWGrHgfgrq22BreqpA4LfcikOLxGexIyu0GfRUAEahEoPCPBrJqNZzv9l20LGZt2y7nyHtjgDF3/0FlJw+BLPn75xwisdxnO2GBTX/3Zmjxr5PmeGxFH1F6Wu5+wjn4ReHalnDavn8h651KGFSwxwHNhGkeLk4rTGk3DpXudmtaw3O7JzZdNypBOYBj6zEY+/mt0oGFb13hprDCzcfGFCnj3aCxR7WsWKyt2fCjhX5HNUA4rLEp893InCGPuodkYt7oUvx64O0YXlWLzkmG4esBQrFs+He/U8WQUdz0Ib/38VFzSqbbQMT7VUNJlT9w8cDts5y9Fv9Jh+OOgkei65lO+B4Es3eV4etlS/KzvAfhVWWf08PfByYP2wKiq6Xi8zsZI27897hh5Du7fonstBR5e9zUmRgfhEpY7qqgTNi/qj1MH/gI/D8/FxAwvAqzNMLzEi/kVP264LzSNxuqJM4efgwlDhiOzW83myLfWenFov1EY6WVncUPm0F674UjfDxi/2ngRXPwYsbFT3wNxU+++6Ocrw7ZdR+OWvr3w5bLP8EUzh3z2vaiUIiAC+U4g147oNubDfQY3l6Po5ppq4/+PG/z+l4WlEDV7Dhx4b+CeBqOgGVcP3Z+FJuQqOv4mMd7Enfh/bk2cDJ3c74dzaxWKfk199UQxgv+kPMsYorghDt8fKlBETeF+zc2X13PTolk8z+e+hFf4dMM4vi9iBdsw10a87jsfFnoRncQ9BM+Ww8snFmLXcjPjh010076Z70moRuDDaqx/T0ITWROXzcbFvhSw2GijmpV/w1ktbN77ZHw4eKuEQZA8+uPN3fZig1fj3s/uwvV8JPH5b55Cz60Pwh077YXN3LX4ePmrOH3hEm41zO5wI7Pxh1nFuG7gPnhm587s97X4bMVknDp/Jr5PFOFiwdLncZ7nEFw77Hzc6Alj/poZuHDOB/gmW8Uam4frv3w58TKl+0cezI2Q1Vi4dhZ+N+ttvF/L4VGCzbmdZGVzwxgJOddi3NdPofPA/fDvnfdCDz5ls6pqAR6f8xz+U5UUtGrNRJz2DXDDlifi3cF+RMLL8fbSp3DJdz81y9mWHVmlEgERKBQCnLH92U53LW5z8cwQqke0ZLtXi6ts24zmiYHruIg/JgA+8q5DBERABERABAqCQBZL7IJoZ+4aQZe/c3wU7lvcmyADIXecVbIIiIAIiECbE5CRsDHIB4fgf4ex9p50+T+aRWhiY+pSXhEQAREQARFoYwKtGURvY9HbQXVz+fz/Hrl6/r8dtE8iiIAIiIAIdGgC8iR06O5X40VABERABESgYQIyEhpmoysiIAIiIAIi0KEJyEjo0N2vxouACIiACIhAwwRkJDTMRldEQAREQAREoEMTkJHQobtfjRcBERABERCBhgnISGiYja6IgAiIgAiIQIcm0LCR0DsKz3H8dcNs3qLboRGq8SIgAiIgAiJQmAQaNhIKs71qlQiIgAiIgAiIQJYENnyZEn8cxjEeBP6kA39MDs7JyV+hcSf7EDO/elMWg7Mnf0WwB6/zf+4i/jDSew7c1CuJra2icHblz/AFmDbI61MzfyM3S6mUTAREQAREQAREYJMT2NBIiNuIPcmfozPhhtFA7BkP3MyfgKLvwf2KP1f8Jn+SmD9Cax/InyMeYSH6MS/QwLB35w/TTqFBsYhxipI4LBalQwREQAREQAREIP8IbGgkNNWGNQ7ia9KJaCjMp3HQN8OKMBZFF3oZltKLUMnrlU0VqOsiIAIiIAIiIALtkUDzjYQB2mJvAAAgAElEQVQiegt+EYXdm80xmxq9NAiW2YmPLr0Q8bc9sHdiyGEnGgvr+P2d5lfRHkFJJhEQAREQARHoaASarcGtnWkguNyH8CT3IXDrgTU8Ak+/GmzuMl57jb+IyJ9QtkYxFLFLck9DRwOr9oqACIiACIhAvhNo+OmGIJtWTEVvNiCuP/idngOsZRiBBgI83HMwOMMIsFzYg3jO7FU0EQhzKbWhMbMUfRYBERABERABEWj/BBo2EszegwVU+seH4PllGE4f0xgL8RncyDiQ3oOjw/AcxKccVme8SIFGArZhqOGXIXhPZ55eDDd8RK+CDhHYWAJ9wvC/Xw2nnWyEtQ6vQuBfkUSYra0P+3cV8F9grPRWOuxuGDvoFLy36x+xePQV+HDEkTi3czEanhzqq5dzxW8r4T+pmZ5Dbnb2jKuA9xf1ldmG5zwxeJ+nHNu1YZ2qKkmAesP5RyW8u2XukBec9kKg4XnApUHwrg/Rh/2IPpp6/NFIvYrhhGd5/jn+veJFjGkibzD0YK6ZPQmv8fyDfkT+y3wv8SmIte2lqZtWDvvcSgTuDcPKIG5fXIHA3bXPtZmUw0IITF8H//kpZcMb1XNPOfzHZnmj+qLwvVsFz+ZtJnGLKrJOqUTRp5z8R6XaZeR+rxKewS0qrl1kcifw3nq34Vu3eUI62LH/8bitaxD3z/43dv3kUdxc3h2XDzsYhzbn6eVefBpqP5v3fB25+kXgvYPjfNo6FL1VCd+FfLw6M4mZZx7yI7aweVLnTeoeNG4/YttnZvw91Er3/Ka4B0cGEXgqBLs1134cA7HHHDhn0OhurWGdNwOk/QuqLmmjPoo/yomQq2Hv7ill1ZuemKP46OjtPm74bCMh6lYT5daRgyOw+T6Mgj4iXKkcWThvD3Vn0Dj/orV8GJ0wyFuOpxe+iUfWrsL3waV4edHHmOb0xaji7KcH6+Aw7I8pV+bTTCVRGghB2PMCCB3QCcFTA4itZcgyU3RjJIz3Ir6sQEfgTz6ERpeh+hze56u9CO/Oz2duwnu+vWL+jGOnK+fEoe1VwI4rV/azQMdl1Dotr/Agep8N+1xOptzX4ZzJfyfScPg6VXxpDJ6/0NswpRxFE7jiOp2hnPRkeghd23fSyk59t07g91syNnv042plYjU8x1fDT5dp4O0K+E5o2vJwqzyILeAKcNd6vAd+vlTrd6xnMuWZTPf2JakVoHEN3sw6XqTrv5R5H+bn13n9THokBoTgf5VKoe522OE8/0xq9cFQlfch5plajsALVfCOrl23cwO9GZfSmLqTLF5nmhdZXl0jxqFsN7GMm8gkmxXNZ/RoDeMm2u51utKhi/lZehl2SJ33Uqm9kfIymPAGV77+xynD89XwXpnsG9+JNVwtvljMczfleJ9p7g3VKt/aKQzfYzw/jX+Ps2+2zWhn2rV9cohpmH880/y5pn8bHHDbG76mPnqA6oYbzH6gc9hfE1jWe/x7jP3Tt8GSMi6swTPfPIrf/1SR9AbyiiewGfqiHN+H6xkX9RVpXsDG96PEP6ndGda+DDnCi8hdDFGW85Fos6n5ERoEaefVKZTX9PGH5bXDDaUR+HgPZG6Ito7OuAdMW4/hWH+NY9Ow/yfHVpeUYKbfJnNcXcjrDGMEXuXnkVm2g0VYhzAf+6NoIu/Bo1N9XUzv03i6w4dkNH7vavYr681mBg0zHw3yxJH5OTX+fJcG4fsvx9dbvG9PyQgjlXB83cLz77KN5h78J+cMg7ixezAtYkNzguEzKSNsN4Rj6pWMe9aw/RUZsF+KOBcFHgzCMd5Cc288R55/5TgdwLH9Cj+/Ria7pCo0+c6u4jzEfO9R1hspa3FaGP7bkDzpJFGGtz9nGbs1PW9llKqPbUAgmyHeBmLkcRW9eCOfzX0bx5u3VDbeDve1AKJxWsvnMf2eNiL31byoyj6PiqSMKw2uuKpPZ+D9BH5vToyOCtvpz/zHlSK4fwki72ex0jRuvhcc2PWssu3zOLkOdRA+hvIcUYTYDkF4D+dka/JcxTrG8pwxfE7j54NLEfoPZ6/veKNbMdh1QhDWNjR4vuY1ukw8N3FC+rCIq6tOCN1mw7mBE1a32tzsA6Nwby9muVx9XshVV3qCNcmMgXANZXP8CF3vTW6gbRw7UE1jaBKNm0OaOQH56Om5oATRFWRbzdXwBd6E52W9S3Q7CvZwCYJ7k/dPNH5+yzFgZOnFz7dSGzzCa7uznQ9T8d5MhZK5n4JP/zj7UnecZ/qLaf7NkF1TuuxztvnQUoRfqOe2HUTD6jjuE/4lme3J8q4nt+qmwNRz3emN8wfvgrKfpuKp6qYESuVnn1j9aQQsrj3mrO3Iew4NtAY2L7vj2MeHku/cOmOV4yr2Mft5z1R/GQW0byzxeLVhZO1BpXq2i9jlpajeqxSRpVTil6bYG5GKOd4WsL9O4bgke+fsLN3YbIfdj2P+cDK8yAPrYt6DA1helXmrLGUYk1bg7Lv9OUYn0OBp5pDagLh5AV2JB5EzOFY4vqyzaFiVJFNZB3Oe6O5FiOMjOKYE4UdTY6SxezCzghbMCdbh1fAdy3F5Ptmae/R21mkMkwhlPJpj9fe85xb4ED6Mnw/huP8oJes+7BPjGT2N88VBnBt6cF/aGXX2zTQhT3wBH6Uf0op7bTaArRMtIVDPbFNTjLUbFdrOG3sXtESsPMnj50r037Smz+cNcSWt6MsztVk9bYgyZnsHFc1pVCCP0fX6YyoNVxQODYL405x0qnhuiRfRtzm58fXXWR8xTmQPchI1IsQ4YX+XhZFgCv+Q+036cpWd2JiaOjxUigexmPv8iK/kuXUs+3l6QfZsqn00BL7hpDeEMzmNCv9LNAioGK1hfAvn5xxqWxhDxkH0cU48HFbue9y/soxtN+/UyDjMK8Cj36TkX5J6ksZct6g4yNk7gMbQdZysmhAns8z4i3RvHMrQSl0vR62a63xZw7r5rg/3B263WcR/l/OvjO7y9F3zFeX8mHJG+JbSp1nwLlRUjONbe5EnJ9II30pqnvBxJ5AxjSdnUO3y40/41u/ZcRc3eis2JmXymhkqPiqygVTYFMX9hn1h+q4Zh+Xpi4uHn4Qz41Nx9tyvkHV2KnGrmGOujlFidWK/lqcEMCvWt7gyNSvyYU0JxRDERCrpfVLeq804boaxPe+aMcE2HkYF/QL3Zczh9yiN1ic4FvjulsRTVeYIc7xOSo4f90uOtd5kkg1eE/p4hmXxyS53Dvv2S463UWb+Yx1vUp59+fi3UZhc4Tu7sM/HZ1NoSqaG/nFNOanFwkK2MUJZe6YSs2qrM++nLcnR3NP01DQrNNncOcF4KA6NwR3HuWlBih9DW3HzOv4mDnsP3oxmnH/HhJW8x3k/WKPJKxNRU/JU8UX/NJD0o4JNwG7jyx7PHnFE32tgsM/noI1nqWzaWPB2UR29CHa/lCTEZO3I7w5XTo3p9pm8Xs1JzrzGOn1wVYlOnARW1bBOfB6c5UrOlGN+J2NdC6iYCfUtl16CmJmHkoeHk/5mnJyuqYCTVsTm0ddvudKh2A1OVJxk3S+5GqBRYAc5wzE+7QylgbA1daVZ/RoFG2ElxhAyB9ODG1utzrXldn9oYDx6ybcXJ9R+nHwG0IBJh2pqZ6//2yLGPFdU0SBpoOz6cqXtYyqihLvY9GumkbGG59NdtJZtL00pox7MOJRu3eeMbzl1lDJ7pvuV95X7Y01/11d9s84tpFHyd24+PZfG6q0u3I/4/XoyynLjsOMfgj8NPwL7VU/EsV/PwNfptmcjhOn3KvZtUe3EbgXbx3Ynjnlcff6KwYeHqYGz2BDpfsD75A80tnpS8exM424OwxbGajHvX+lGQ2EnuvsPTJVtMDLutN4QMGMsPW7Nv9l2uemT9NNaZmyaN8vy7bGJw+wD8dPrNZRMe1IeGvIRoxA39jDFm8fN04cZY6mojftqAOEt6E34G8MQXWnAPM/vt3P8Z9s3zZ0T6NWwunJIL2vuuGQjGO5xzav404fhaIxEwz4tb1Py8JF784beJj1qNbXoUxsQaHRdZWKIzVBTbSBuO6tiKRXsLAv2DqTE/8cnN2EgNCS+McTKjWI2tJM3mtWVn6l4EkdCOWX0RFE9vWJuxHpON1Rl5vn4y5y17+bEtzp11qxa+BRL9DK6gr9ppIR67uY4V27WL6nEw3Q9PmjRQ0JXby9ymsdyurFcY2wYZWn0J1cuicmlriJrqB1hujwvLYZ7HOPF14YQ/w0n7FAj8tVqJFdsLzrwM7RSy+7NVPzEbX5rpKHqN6jJ9JfpIpOhM/vPxN3ZD+5P9Djwh82CVzShDbOd7DeouJ4TZhX8EpXIS0YWhsD+QY/LUXRVP9S0hrS8g3Dddkdg17Uv4ah532BZ1gBScsTY3sVU3GbFy/shfRiDEb+mYefhfUFDy13Jv8YM6MxmmZDDJ0GG5biy5Q/GxScWJZWHMUhoQMffLEHoqQylVA+SZp8yBkj6HkyNTaQ3iCa8E3TWHMDx051G/nh/9sq62YKkMoQ4Zu+k6/5Ofh/IfQD3ksfbDK98nlFgPffg+qv1zQmGvxkSaXQBtjn9mU+nuat4eXMzABpgW+/YYFoaVMZ4W38YjuWsKHOM1ydPRlOMF8z9NptNRhmZ9DHnBGxra77z4BSGFU6kkkjHTM3jTCfz3G9oxWaGG0xs8DBu0DLu5PTRhWlPZd7UfGj1pivuGOY7g3/H8Hz3ekdVzhvWJhVws030fE5WVxYhfAFjxfe0cIAbN9w0GhvHk5dZjfGxMc++vL+mpMpbyputPydbo1x9dIHuRYu/NRu4jOENbmB0hqf6KkJ5xnNVeg43H5lVvpk8h/D6jhl9aVZdxrAZWKd/v6L3aRuOHf4v/gHlN7vel/CcUeZLOfEvogI7iTFjNskazXS9WdeMbFvDdFwZxscVIRpmDP6sbDVOEpb7LleD27Id6XFuHtn9gWOang9zWLuSf3rlmw1f086d2X4v+4S/nIoPk/F3U098e8o3muWaptHDYB9Mw6lRkzybChtJY0I5vFdNqMG44BOTc1YGVAkOGzwWJ0Sn4reLFjP8HkCZx/z5wQhCdof5UbipDEf9vHZ/uG/TC+Alh7MZCjBj17j963gbGq4gFXI4kopxh3SowaTm+Vfpyj6RG+oGpMYePXrOPhkbfRsutPErZn7jnJXYW7Qt+3Y7tuujGiMr/iYnuQO4N2eUMRiaNr7WV2bGW7rvMz83Lg2s7dmng9hG0w80uhOet8w+begebKzc1TQEIpxL6N0z1q29H/smPW2xfPO2XOuUGrZGBjszFEnvmdudrOt4/+JT2MAxqffpmA2X5n6YxvshW0OYm3nt7dm37zeDa2Pt1LVWI+Bx6ULeINywnBvSHuPY5J6EWmrPWPH8QSd7AG92xjzNLWrxM75LTo4mVmfvz4liKuN58xhfGkR34X7Nm8hbrWVtVRB/xCr++sYP7Pg9VHxXc/PPhBAsuuViTwQQmZKapWfRdTyNO+yf5I5vxq7jC3mjZz3ZZgHCTA4v0I25d3qHGW/Wu4oRuZjyPE95OGm6izkx3sVVTbo4GkixB+k+voG7nM1k9TQ3I97P0cL9C3GuRqwZHB9cWZt4ps3VQdJFyj0Z1wZgXcPd06dy9PzEMq5n/HNFFjJmJjF7O270w/kvJ+z3KOdnWWozs4FxgkWjOFWYafcDPj6twZ3zB5DrTP6lvSnZiPQFJ8ZTufv8/7EtX9Kd/seUJqDRFbmKIZzLWO5fea2afKaxD8dnU2hDaRgvvo7xfPPSoTLefy7LPoztfieA4C2slz/t7lxK70F/Gm70BMXf4btKXsxiXNpbYWy3EpTZYzB+1zEZlcfw7rf/wok/1Dz10JBk5rz7Kg2j+3m/cxPe+scg6Q2IXBSA9wruT5lEmavNe1S4l8B4p8xu+UepjBiCAlegFp+Ycehdit/ODXqvJ/vTNUrmarr4Z9FDkrFBwmWbw93Z93z/gs+4x1ey3GcCtRatjcna4DV6ROJLYty5X85YOg2E23lPLshIzV+/jVVy8bOCxk96P1GDhaUumPckmCd+Uoap733eYzPZZ7/hxtKm8prFGjdP+rix162ibNzHVMuz19A92Fi5Ic7t3CTr+3sF7O9ZptmzkTFFuy9zwdOFbO8hWxrM7lyO5SszrNuF1BeT2HfP8okUGi6xa+nZ+JDpJrFPtqasj5TDx7bG3/UjbOaDbI8RHDur+LjoV9lmULq2ImB59vC6GxgJqdoTRgJ3tSZ+Bjp9GCvxGD7u9CQnBT4iZY/li0Fm8qZZSKPA/I7DIE7gL3PgmTvAPBpFi9J/pYvqEWVt1SbVIwIi0OYEOBdcQiNlGY3FJ7IwTtpcvlaokJ4G88irPZ5ew+eyNExbodqCL8JsmPx7FexnafBPFdf21t8ZJmKWohmLdhVdVObnoX+iG7UTv3+f6lhuPAFdUc4JGaZp2rWbZfFKJgIikI8E6L34J0Nv+Sh6tjJzM6ozhCHGP0qRZYssq3TGo3d5SY2XMqtMStRWBBjca2ZVmSEHehXwfSrUYIrhIywuH1mLjq/tZvJdVtBTRzMBKrkIiEC+EXBupBt9LyqzfxYj1pyQVL41VPKKQB0CHvOIj9nd2tgm2brUXD4zDm5ScpjX/aTGyjDnXT4G6GzJeJ55sQqf27bMjmcdIiACIpDHBGLX8CVBeSy/RBeBlhLgg3VU6qdyJypfCGNeJJLYZ8CXwdh9WSQ3Q1n8rWfPECr8RdybMCUVa0yFHJzuGaEGI0EFN61N5FYE7hL3jKFxYHZZc2e7DhEQAREQAREQgfwjQC1OSyDHR/HMkDYu5pixihcBERABERCB1iZQoNuQWxuTyhMBERABERCBjkdARkLH63O1WAREQAREQASyIiAjIStMSiQCIiACIiACHY+AjISO1+dqsQiIgAiIgAhkRcA2vwKpQwREQAREQAREQATqEpAnoS4RfRcBERABERABEUgQ8CR+BXJLPglpfhTmOfOeBL7nYK8Q7LX8kaaZ5kVJfG/C/vwlv+/5fXbyxUnWEOYZzLePreU1/qCM+YWz+Bs+xPmjJ+ZXIO3d+Npm/gQw1vA9Cu80/83P6hsREAEREAEREIFNT6D+X4HMRi7zs6/mFyTfT71Z0bwzqSP+CmQ2rJRGBERABERABPKQQMvDDWvpJZib9CyY3zp3+c5Sayv+4NMavnWRPxNtfgfVnW9+Tlp7HvJwXEhkERABERABETCBghYelUlDoFZu/QpkC2EqmwiIgAiIgAi0PwL1/gqky196RKaPwbuh4PX+IJR+BXJDUDojAiIgAiIgAnlKwE7/CmQt+dfyW0/uOTAnS/lvz+xal/gVyF7mVyBTPwdhfgVysMIN2dFTKhEQAREQARFoXwTq+RVI7iX42gN3QBTO8TFgFRX/yiyF1q9AZglKyURABERABESg/ROgs0C/Atn+u0kSioAIiIAIiEDbE2j50w1tL6tqzIbADkEEnuV7Lswjqbk+9qlG4IEwrGxHUecIfC9VIDCpHEX3NSNfrttRgOVbp1cicG00hy0rwWFDL8Xs7XZC34xaevQ4BjN3PRm/DKSefMqhBO216Br2Fvr3/iXmjDoSB2fs63KKdsZTu12CO7sXJ0O67bUhkksESCDb6V2wWoOAzZdPnVoN/+tUkh+WIzCuGs6A1ig4R2WMpMHxVCMGxzd8T8Y4Puaa2oLSpBRrvQgfUYrgzQxnNZm4nSRogIE1KgTfQzR4pq5D0aQK+H7LF4i1kmFmnUkFf1UuFXwz2dbLoBKvLXgbH3XaG9f2KE0oO8szGL8fMBgLFr+FJ4J508PNhNGc5C4WLXsTtwe3wTX9B6IskbUTjhqwJ7Zd+zZuWlGVP/dBc5qttAVFQEZCG3andVIVfMcC0ctKUb1PKcL/plZpJcXShs2oqep7D6JvswEdUR/04FtGnyxC6KhOCP7WBxxczb7tWJt046HPcf2in7DngH2xn8eHnbc8AGMj03D10hVoRybOJrk11lfq/oQH5n2Ail4H4KIyL7p22xdXdlmGW+d9gWWbVjLVLgJZEWj5exKyKl6J1hPwxOA5OY74ncWIzUm6YuPvUblkHM4N5fCs9iM+KAJnEBVOmCvv4wN8VTY9EEcH4T0jCrszdfLHPoSvZ7o1JjOvHctr5/Fa3EZsgim7xvKwdgrD+3/0BhiPxUIq9RsCiJr6nRi8T1XDmsIh8DO+SrsvX3v1cBHC9AzAG4X3ySCcMj6dwvp8r0RYDV/DfX0JIh+xHB+vP83rnXh9gR/Bs3xw0/qR5XpuDMIzik/FBJjtKy8iNwUQW1CrqfV/4Rs7Pdcw724sLM4XdM30IXI5X/fN/bPpw760Et6tyOXSjDrrLy15tk8Y/nFRxJ+xYO8a4+vCyejaIkSmp9zhm7Mtf2RbRtLSKee123ntNdrOTTBwX/HXKMLlfGX5e/QsDDUQsrC7B0TgvT7EPmadQbbzaRob95L7diH4b4nAKiM7h6Gc0ZQx7CDyyyLEytll13J8LClB6EFThwvn1gp4PixFiG2DJw7nimp4D6EMyzyIfcMkwRowORkHlGHhD2/gjp6/wQ1Di1HdOY6HvpiGWXWMRmt/GlDn0Dg+l+1YkZKJ94P3eY6/mQ6sAWxvKbv8QY6/F5P8rNEheC+KJMYlqvjitif9iDxAD5Qp2+KYP5tlHseB4ef3JR5ErmDZ3yXLtvYJwncZOaZeDR/7ezEi78fhfTYI9/9KEP22hktiLL8cgns6zwfYL9eyX4awkh8dxP7OsTAlNU6YpcH7M9Y4+3DFVFz1wzCMG3wMhnn647vFD+AxeVoyOkEf2zMBGQkb2zt85NMzlusmvmky9iInsVADBTKd3ZVK6IuaSae+lPaBUcQuLkbwG6brx8mTRVt7cNI720X0EioETnDOZfRIXOogdB3rG0wj4KI4Yufx2kIXntsq4aQ3JPTipHcrf4zj7yUIvmnDOoChjptDiJ9Iw8MoXptvyCzxIHRGgOVQQd0fhvMCJ9tKTrpHlyJi3My/txA+iQZJhqJGmNfH8rrZk/DLDVvhzvYj/A++eZNGjH0BZb06jHimIbFhlsQZ6+AQPN29CO1PAyBGA2QEFV5dhdOdMvfhNeKpc6mBUnm6mMbBAvK504J1fBX8Z0cQPY918G2gnr9Ww/6SSvp3ZNk3DN9d1fDMocJY0ASDzNoMx60pjzEumjyo3M8Jwp7OPv41DYNi5h2cyvSlH6HD/DDhBn8vGl8My2R7WGNpKI5wED68BPES7v34L1+BOiWVO1fjwBTPlfJ/5n2C40fshs7LHsft62hQ1j1KzW+8mHBEnQuGWzyA0K/IfnOy/x/ZzyD7xSYdjdK/Ubl/xqererM9/6Hx+AXH3Ie8NIhj/jjQeOqE2HKm3Jr9y+YmDmOM/45G4S1M+y4HibnvaIAgSkPjGyrzbThqvs24B/vwepCG2AqOhYfYL+8VI/Qb9gvvOf8N1YgfR6M+4+mueu/PIxthnxAqgk8WT8ArPU7EcdH3cbg8Lcm+0n/zgkA2s1peNGSTCOnnaujfXNmez1XPlVQ+lzfiZC1JLIHgVjYuqTuZq1JjIJhjCSdIKkv7sCjcF7hyNR6AKCfPJ7xwf8EYODdDWaPoQfjCl/ROcMUVfbom3m/tRY/EAq7GaSCYt2O7E5jO4nssBqVkcGm0jE+tzhZSqUeyfydGg62I0Vh61IP4SspqfjTsNZbfx6yMG8xRc4EyWlyN2uY9G8zrfsL9DmkPRSpV7KpOqD62jtHSVNFcjccmJZm6X7JM87sjZuQPJp+t6F25J2XczSOfj6lIdq1TaRPlWydSgTnk/FKWt5NpJ2Wwe7CdlVReVIQbd3CM7BGjkUKvy2qW9B33irxdU2Zux4GNfp37YnM3is6d+mFQPU1xn6eXYediROv61+ktir+VGn/LvIh9Tfa7JE0/dwr7YjrHv7ml6CmIzWQbB6b6xRisfAeL+W4MD/cbjt3Mx7TjNCKNd6KE6ZanXhPPey/+hQ17W5ZRFIXv9Up4tmE/bMN0Jn9PPvLd30H08eSYc+nliy7jvbJTbVO03vuzEfbpfvUXbYkdPFFE/H2xs78eSBs3AJRbBHJGoK5tn7OKCrJgs0rpl2oZdZC1I787VJCZq+50w/k2SrP2TUxcZiJv4HB/qDOBcLOj1Y0T4k5ctR9YU5fRuglFt5nL91hQoabnMqOcU3Op1YMfhtLd/hy9CemDq6pYceqLyZPhkoaROxtlXlPahp+M2/ssegQO4OqO4QY4lN9X74s9N8jrvhpAeAvm/Rs3AnblpP48v99OJdI8nb1BuYgY4yp12vybRtyVsgXobn60Aus3nxexlxZsWERDZ6x96Z053kLkXBoumSwbymBWyAxpWOdzNTwuSE8RDbU7UiGOBvM0ccGMkU6Ue0XKuGTyxOctkvlyOQ6cwI64sV8nPDv7Cazb6jjc1GcWjlryI9fO2RwctwyjJA7zllfzuUvSmLaGheFhuMHZKjWwO3Ocz0qlXUiD7O/0mp1Lw/xWnv+I3034zbwELkpFf7UfnjPpCTiTA4cGRvTGZIjNncXBvSfH5XAaBkxr/5zhP97D7heMWZQxPGHGSVWGPExjwm2ZR733ZyPsE3mtXjh38EiGQx7Hub7DcdugHfD6lzOQio7UrkDfRKCdEZCRsDEdspQr1FmMde/AiYz/j09uwEAwdZgVzRruDfgZE35XM5lvUH1a2acvmNj8KirMNxmLfmrDfNZqnhuQkYn7BBK+eB7uT1yJTfUieEU979XOxhioK8sGwm54wtqfrte9bITPKkXcxJ+HMIxxTx0tb77WV3+ICvNOhjvu5PWBdD/fyxX623Qbf75hPa1yhlzdldwzcRzDLw1ptUYYWKMYBrqUYSCGh2J1V8mNCcg9A9Fr+cfYujWGyuyPDAFNZLszQ1UbdjWNJZ5M37HmOg2axGHGyDp2u+n71HtQZ5EAABxASURBVEN1yc/Jy7kbB51w5MC9sc3q13DhqgUIxb/AEcMOwmkrHsF/qhsBlxLb7C2waKglZE585scZ/Gz2tdwQgvUEw2TP0aKjZ8Ch4bh+sqJBEX+JBuRLTN+Zaf9RBe9RDFM9lLT+EntZLuSfl8b1RQx3XcAQ3kX0vn3Ne7AvPQa7MtD0Hx+sA7nngY8cxCcz3zoyZHoYA9rY1JQH3NPgGsMj86jbrCbYG4t00BYH4VzPZzj9u4X4wJmI93Y6CNf1/Bbn/Fihn7+rg1df2x8B+b02pk/MquV8Ku8rueHqAj6tcE99mi9VQYQGxRN0d57HTXJDOdMEOCnuxpXS4KYE4IT4KlfidGk7aWPAvPp6H66IOJ+607jSHs6JrzvL4cTm7J88b0p13/Uivj1XrKOplY1S4Su27YMZnsjWNFzDibM7y6uzmmpUYuMpWUGX7aqkPPahnIjrYvmOxks/el02q12StT3bYTbzGVn5y6KJ1WWdPR72ZXw88M5WesfCPLq4f6In4TS20dhRVBLWKMqb9g4Z8RpgYG3PjYrXxxC7pgjRpUxnNtBlw9VsutuDfdCd7TTtM6vXEDln2lEJw2/DEI27mHsqhqf6txdZbZfWWBwj79GztA9DUEYGbgB19qwpMFfjoFv3Mbiq8/e4dcFXMN7+ijXv4KZV3XDpoBG13p1gNi4GuEkxMUYzD8PiWK7g6XGyhnM/zFAaiR+x7ab/i8jE/MqsaYZR7DtnaOctzPdkqMGE3xJp0uOE+xwc48Uyyt54xoznyOxXMNmraCQsp1GxD3lN42dfBJ5B/Nds8lzKkMYiXjuJeTkrWqPpyejNe9YYLY0ejbO3AyNw45Zd8Mb8d/EB5XHDc3DzouUYPWAMDqjHdm+0Kl0UgU1AIJtpbROIlUdVmpjy69nZWvFHirnnjyvtf9KdTgXpzuPmuKuanincd7hq6s58dxg3PPOtZJ3PcPVrMM3niuk+XrufK61yTqxGAaf1A+O8katceLnRMfBXzpLVvD6N6cdnyXchY9uTqESfLYeXSjt2bXLjmHU03bxnsRK+rNMqicL/KpdeP/KJgzPo8n2DeydGc3X8VJirMNb3OSfhuuGXuYz3vsXV3yvr4OMmyPCRXImbEAwVn+di7lrvxjaaHe2P0U1sJvCMw+pG5bA56+XcXXdRl2WrapLFuIfj9wFYf6C8k1iu2UMxmyv8P2f0SQMM7CPDsHtTyT1ENukS3yni45BcsTYlyA70klyXVGQuPUyxm4tqeTLctxmPP4Qyjafmq+IYOSn5dIP7sh+xfXn+abKdS68V966kVZjLlXVkKEMfT0boVSB37mdZf+RgHESnD8IfBg7BosX/wdOhdIur8MaCyThpp31wbWqlnLjCjYtWXyreurMNn8aJfxfj0zPlsKmZY/+iwbXQZKDx/S8PjTBu4KSRZozO+Oyatppx51zK8dOf5Zo+e4dPPqSeioAJvYwlh6v5L43TxNM1f0r1ialvDuXYnOw4vsBNxN6uLNuEGHgtei3HwjXMeyql/on9cj2fykk/jVFDc4NPDbPnOxEG7oOfrR2P/VdWp8aFiyXL3sJdvc7AdXx3wtS580EnkA4RaLcEeAfqtczttnckmAgUKgHzCORzXOL/kYbnl4XaSLVLBPKfQHZL4Pxvp1ogAiIgAiIgAiLQTAJ1HYDNzK7kIiACtQgwXu45gqGEerC45lHMh1rhaY16ytYpERABEcgFAYUbckFVZYqACIiACIhAARBQuKEAOlFNEAEREAEREIFcEJCRkAuqKlMEREAEREAECoCAjIQC6EQ1QQREQAREQARyQUBGQi6oqkwREAEREAERKAACMhIKoBPVBBEQAREQARHIBQEZCbmgqjJFQAREQAREoAAIyEgogE5UE0RABERABEQgFwRkJOSCqsoUAREQAREQgQIgICOhADpRTRABERABERCBXBCQkZALqipTBERABERABAqAgIyEAuhENUEEREAEREAEckFARkIuqKpMERABERABESgAAjISCqAT1QQREAEREAERyAUBGQm5oKoyRUAEREAERKAACMhIKIBOVBNEQAREQAREIBcEZCTkgqrKFAEREAEREIECICAjoY060Ve6J97Y/Xz8qbOvpka7N/5vpz9gyqD+KMlWjn2qEXggDEs9ly2xDdP5ovBNqoSnz4aX8vpMvzD8E6rhePO6FRJeBESgHRGQqmmjzghXTMPVS+M4edBu2D5B3cag3gfiLM+XuHbRIlRmK8c3XkTHOXDdbDMUWDqj4N+tgmfzdtIuy4XnnnL4DuyoHdJO+kFiiIAI5ISAjIScYK2v0AimL34TTzujcOMW3eHz74A/bbkZJsyfhEnR+tI3cO57D6JvO4B0UgOAdFoEREAERKC1CMhIaC2SWZTjxhbg1vlfoc+Wh+O+bfbBDuvexk0rKrPT91xBe1+sQODtchTVE26w9gnC/3I5Au/x7+VKePfKwooo5qp8PNMOyRB+b4YzHg/BNiODq2T77Cr4J7LO9yrgvzEMuziVtg9d25Po2k5HT4aE4H8lCNuTuu6Jwft8Bbwnh+B7jHKPp1x/jsCymgBVEoPnlkoE3mX6yazzn6yTNpGRxbmZ5bzIOkuj8DzMz6/z+pmxZIFNyGONoBzPp9rx22htOfxxOL+rYn28buq8hNfTd8YhVSh6MAjvzeTwLOt8NAinR7JK60TmeY1hi50o2x8oM+UJ3JZFKMghG5bluzQI33+Z7y1+PiXVDhbtXFsO/+nxFCiWfSu/H8v+NPmeoXz3sR6GS7wXV7MPyOkv5JqW12afXcYyzTh4nh6XHTLGweYcQ7cz7/u89gbzH5KuI1mVcwPruTQM752mLUzzIvvT30R/6bIIiEBBE5CRsLHd24tK7ewQPMdTsWQxoa5eORF/W9sD+5etwh3zP8cP2dYf9iAythTBGz0bGhVUyJ7fRRG/ldf36ITgmQHEvsui4CoHsfeoVMakFRQV0v5RuBO8iFN/GMPDd5SF6GmdUH1QEWI9QvCeUaPMmqyBCsvZF4ieR7n274TQv5sOk1gHk2V3L0JMHxxTgvCjqTyuhdhVLGcs5aigN+U0fj64FKH/GAuiicNPPjRw8HgJqvcqQaQ6BjtjE4h9XhW8Qx2Ej2E7j2D5O9AoODxDuQ6Jw72/GKFjmfe7CDxHJ5Wr+0QxgoeUIPopZbulJCFP8FIf3Nq6t37h7DhlYJ+ewXwXeGGdFYaTzcYUGlnxh8nlScAzkjKTR3zHCOyyVDWd2LbVAYT2IpvHmeYGGnzGkGN9nr9Ww17Ca/uSramTRoZnQG3x7APZ/7ezXQczzYVsS3O8XPW3VGdFQATymICMhI3pPCof77+5IjufyvNKrjQvb3pGtTy9sUuJg5DbDaM6lXJnQisdcRfWgDgso2iWO4jPa2rJbuqlcnvTA2vfaHK1zlW8s4uN2PikVPYebM8EX9LgqHQQfZppRzNtM4SOP+FDfG2yje7iLDIa46QzFeiWVNIxC+4nNBKyUbqNYRwUpQL2IPYi649biD9BIyiSyuDhtYNY1X1+xFfy3DoaTs/bsPfM6MuvmHcxr9FQiX9hw9pyYwUyZRnONPiMLbKQ/RVh3/VsrBGpa5Tf/T71950Nt5Kf17DvN0tdD7OfnjTMeP5Fsi9j+4whMDgCZysaV/ewzhC/z2O/fkwPyq612+JO9iH6TWrsLGH5zbAJs5BeSURABPKMQNo5nGditxNx6UWw+6Vk4bxq7cjvjgfxBidWH3btfwAOCU7EiYv64/4B++GA1S/gjbTCammzolQMV/vhOZMhhzM56S+hMrgxgOicLAyFGV7E/HThD6WS7MkV6RIvV8tGEGqvLvzvoowyVvNzJ57PQtcnmmIU1Y9ZyJDRbvfVAMJb0JvwN7rgu1IpP8/vt1OxbYxeLqPMa6nw0np/HT+vNxKMgqVRck0FnPR1L9N/y5U222l0uFvNNqQdC1F+dtJfWtphSbwIZuQ3YyYLp0hCDqZNKG/zR8MlwSbdJyHKV50q1xhZ5fzc2VxnOwMMNzzKEFDqMoqYfUH6S/Jf94dsO7d2Pn0TAREoTAIyEjamX5dy1TnLgm3ivvx/fHJjBgIQ6DQaN/YK4t7PpuOjqm9xW88zcd1WgzD123lYtzFyMK8704cI3cMRKjj7oir4LogidpG36acguPKMTQJ8BzBc0Z2u5vH+lEKmsllDw6dbhkLcjJ/LzWqcFRoFZfRJ2gYIUAnVZw80V7mHuMK+ky7/O1n2wDB89wbhebsUkc8zANX3aEdj8qyjsiym7EZek66In9Mj3yjSVTSyLmPY4JuMOpr7sb62N7eMVHrjBVgvnymXyrzJI12/n20z+0YYXTHGjFVqPA0mN/9dSQPwuECNF6W+QjO6u77LOicCItCxCGjZsDH9bVbw55cgdGURwheUInxPI0tBqxfOGbwznGVv4b5KsxRcjXHzP8Cangfiss4b+WA7483OATFYRjkYJWhWxGY1meWEH3+T9R/AOPwoYzDUDIn4FGrSMYyVm/cJmA2Fx7HgaTSEjOJfbVbj9JxsbQDSMNmPezIaab5Jlc1hbU/3+CAKbpRemP/hShnGPZ4+jHeinMpvYJ3GNSbPXMpczXJ/nsxj7UePSRp5hG0ez8cYz+EGyfSKewjT7pglPCYzStga3FxrqGEa7mIL1nD2p2HQi7Jsl6Uspkif6SfmNZ6DsWzTWrZvAc/Po8foJ3oSTuM103Yak9YocujXsBy6IgIiIALyJGzsGKi0EX+9KVuL70TY4iCc552F8xYvWe8NjlR+gOt++BkeG7Q7np85GZ81omeso7nn4Swm4ErRKonC/yqXij96ET6DYQIqaWssd7pfzX/N05FfccX4J3oRsm2biblX0sW/gnHqH2syuZPo6t+6Gr5H+B4Abn6Lv+tH+P6UJRBiSIMbEX1/r4D9PRl8yTi4MVA29qBS9HBDna8b21HFch9j2CRzhU/DLPagA+8N3KVvDIanixAyMjUmj4nTX+uD96pK+M+n5l1AAyeYpsOQxl3FiFzMTZrPhxKbT93FrOMuejOyagv3dTzuh3Mjn3Q4khlm+xG6JMvNiw2U777sR2xfho6eDsM1Bg73CKQdBQ1kqTldzv0NXZn3HY6VFWz3dRwfidCKjejvA7D+wGuTuP+BHpT4bPbhnzfSQG1SICUQARHIZwKce4x/MrdH8cwQqkekt1/nti6V3gIC5oVAd1PZj6c35Lms1VELKlIWERABERCBfCLQ1BI4n9oiWVtKYChDCkNMqEEGQksRKp8IiIAIFCIBhRsKsVeb0SbnRoYS9qLL/J/FiK1uRkYlFQEREAERKHgCCjcUfBergSIgAiIgAiLQMgIKN7SMm3KJgAiIgAiIQMETkJFQ8F2sBoqACIiACIhAywjISGgZN+USAREQAREQgYInICOh4LtYDRQBERABERCBlhGQkdAybsolAiIgAiIgAgVPQEZCwXexGigCIiACIiACLSMgI6Fl3JRLBERABERABAqegIyEgu9iNVAEREAEREAEWkZARkLLuCmXCIiACIiACBQ8ARkJBd/FaqAIiIAIiIAItIyAjISWcVMuERABERABESh4AjISCr6L1UAREAEREAERaBkBGQkt46ZcIiACIiACIlDwBGQkFHwXq4EiIAIiIAIi0DICMhJaxk25REAEREAERKDgCchIKPguVgNFQAREQAREoGUEZCS0jJtyiYAIiIAIiEDBE5CRUPBdrAaKgAiIgAiIQMsIyEhoGTflEgEREAEREIGCJyAjoeC7WA0UAREQAREQgZYRkJHQMm7KJQIiIAIiIAIFT0BGQsF3sRooAiIgAiIgAi0jICOhZdyUSwREQAREQAQKnoCMhILvYjVQBERABERABFpGQEZCy7gplwiIgAiIgAgUPAEZCQXfxWqgCIiACIiACLSMgIyElnFTLhEQAREQAREoeAIyEgq+i9VAERABERABEWgZARkJLeOmXCIgAiIgAiJQ8ARkJBR8F6uBIiACIiACItAyAjISWsZNuURABERABESg4AnISCj4LlYDRUAEREAERKBlBDyeo8OAD3BneBH72lpfir1PCHa1B27XGKzNXCDmIPY0v8dcWCOjcIbHYTkW3IU8P8WBGwHPh+GUehB9J2V72HE4J0RbJplyiYAIiIAIiIAIbFICnthzPrilMThHRWAv8yG+tkYea3Ac8ddpPKyk8VBG4yBOQ2AADYShQPwFP+LVcdgHRuDsaCH6kQ13AY2DQ3jOsRGPsZweNCRgDAbzRYcIiIAIiIAIiEA+EbDpIwAqqOBXurD7JL6tP4yXIG4MBHOso9eAl60taSnM5/l1PBehMTCLRgDPWSbZap6n4WD1TpZjDWDaRYpo1BDVJxEQAREQARHIHwIpDU4NH6LQgTqCl9eEH5JXqPxNmuqM80F+9vOcOeWa8IPxNjAdQw12f56aLyMhf4aDJBUBERABERCBGgIpDU6lXsSTxlBo9KAlEGSCogyPQ4CfTb7UqUTIoR+9CT35Z9PT8GOjBeqiCIiACIiACIhAOyVgWx6u/HvGYHe3EP++rudgQ6ndxTQCBjJ9J17z0lvADYz4juGKtN1gQg4hbljcJRlqcPmPDhEQAREQAREQgfwj4HFODjFSQAPhQy/ia5pugLvQg1g3bl48OgTHoQNhEb9PzwgppEMOP+fmRm5mbOmxbMWilmZVPhEQAREQAREQgSYIbN6dewKaOMyGgozYQROpW3i5eGYI1SPKWphb2URABERABERABDYFgZYv9TeFtKpTBERABERABESgzQjISGgz1KpIBERABERABPKLgIyE/OovSSsCIiACIiACbUZARkKboVZFIiACIiACIpBfBGQk5Fd/SVoREAEREAERaDMCMhLaDLUqEgEREAEREIH8IiAjIb/6S9KKgAiIgAiIQJsRkJHQZqhVkQiIgAiIgAjkFwEZCfnVX5JWBERABERABNqMgIyENkOtikRABERABEQgvwjISMiv/pK0IiACIiACItBmBPgbkDpEQAREQAREYEMCRTPXbXhSZ9otgVz8RpKMhHbb3RJMBERABDY9gVwonk3fqsKTIFcGncINhTdW1CIREAEREAERaBUCMhJaBaMKEQEREAEREIHCIyAjofD6VC0SAREQAREQgVYhICOhVTCqEBEQAREQAREoPAIyEgqvT9UiERABERABEWgVAjISWgWjChEBERABERCBwiMgI6Hw+lQtEgEREAEREIFWISAjoVUwqhAREAEREAERKDwCMhIKr0/VIhEQAREQARFoFQIyEloFowoRAREQAREQgcIjICOh8PpULRIBERABERCBViEgI6FVMKoQERABERABESg8AvqBp8LrU7VIBERABNo9AevnYXjPDcMeFocVthGf4UH0tgBii2tEt3ZimkuZZgjTrHMQe96PyL0euLFkGufmcvgOdettqzuuBMFbnXqv1XuyRxj+V4OwfXWuhrwI71GEWJjnB4TgfzoEuz7NGfYgclAxoqsy8m8XROBhZny1GMFr68tUryTt6mR+St2uEEoYERABERCB5hCwRgXhvyMMyyjkcgtu0IW9VxjOeD+NBCtZVL8wfLdTaZfw60qm6RKDc1YVLLcEoXuSyt/9nsbFbF53XFhb05Dg/9yvbbi0G9xlzZGIaSMW4nNZro+yDIzzBMuay7LC/Ddth4T4fY6DOJNZvWKwujHZcspA+RDhtWgz68yD5DIS8qCTJKIIiIAIFAwBOw7nfBoIXiryF4oQutkLN8LW9Y/CKU4ZCPxqH00PQinTjGea3zPxzjQs7ua5Y2lMPMSVfTUQv5sGw91M3DkC3/hqOGY1f1pq1d9cYGu8iJzMejLL+mWdspbSq/ArpjHyXVoB/2lxxJ8oRujBwo3cF27LmjtAlF4EREAERCD3BOgRsIeymqiD6L9TBoKpdZEHsTmp6mlI2D/jat7l6n4iwwvm43Re/4nXTf7+uRdTNSQJyJOgkSACIiACItB2BLozLGA0z2q67VfSbb9XEN4TjHufxywfwnfxosXwwWb8TiPBNa58c8Tpzjfx/p70/Ztr+XDE07Lng7D1yygjoX4uOisCIiACIpALAjURhWTpmzP8sFsqmB/3wuL1xBaAuulyIUuuy1xLI4f2j8V/8/VQuCFfe05yi4AIiEA+EvgptcGvM8MG3PjnPlmM6tGM/YcyGmM8CMZrYDwKXVO7BhmCsLryHK9hdZ40fBXbwScx1ntD8kTsTDFlJORhp0lkERABEchbAmsYZviK0nti8JwVhWUeVKi70GZoIf4l1RONBHsM05iPI7mxsQfTrmX+RXnS+mpudNynE0Lj8lfV5q/keTJGJKYIiIAIiEAGARoAsbt9iScarKOrEJhYgcALQTh13k8Qf9aHeAXTjKlG4C0+SXAnn4igxoo/40s82dDqR5cIvI9Vwv9ACI4JxBdH4X2U3x/lY5jJBxqaX+Vwvlfh7XIErsrfZyNlJDS/25VDBERABERgIwi4HwYQuojvRJjJ0EOAYYQAn2KY7Ef4Nj7JkH4nwRJuYvwtX640i2nKmIYehNgDxQjf14wXJDVHRi+9FoMZAhnMTQRGM9oMdQzh9635b11PR7blmnCJMX7yePcfm+6v/3VV2ULIIl3xzBCqR5RlkVJJREAEREAE2guBopnrNHe3l85oQo5c9ZU8CU2A12UREAEREAER6KgEZCR01J5Xu0VABERABESgCQIyEpoApMsiIAIiIAIi0FEJyEjoqD2vdouACIiACIhAEwRkJDQBSJdFQAREQAREoKMSkJHQUXte7RYBERABERCBJgjISGgCkC6LgAiIgAiIQEclICOho/a82i0CIiACIiACTRCQkdAEIF0WAREQAREQgY5KQEZCR+15tVsEREAEREAEmiAgI6EJQLosAiIgAiIgAh2VgIyEjtrzarcIiIAIiIAINEEgj3+bqomW6bIIiIAIiMBGEzA/HKSj4xKQkdBx+14tFwEREIFGCejXexvF0yEuKtzQIbpZjRQBERABERCB5hOQkdB8ZsohAiIgAiIgAh2CgIyEDtHNaqQIiIAIiIAINJ+AjITmM1MOERABERABEegQBGQkdIhuViNFQAREQAREoPkEZCQ0n5lyiIAIiIAIiECHICAjoUN0sxopAiIgAiIgAs0nICOh+cyUQwREQAREQAQ6BAEZCR2im9VIERABERABEWg+ARkJzWemHCIgAiIgAiLQIQjISOgQ3axGioAIiIAIiEDzCchIaD4z5RABERABERCBDkFARkKH6GY1UgREQAREQASaT0BGQvOZKYcIiIAIiIAIdAgCMhI6RDerkSIgAiIgAiLQfAIyEprPTDlEQAREQAREoEMQkJHQIbpZjRQBERABERCB5hOQkdB8ZsohAiIgAiIgAh2CgIyEDtHNaqQIiIAIiIAINJ+AjITmM1MOERABERABEegQBGQkdIhuViNFQAREQAREoPkEZCQ0n5lyiIAIiIAIiECHICAjoUN0sxopAiIgAiIgAs0n4Gl+lpblKJq5rmUZlUsEREAEREAERGCTELAAv7tJalalIiACIiACIiAC7ZqAwg3tunsknAiIgAiIgAhsOgIyEjYde9UsAiIgAiIgAu2agIyEdt09Ek4EREAEREAENh2B/w8XpMt/0kox4wAAAABJRU5ErkJggg==;" vertex="1" parent="1">
          <mxGeometry x="-150" y="80" width="370.88" height="210" as="geometry" />
        </mxCell>
        <mxCell id="qRebmksec7wM-__XTCwP-5" style="edgeStyle=orthogonalEdgeStyle;rounded=0;orthogonalLoop=1;jettySize=auto;html=1;" edge="1" parent="1" source="qRebmksec7wM-__XTCwP-2">
          <mxGeometry relative="1" as="geometry">
            <mxPoint x="500" y="510" as="targetPoint" />
          </mxGeometry>
        </mxCell>
        <mxCell id="aw6NFiJY7EGlubkK5XAH-2" value="eth 0" style="edgeLabel;html=1;align=center;verticalAlign=middle;resizable=0;points=[];" vertex="1" connectable="0" parent="qRebmksec7wM-__XTCwP-5">
          <mxGeometry x="0.8535" y="-2" relative="1" as="geometry">
            <mxPoint as="offset" />
          </mxGeometry>
        </mxCell>
        <mxCell id="aw6NFiJY7EGlubkK5XAH-53" value="eth0" style="edgeLabel;html=1;align=center;verticalAlign=middle;resizable=0;points=[];" vertex="1" connectable="0" parent="qRebmksec7wM-__XTCwP-5">
          <mxGeometry x="-0.7921" y="-1" relative="1" as="geometry">
            <mxPoint x="-1" as="offset" />
          </mxGeometry>
        </mxCell>
        <mxCell id="qRebmksec7wM-__XTCwP-2" value="&lt;div&gt;RIH &lt;br&gt;&lt;/div&gt;&lt;div&gt;10.50.37.85&lt;/div&gt;&lt;div&gt;53,80,22,23,3389,&lt;/div&gt;&lt;div&gt;21&lt;br&gt;&lt;/div&gt;" style="whiteSpace=wrap;html=1;aspect=fixed;" vertex="1" parent="1">
          <mxGeometry x="120" y="470" width="80" height="80" as="geometry" />
        </mxCell>
        <mxCell id="aw6NFiJY7EGlubkK5XAH-3" style="edgeStyle=orthogonalEdgeStyle;rounded=0;orthogonalLoop=1;jettySize=auto;html=1;" edge="1" parent="1" source="qRebmksec7wM-__XTCwP-7">
          <mxGeometry relative="1" as="geometry">
            <mxPoint x="800" y="510" as="targetPoint" />
          </mxGeometry>
        </mxCell>
        <mxCell id="aw6NFiJY7EGlubkK5XAH-4" value="eth 1: 172.16.120.10/29" style="edgeLabel;html=1;align=center;verticalAlign=middle;resizable=0;points=[];" vertex="1" connectable="0" parent="aw6NFiJY7EGlubkK5XAH-3">
          <mxGeometry x="-0.7642" y="-4" relative="1" as="geometry">
            <mxPoint x="36" as="offset" />
          </mxGeometry>
        </mxCell>
        <mxCell id="aw6NFiJY7EGlubkK5XAH-13" value="eth0" style="edgeLabel;html=1;align=center;verticalAlign=middle;resizable=0;points=[];" vertex="1" connectable="0" parent="aw6NFiJY7EGlubkK5XAH-3">
          <mxGeometry x="0.7814" y="-1" relative="1" as="geometry">
            <mxPoint as="offset" />
          </mxGeometry>
        </mxCell>
        <mxCell id="aw6NFiJY7EGlubkK5XAH-5" style="edgeStyle=orthogonalEdgeStyle;rounded=0;orthogonalLoop=1;jettySize=auto;html=1;" edge="1" parent="1" source="qRebmksec7wM-__XTCwP-7">
          <mxGeometry relative="1" as="geometry">
            <mxPoint x="540" y="750" as="targetPoint" />
          </mxGeometry>
        </mxCell>
        <mxCell id="aw6NFiJY7EGlubkK5XAH-6" value="eth2 172.16.101.30/27" style="edgeLabel;html=1;align=center;verticalAlign=middle;resizable=0;points=[];" vertex="1" connectable="0" parent="aw6NFiJY7EGlubkK5XAH-5">
          <mxGeometry x="-0.8005" y="3" relative="1" as="geometry">
            <mxPoint as="offset" />
          </mxGeometry>
        </mxCell>
        <mxCell id="aw6NFiJY7EGlubkK5XAH-9" value="eth0" style="edgeLabel;html=1;align=center;verticalAlign=middle;resizable=0;points=[];" vertex="1" connectable="0" parent="aw6NFiJY7EGlubkK5XAH-5">
          <mxGeometry x="0.8092" y="-2" relative="1" as="geometry">
            <mxPoint as="offset" />
          </mxGeometry>
        </mxCell>
        <mxCell id="qRebmksec7wM-__XTCwP-7" value="&lt;div&gt;RED-SCR&lt;/div&gt;&lt;div&gt;172.16.120.1/29&lt;/div&gt;&lt;div&gt;22&lt;/div&gt;&lt;div&gt;179&lt;br&gt;&lt;/div&gt;&lt;div&gt;53&lt;br&gt;&lt;/div&gt;" style="whiteSpace=wrap;html=1;aspect=fixed;" vertex="1" parent="1">
          <mxGeometry x="500" y="450" width="100" height="100" as="geometry" />
        </mxCell>
        <mxCell id="aw6NFiJY7EGlubkK5XAH-7" value="&lt;div&gt;red-dmz-host-1&lt;br&gt;&lt;/div&gt;&lt;div&gt;172.16.101.2&lt;/div&gt;&lt;div&gt;22&lt;br&gt;&lt;/div&gt;" style="whiteSpace=wrap;html=1;aspect=fixed;" vertex="1" parent="1">
          <mxGeometry x="500" y="750" width="80" height="80" as="geometry" />
        </mxCell>
        <mxCell id="aw6NFiJY7EGlubkK5XAH-8" value="&lt;div&gt;CREDS &lt;br&gt;&lt;/div&gt;&lt;div&gt;USR:vyos&lt;/div&gt;&lt;div&gt;PASS: password &lt;br&gt;&lt;/div&gt;" style="whiteSpace=wrap;html=1;" vertex="1" parent="1">
          <mxGeometry x="425" y="320" width="120" height="60" as="geometry" />
        </mxCell>
        <mxCell id="aw6NFiJY7EGlubkK5XAH-11" style="edgeStyle=orthogonalEdgeStyle;rounded=0;orthogonalLoop=1;jettySize=auto;html=1;" edge="1" parent="1" source="aw6NFiJY7EGlubkK5XAH-10">
          <mxGeometry relative="1" as="geometry">
            <mxPoint x="1080" y="489.5" as="targetPoint" />
          </mxGeometry>
        </mxCell>
        <mxCell id="aw6NFiJY7EGlubkK5XAH-12" value="eth1: 172.16.120.18/29" style="edgeLabel;html=1;align=center;verticalAlign=middle;resizable=0;points=[];" vertex="1" connectable="0" parent="aw6NFiJY7EGlubkK5XAH-11">
          <mxGeometry x="-0.7008" y="1" relative="1" as="geometry">
            <mxPoint x="26" y="1" as="offset" />
          </mxGeometry>
        </mxCell>
        <mxCell id="aw6NFiJY7EGlubkK5XAH-19" value="eth0" style="edgeLabel;html=1;align=center;verticalAlign=middle;resizable=0;points=[];" vertex="1" connectable="0" parent="aw6NFiJY7EGlubkK5XAH-11">
          <mxGeometry x="0.6788" y="3" relative="1" as="geometry">
            <mxPoint as="offset" />
          </mxGeometry>
        </mxCell>
        <mxCell id="aw6NFiJY7EGlubkK5XAH-10" value="&lt;div&gt;RED-IPS&lt;br&gt;&lt;/div&gt;&lt;div&gt;172.16.120.9/29&lt;/div&gt;&lt;div&gt;SSH&lt;br&gt;&lt;/div&gt;" style="whiteSpace=wrap;html=1;aspect=fixed;" vertex="1" parent="1">
          <mxGeometry x="799" y="439" width="101" height="101" as="geometry" />
        </mxCell>
        <mxCell id="aw6NFiJY7EGlubkK5XAH-17" style="edgeStyle=orthogonalEdgeStyle;rounded=0;orthogonalLoop=1;jettySize=auto;html=1;" edge="1" parent="1">
          <mxGeometry relative="1" as="geometry">
            <mxPoint x="1550" y="520" as="targetPoint" />
            <mxPoint x="1360" y="480" as="sourcePoint" />
          </mxGeometry>
        </mxCell>
        <mxCell id="aw6NFiJY7EGlubkK5XAH-18" value="eth1:172.16.182.126/27" style="edgeLabel;html=1;align=center;verticalAlign=middle;resizable=0;points=[];" vertex="1" connectable="0" parent="aw6NFiJY7EGlubkK5XAH-17">
          <mxGeometry x="-0.8032" relative="1" as="geometry">
            <mxPoint x="-111" y="20" as="offset" />
          </mxGeometry>
        </mxCell>
        <mxCell id="aw6NFiJY7EGlubkK5XAH-20" style="edgeStyle=orthogonalEdgeStyle;rounded=0;orthogonalLoop=1;jettySize=auto;html=1;" edge="1" parent="1" source="aw6NFiJY7EGlubkK5XAH-16">
          <mxGeometry relative="1" as="geometry">
            <mxPoint x="1145" y="730" as="targetPoint" />
          </mxGeometry>
        </mxCell>
        <mxCell id="aw6NFiJY7EGlubkK5XAH-21" value="eth2: 172.16.140.6/29" style="edgeLabel;html=1;align=center;verticalAlign=middle;resizable=0;points=[];" vertex="1" connectable="0" parent="aw6NFiJY7EGlubkK5XAH-20">
          <mxGeometry x="-0.8405" y="1" relative="1" as="geometry">
            <mxPoint as="offset" />
          </mxGeometry>
        </mxCell>
        <mxCell id="aw6NFiJY7EGlubkK5XAH-35" value="eth0" style="edgeLabel;html=1;align=center;verticalAlign=middle;resizable=0;points=[];" vertex="1" connectable="0" parent="aw6NFiJY7EGlubkK5XAH-20">
          <mxGeometry x="0.8009" y="-3" relative="1" as="geometry">
            <mxPoint as="offset" />
          </mxGeometry>
        </mxCell>
        <mxCell id="aw6NFiJY7EGlubkK5XAH-39" style="edgeStyle=orthogonalEdgeStyle;rounded=0;orthogonalLoop=1;jettySize=auto;html=1;" edge="1" parent="1" source="aw6NFiJY7EGlubkK5XAH-16">
          <mxGeometry relative="1" as="geometry">
            <mxPoint x="1350" y="515" as="targetPoint" />
          </mxGeometry>
        </mxCell>
        <mxCell id="aw6NFiJY7EGlubkK5XAH-16" value="&lt;div&gt;RED-POP&lt;br&gt;&lt;/div&gt;&lt;div&gt;172.16.120.17&lt;/div&gt;&lt;div&gt;22&lt;br&gt;&lt;/div&gt;" style="whiteSpace=wrap;html=1;aspect=fixed;" vertex="1" parent="1">
          <mxGeometry x="1080" y="450" width="130" height="130" as="geometry" />
        </mxCell>
        <mxCell id="aw6NFiJY7EGlubkK5XAH-22" value="" style="endArrow=none;html=1;rounded=0;entryX=0;entryY=0;entryDx=0;entryDy=0;" edge="1" parent="1" target="aw6NFiJY7EGlubkK5XAH-25">
          <mxGeometry width="50" height="50" relative="1" as="geometry">
            <mxPoint x="1360" y="640" as="sourcePoint" />
            <mxPoint x="1360" y="650" as="targetPoint" />
          </mxGeometry>
        </mxCell>
        <mxCell id="aw6NFiJY7EGlubkK5XAH-49" value="eth0" style="edgeLabel;html=1;align=center;verticalAlign=middle;resizable=0;points=[];" vertex="1" connectable="0" parent="aw6NFiJY7EGlubkK5XAH-22">
          <mxGeometry x="0.7413" y="-1" relative="1" as="geometry">
            <mxPoint as="offset" />
          </mxGeometry>
        </mxCell>
        <mxCell id="aw6NFiJY7EGlubkK5XAH-23" value="" style="endArrow=none;html=1;rounded=0;entryX=0;entryY=0.5;entryDx=0;entryDy=0;" edge="1" parent="1" target="aw6NFiJY7EGlubkK5XAH-26">
          <mxGeometry width="50" height="50" relative="1" as="geometry">
            <mxPoint x="1360" y="600" as="sourcePoint" />
            <mxPoint x="1480" y="590" as="targetPoint" />
          </mxGeometry>
        </mxCell>
        <mxCell id="aw6NFiJY7EGlubkK5XAH-50" value="eth0" style="edgeLabel;html=1;align=center;verticalAlign=middle;resizable=0;points=[];" vertex="1" connectable="0" parent="aw6NFiJY7EGlubkK5XAH-23">
          <mxGeometry x="0.6278" y="2" relative="1" as="geometry">
            <mxPoint as="offset" />
          </mxGeometry>
        </mxCell>
        <mxCell id="aw6NFiJY7EGlubkK5XAH-24" value="" style="endArrow=none;html=1;rounded=0;entryX=0.5;entryY=1;entryDx=0;entryDy=0;" edge="1" parent="1" target="aw6NFiJY7EGlubkK5XAH-27">
          <mxGeometry width="50" height="50" relative="1" as="geometry">
            <mxPoint x="1360" y="430" as="sourcePoint" />
            <mxPoint x="1380" y="400" as="targetPoint" />
          </mxGeometry>
        </mxCell>
        <mxCell id="aw6NFiJY7EGlubkK5XAH-29" value="eth0" style="edgeLabel;html=1;align=center;verticalAlign=middle;resizable=0;points=[];" vertex="1" connectable="0" parent="aw6NFiJY7EGlubkK5XAH-24">
          <mxGeometry x="0.8155" y="-3" relative="1" as="geometry">
            <mxPoint as="offset" />
          </mxGeometry>
        </mxCell>
        <mxCell id="aw6NFiJY7EGlubkK5XAH-52" value="eth0" style="edgeLabel;html=1;align=center;verticalAlign=middle;resizable=0;points=[];" vertex="1" connectable="0" parent="aw6NFiJY7EGlubkK5XAH-24">
          <mxGeometry x="-0.0839" y="-2" relative="1" as="geometry">
            <mxPoint as="offset" />
          </mxGeometry>
        </mxCell>
        <mxCell id="aw6NFiJY7EGlubkK5XAH-25" value="&lt;div&gt;red-host-4&lt;br&gt;&lt;/div&gt;&lt;div&gt;172.16.182.118&lt;/div&gt;&lt;div&gt;22&lt;br&gt;&lt;/div&gt;" style="whiteSpace=wrap;html=1;aspect=fixed;" vertex="1" parent="1">
          <mxGeometry x="1480" y="730" width="90" height="90" as="geometry" />
        </mxCell>
        <mxCell id="aw6NFiJY7EGlubkK5XAH-26" value="&lt;div&gt;red-host-3&lt;br&gt;&lt;/div&gt;&lt;div&gt;172.16.182.114&lt;/div&gt;&lt;div&gt;22&lt;br&gt;&lt;/div&gt;" style="whiteSpace=wrap;html=1;aspect=fixed;" vertex="1" parent="1">
          <mxGeometry x="1470" y="590" width="90" height="90" as="geometry" />
        </mxCell>
        <mxCell id="aw6NFiJY7EGlubkK5XAH-27" value="&lt;div&gt;red-host-1&lt;br&gt;&lt;/div&gt;&lt;div&gt;172.16.182.106&lt;/div&gt;&lt;div&gt;22&lt;br&gt;&lt;/div&gt;" style="whiteSpace=wrap;html=1;aspect=fixed;" vertex="1" parent="1">
          <mxGeometry x="1470" y="340" width="90" height="90" as="geometry" />
        </mxCell>
        <mxCell id="aw6NFiJY7EGlubkK5XAH-28" value="&lt;div&gt;172.16.182.110&lt;/div&gt;&lt;div&gt;22,80,1980,1982,&lt;/div&gt;&lt;div&gt;1984,1989&lt;br&gt;&lt;/div&gt;" style="whiteSpace=wrap;html=1;aspect=fixed;" vertex="1" parent="1">
          <mxGeometry x="1480" y="455" width="90" height="90" as="geometry" />
        </mxCell>
        <mxCell id="aw6NFiJY7EGlubkK5XAH-36" style="edgeStyle=orthogonalEdgeStyle;rounded=0;orthogonalLoop=1;jettySize=auto;html=1;" edge="1" parent="1" source="aw6NFiJY7EGlubkK5XAH-32">
          <mxGeometry relative="1" as="geometry">
            <mxPoint x="1120" y="1040" as="targetPoint" />
          </mxGeometry>
        </mxCell>
        <mxCell id="aw6NFiJY7EGlubkK5XAH-37" value="eth1:172.16.140.62" style="edgeLabel;html=1;align=center;verticalAlign=middle;resizable=0;points=[];" vertex="1" connectable="0" parent="aw6NFiJY7EGlubkK5XAH-36">
          <mxGeometry x="-0.7798" y="2" relative="1" as="geometry">
            <mxPoint as="offset" />
          </mxGeometry>
        </mxCell>
        <mxCell id="aw6NFiJY7EGlubkK5XAH-32" value="&lt;div&gt;RED-POP2&lt;/div&gt;&lt;div&gt;172.16.140.5&lt;/div&gt;&lt;div&gt;22&lt;br&gt;&lt;/div&gt;" style="whiteSpace=wrap;html=1;aspect=fixed;" vertex="1" parent="1">
          <mxGeometry x="1070" y="730" width="115" height="115" as="geometry" />
        </mxCell>
        <mxCell id="aw6NFiJY7EGlubkK5XAH-40" value="" style="endArrow=none;html=1;rounded=0;" edge="1" parent="1">
          <mxGeometry width="50" height="50" relative="1" as="geometry">
            <mxPoint x="1360" y="645" as="sourcePoint" />
            <mxPoint x="1360" y="385" as="targetPoint" />
          </mxGeometry>
        </mxCell>
        <mxCell id="aw6NFiJY7EGlubkK5XAH-41" value="" style="endArrow=none;html=1;rounded=0;" edge="1" parent="1">
          <mxGeometry width="50" height="50" relative="1" as="geometry">
            <mxPoint x="970" y="1040" as="sourcePoint" />
            <mxPoint x="1240" y="1040" as="targetPoint" />
          </mxGeometry>
        </mxCell>
        <mxCell id="aw6NFiJY7EGlubkK5XAH-45" style="edgeStyle=orthogonalEdgeStyle;rounded=0;orthogonalLoop=1;jettySize=auto;html=1;" edge="1" parent="1" source="aw6NFiJY7EGlubkK5XAH-42">
          <mxGeometry relative="1" as="geometry">
            <mxPoint x="1020" y="1040" as="targetPoint" />
          </mxGeometry>
        </mxCell>
        <mxCell id="aw6NFiJY7EGlubkK5XAH-42" value="&lt;div&gt;172.16.140.33&lt;/div&gt;&lt;div&gt;22,80,2305,&lt;/div&gt;&lt;div&gt;2800,2828&lt;/div&gt;&lt;div&gt;2000,2011,2200&lt;/div&gt;&lt;div&gt;2250,2999&lt;br&gt;&lt;/div&gt;" style="whiteSpace=wrap;html=1;aspect=fixed;" vertex="1" parent="1">
          <mxGeometry x="980" y="1129" width="130" height="130" as="geometry" />
        </mxCell>
        <mxCell id="aw6NFiJY7EGlubkK5XAH-46" style="edgeStyle=orthogonalEdgeStyle;rounded=0;orthogonalLoop=1;jettySize=auto;html=1;" edge="1" parent="1" source="aw6NFiJY7EGlubkK5XAH-43">
          <mxGeometry relative="1" as="geometry">
            <mxPoint x="1240" y="1040" as="targetPoint" />
          </mxGeometry>
        </mxCell>
        <mxCell id="aw6NFiJY7EGlubkK5XAH-48" value="eth0" style="edgeLabel;html=1;align=center;verticalAlign=middle;resizable=0;points=[];" vertex="1" connectable="0" parent="aw6NFiJY7EGlubkK5XAH-46">
          <mxGeometry x="-0.677" y="2" relative="1" as="geometry">
            <mxPoint as="offset" />
          </mxGeometry>
        </mxCell>
        <mxCell id="aw6NFiJY7EGlubkK5XAH-43" value="&lt;div&gt;red-int-dmz2-host-2&lt;br&gt;&lt;/div&gt;&lt;div&gt;172.16.140.35&lt;/div&gt;&lt;div&gt;22&lt;br&gt;&lt;/div&gt;" style="whiteSpace=wrap;html=1;aspect=fixed;" vertex="1" parent="1">
          <mxGeometry x="1200" y="1120" width="80" height="80" as="geometry" />
        </mxCell>
        <mxCell id="aw6NFiJY7EGlubkK5XAH-56" value="" style="ellipse;shape=cloud;whiteSpace=wrap;html=1;" vertex="1" parent="1">
          <mxGeometry x="280" y="470" width="120" height="80" as="geometry" />
        </mxCell>
      </root>
    </mxGraphModel>
  </diagram>
</mxfile>
